<?xml version="1.0" encoding="utf-8" standalone="no"?>
<!DOCTYPE svg PUBLIC "-//W3C//DTD SVG 1.1//EN"
  "http://www.w3.org/Graphics/SVG/1.1/DTD/svg11.dtd">
<svg xmlns:xlink="http://www.w3.org/1999/xlink" width="749.813965pt" height="498.898594pt" viewBox="0 0 749.813965 498.898594" xmlns="http://www.w3.org/2000/svg" version="1.1">
 <metadata>
  <rdf:RDF xmlns:dc="http://purl.org/dc/elements/1.1/" xmlns:cc="http://creativecommons.org/ns#" xmlns:rdf="http://www.w3.org/1999/02/22-rdf-syntax-ns#">
   <cc:Work>
    <dc:type rdf:resource="http://purl.org/dc/dcmitype/StillImage"/>
    <dc:date>2026-05-31T14:39:45.479278</dc:date>
    <dc:format>image/svg+xml</dc:format>
    <dc:creator>
     <cc:Agent>
      <dc:title>Matplotlib v3.9.2, https://matplotlib.org/</dc:title>
     </cc:Agent>
    </dc:creator>
   </cc:Work>
  </rdf:RDF>
 </metadata>
 <defs>
  <style type="text/css">*{stroke-linejoin: round; stroke-linecap: butt}</style>
 </defs>
 <g id="figure_1">
  <g id="patch_1">
   <path d="M 0 498.898594
L 749.813965 498.898594
L 749.813965 0
L 0 0
z
" style="fill: #ffffff"/>
  </g>
  <g id="axes_1">
   <g id="patch_2">
    <path d="M 45.690625 463.277969
L 606.132625 463.277969
L 606.132625 23.077969
L 45.690625 23.077969
z
" style="fill: #ffffff"/>
   </g>
   <g id="PathCollection_1">
    <path d="M 198.937812 96.765104
C 203.531265 96.765104 207.9372 94.940106 211.185261 91.692044
C 214.433322 88.443983 216.25832 84.038048 216.25832 79.444596
C 216.25832 74.851143 214.433322 70.445208 211.185261 67.197147
C 207.9372 63.949085 203.531265 62.124087 198.937812 62.124087
C 194.34436 62.124087 189.938425 63.949085 186.690363 67.197147
C 183.442302 70.445208 181.617304 74.851143 181.617304 79.444596
C 181.617304 84.038048 183.442302 88.443983 186.690363 91.692044
C 189.938425 94.940106 194.34436 96.765104 198.937812 96.765104
z
" clip-path="url(#p9236401677)" style="fill: #b54a5a; fill-opacity: 0.72; stroke: #ffffff; stroke-opacity: 0.72; stroke-width: 0.7"/>
    <path d="M 317.178513 205.516348
C 321.456298 205.516348 325.559452 203.816766 328.584303 200.791916
C 331.609153 197.767065 333.308735 193.663911 333.308735 189.386126
C 333.308735 185.108341 331.609153 181.005187 328.584303 177.980336
C 325.559452 174.955486 321.456298 173.255904 317.178513 173.255904
C 312.900728 173.255904 308.797574 174.955486 305.772723 177.980336
C 302.747873 181.005187 301.048291 185.108341 301.048291 189.386126
C 301.048291 193.663911 302.747873 197.767065 305.772723 200.791916
C 308.797574 203.816766 312.900728 205.516348 317.178513 205.516348
z
" clip-path="url(#p9236401677)" style="fill: #b54a5a; fill-opacity: 0.72; stroke: #ffffff; stroke-opacity: 0.72; stroke-width: 0.7"/>
    <path d="M 242.09025 110.951664
C 245.720065 110.951664 249.2017 109.509523 251.768367 106.942856
C 254.335034 104.376189 255.777175 100.894554 255.777175 97.264739
C 255.777175 93.634923 254.335034 90.153288 251.768367 87.586621
C 249.2017 85.019954 245.720065 83.577813 242.09025 83.577813
C 238.460434 83.577813 234.978799 85.019954 232.412132 87.586621
C 229.845465 90.153288 228.403324 93.634923 228.403324 97.264739
C 228.403324 100.894554 229.845465 104.376189 232.412132 106.942856
C 234.978799 109.509523 238.460434 110.951664 242.09025 110.951664
z
" clip-path="url(#p9236401677)" style="fill: #b54a5a; fill-opacity: 0.72; stroke: #ffffff; stroke-opacity: 0.72; stroke-width: 0.7"/>
    <path d="M 348.854494 194.840629
C 351.874129 194.840629 354.770493 193.640915 356.905697 191.505711
C 359.040901 189.370507 360.240615 186.474142 360.240615 183.454508
C 360.240615 180.434873 359.040901 177.538509 356.905697 175.403305
C 354.770493 173.268101 351.874129 172.068387 348.854494 172.068387
C 345.83486 172.068387 342.938495 173.268101 340.803291 175.403305
C 338.668087 177.538509 337.468374 180.434873 337.468374 183.454508
C 337.468374 186.474142 338.668087 189.370507 340.803291 191.505711
C 342.938495 193.640915 345.83486 194.840629 348.854494 194.840629
z
" clip-path="url(#p9236401677)" style="fill: #b54a5a; fill-opacity: 0.72; stroke: #ffffff; stroke-opacity: 0.72; stroke-width: 0.7"/>
    <path d="M 296.350437 200.633984
C 299.133618 200.633984 301.803183 199.528214 303.771189 197.560208
C 305.739196 195.592201 306.844966 192.922637 306.844966 190.139455
C 306.844966 187.356273 305.739196 184.686709 303.771189 182.718702
C 301.803183 180.750696 299.133618 179.644926 296.350437 179.644926
C 293.567255 179.644926 290.89769 180.750696 288.929684 182.718702
C 286.961677 184.686709 285.855907 187.356273 285.855907 190.139455
C 285.855907 192.922637 286.961677 195.592201 288.929684 197.560208
C 290.89769 199.528214 293.567255 200.633984 296.350437 200.633984
z
" clip-path="url(#p9236401677)" style="fill: #b54a5a; fill-opacity: 0.72; stroke: #ffffff; stroke-opacity: 0.72; stroke-width: 0.7"/>
    <path d="M 229.759373 100.818137
C 232.007495 100.818137 234.163842 99.924949 235.753505 98.335287
C 237.343167 96.745624 238.236355 94.589277 238.236355 92.341155
C 238.236355 90.093033 237.343167 87.936685 235.753505 86.347023
C 234.163842 84.75736 232.007495 83.864172 229.759373 83.864172
C 227.511251 83.864172 225.354903 84.75736 223.765241 86.347023
C 222.175578 87.936685 221.28239 90.093033 221.28239 92.341155
C 221.28239 94.589277 222.175578 96.745624 223.765241 98.335287
C 225.354903 99.924949 227.511251 100.818137 229.759373 100.818137
z
" clip-path="url(#p9236401677)" style="fill: #b54a5a; fill-opacity: 0.72; stroke: #ffffff; stroke-opacity: 0.72; stroke-width: 0.7"/>
   </g>
   <g id="PathCollection_2">
    <path d="M 183.683178 207.336483
C 188.276631 207.336483 192.682566 205.511485 195.930627 202.263424
C 199.178688 199.015362 201.003686 194.609428 201.003686 190.015975
C 201.003686 185.422523 199.178688 181.016588 195.930627 177.768526
C 192.682566 174.520465 188.276631 172.695467 183.683178 172.695467
C 179.089726 172.695467 174.683791 174.520465 171.43573 177.768526
C 168.187668 181.016588 166.36267 185.422523 166.36267 190.015975
C 166.36267 194.609428 168.187668 199.015362 171.43573 202.263424
C 174.683791 205.511485 179.089726 207.336483 183.683178 207.336483
z
" clip-path="url(#p9236401677)" style="fill: #7e62a3; fill-opacity: 0.72; stroke: #ffffff; stroke-opacity: 0.72; stroke-width: 0.7"/>
    <path d="M 387.37623 307.021239
C 391.969682 307.021239 396.375617 305.196241 399.623679 301.94818
C 402.87174 298.700118 404.696738 294.294183 404.696738 289.700731
C 404.696738 285.107278 402.87174 280.701344 399.623679 277.453282
C 396.375617 274.205221 391.969682 272.380223 387.37623 272.380223
C 382.782777 272.380223 378.376843 274.205221 375.128781 277.453282
C 371.88072 280.701344 370.055722 285.107278 370.055722 289.700731
C 370.055722 294.294183 371.88072 298.700118 375.128781 301.94818
C 378.376843 305.196241 382.782777 307.021239 387.37623 307.021239
z
" clip-path="url(#p9236401677)" style="fill: #7e62a3; fill-opacity: 0.72; stroke: #ffffff; stroke-opacity: 0.72; stroke-width: 0.7"/>
    <path d="M 192.398042 279.773346
C 196.788687 279.773346 201.000094 278.028924 204.104749 274.92427
C 207.209403 271.819615 208.953825 267.608208 208.953825 263.217563
C 208.953825 258.826918 207.209403 254.615511 204.104749 251.510856
C 201.000094 248.406201 196.788687 246.66178 192.398042 246.66178
C 188.007397 246.66178 183.79599 248.406201 180.691335 251.510856
C 177.58668 254.615511 175.842259 258.826918 175.842259 263.217563
C 175.842259 267.608208 177.58668 271.819615 180.691335 274.92427
C 183.79599 278.028924 188.007397 279.773346 192.398042 279.773346
z
" clip-path="url(#p9236401677)" style="fill: #7e62a3; fill-opacity: 0.72; stroke: #ffffff; stroke-opacity: 0.72; stroke-width: 0.7"/>
    <path d="M 264.385133 170.189822
C 268.69299 170.189822 272.824989 168.478293 275.871104 165.432177
C 278.917219 162.386062 280.628749 158.254063 280.628749 153.946206
C 280.628749 149.638349 278.917219 145.50635 275.871104 142.460235
C 272.824989 139.41412 268.69299 137.70259 264.385133 137.70259
C 260.077275 137.70259 255.945277 139.41412 252.899161 142.460235
C 249.853046 145.50635 248.141516 149.638349 248.141516 153.946206
C 248.141516 158.254063 249.853046 162.386062 252.899161 165.432177
C 255.945277 168.478293 260.077275 170.189822 264.385133 170.189822
z
" clip-path="url(#p9236401677)" style="fill: #7e62a3; fill-opacity: 0.72; stroke: #ffffff; stroke-opacity: 0.72; stroke-width: 0.7"/>
    <path d="M 258.519024 249.670207
C 262.66302 249.670207 266.637846 248.02378 269.568094 245.093532
C 272.498341 242.163285 274.144768 238.188458 274.144768 234.044463
C 274.144768 229.900467 272.498341 225.92564 269.568094 222.995393
C 266.637846 220.065145 262.66302 218.418718 258.519024 218.418718
C 254.375029 218.418718 250.400202 220.065145 247.469955 222.995393
C 244.539707 225.92564 242.89328 229.900467 242.89328 234.044463
C 242.89328 238.188458 244.539707 242.163285 247.469955 245.093532
C 250.400202 248.02378 254.375029 249.670207 258.519024 249.670207
z
" clip-path="url(#p9236401677)" style="fill: #7e62a3; fill-opacity: 0.72; stroke: #ffffff; stroke-opacity: 0.72; stroke-width: 0.7"/>
    <path d="M 291.865502 201.688035
C 295.827943 201.688035 299.628626 200.11374 302.430494 197.311872
C 305.232363 194.510003 306.806657 190.709321 306.806657 186.74688
C 306.806657 182.78444 305.232363 178.983757 302.430494 176.181888
C 299.628626 173.38002 295.827943 171.805726 291.865502 171.805726
C 287.903062 171.805726 284.102379 173.38002 281.300511 176.181888
C 278.498642 178.983757 276.924348 182.78444 276.924348 186.74688
C 276.924348 190.709321 278.498642 194.510003 281.300511 197.311872
C 284.102379 200.11374 287.903062 201.688035 291.865502 201.688035
z
" clip-path="url(#p9236401677)" style="fill: #7e62a3; fill-opacity: 0.72; stroke: #ffffff; stroke-opacity: 0.72; stroke-width: 0.7"/>
    <path d="M 341.902435 247.35069
C 345.655672 247.35069 349.255691 245.859514 351.90963 243.205574
C 354.56357 240.551635 356.054747 236.951616 356.054747 233.198379
C 356.054747 229.445142 354.56357 225.845123 351.90963 223.191184
C 349.255691 220.537245 345.655672 219.046068 341.902435 219.046068
C 338.149198 219.046068 334.549179 220.537245 331.89524 223.191184
C 329.241301 225.845123 327.750124 229.445142 327.750124 233.198379
C 327.750124 236.951616 329.241301 240.551635 331.89524 243.205574
C 334.549179 245.859514 338.149198 247.35069 341.902435 247.35069
z
" clip-path="url(#p9236401677)" style="fill: #7e62a3; fill-opacity: 0.72; stroke: #ffffff; stroke-opacity: 0.72; stroke-width: 0.7"/>
    <path d="M 383.24126 279.742229
C 386.214353 279.742229 389.066077 278.561006 391.168371 276.458712
C 393.270665 274.356418 394.451888 271.504695 394.451888 268.531602
C 394.451888 265.558508 393.270665 262.706785 391.168371 260.604491
C 389.066077 258.502197 386.214353 257.320974 383.24126 257.320974
C 380.268167 257.320974 377.416444 258.502197 375.31415 260.604491
C 373.211856 262.706785 372.030633 265.558508 372.030633 268.531602
C 372.030633 271.504695 373.211856 274.356418 375.31415 276.458712
C 377.416444 278.561006 380.268167 279.742229 383.24126 279.742229
z
" clip-path="url(#p9236401677)" style="fill: #7e62a3; fill-opacity: 0.72; stroke: #ffffff; stroke-opacity: 0.72; stroke-width: 0.7"/>
   </g>
   <g id="PathCollection_3">
    <path d="M 127.377675 93.871416
C 131.971128 93.871416 136.377062 92.046418 139.625124 88.798356
C 142.873185 85.550295 144.698183 81.14436 144.698183 76.550908
C 144.698183 71.957455 142.873185 67.55152 139.625124 64.303459
C 136.377062 61.055398 131.971128 59.2304 127.377675 59.2304
C 122.784223 59.2304 118.378288 61.055398 115.130226 64.303459
C 111.882165 67.55152 110.057167 71.957455 110.057167 76.550908
C 110.057167 81.14436 111.882165 85.550295 115.130226 88.798356
C 118.378288 92.046418 122.784223 93.871416 127.377675 93.871416
z
" clip-path="url(#p9236401677)" style="fill: #5b9a57; fill-opacity: 0.72; stroke: #ffffff; stroke-opacity: 0.72; stroke-width: 0.7"/>
    <path d="M 71.165261 162.902396
C 75.758714 162.902396 80.164649 161.077398 83.41271 157.829337
C 86.660771 154.581275 88.485769 150.17534 88.485769 145.581888
C 88.485769 140.988436 86.660771 136.582501 83.41271 133.334439
C 80.164649 130.086378 75.758714 128.26138 71.165261 128.26138
C 66.571809 128.26138 62.165874 130.086378 58.917813 133.334439
C 55.669751 136.582501 53.844753 140.988436 53.844753 145.581888
C 53.844753 150.17534 55.669751 154.581275 58.917813 157.829337
C 62.165874 161.077398 66.571809 162.902396 71.165261 162.902396
z
" clip-path="url(#p9236401677)" style="fill: #5b9a57; fill-opacity: 0.72; stroke: #ffffff; stroke-opacity: 0.72; stroke-width: 0.7"/>
    <path d="M 114.255315 121.190614
C 118.848768 121.190614 123.254703 119.365616 126.502764 116.117554
C 129.750825 112.869493 131.575823 108.463558 131.575823 103.870106
C 131.575823 99.276653 129.750825 94.870718 126.502764 91.622657
C 123.254703 88.374595 118.848768 86.549597 114.255315 86.549597
C 109.661863 86.549597 105.255928 88.374595 102.007867 91.622657
C 98.759805 94.870718 96.934807 99.276653 96.934807 103.870106
C 96.934807 108.463558 98.759805 112.869493 102.007867 116.117554
C 105.255928 119.365616 109.661863 121.190614 114.255315 121.190614
z
" clip-path="url(#p9236401677)" style="fill: #5b9a57; fill-opacity: 0.72; stroke: #ffffff; stroke-opacity: 0.72; stroke-width: 0.7"/>
   </g>
   <g id="PathCollection_4">
    <path d="M 264.672467 183.70364
C 269.26592 183.70364 273.671854 181.878642 276.919916 178.63058
C 280.167977 175.382519 281.992975 170.976584 281.992975 166.383131
C 281.992975 161.789679 280.167977 157.383744 276.919916 154.135683
C 273.671854 150.887621 269.26592 149.062623 264.672467 149.062623
C 260.079015 149.062623 255.67308 150.887621 252.425018 154.135683
C 249.176957 157.383744 247.351959 161.789679 247.351959 166.383131
C 247.351959 170.976584 249.176957 175.382519 252.425018 178.63058
C 255.67308 181.878642 260.079015 183.70364 264.672467 183.70364
z
" clip-path="url(#p9236401677)" style="fill: #d9892b; fill-opacity: 0.72; stroke: #ffffff; stroke-opacity: 0.72; stroke-width: 0.7"/>
    <path d="M 318.757798 246.797146
C 323.35125 246.797146 327.757185 244.972148 331.005247 241.724087
C 334.253308 238.476026 336.078306 234.070091 336.078306 229.476638
C 336.078306 224.883186 334.253308 220.477251 331.005247 217.229189
C 327.757185 213.981128 323.35125 212.15613 318.757798 212.15613
C 314.164346 212.15613 309.758411 213.981128 306.510349 217.229189
C 303.262288 220.477251 301.43729 224.883186 301.43729 229.476638
C 301.43729 234.070091 303.262288 238.476026 306.510349 241.724087
C 309.758411 244.972148 314.164346 246.797146 318.757798 246.797146
z
" clip-path="url(#p9236401677)" style="fill: #d9892b; fill-opacity: 0.72; stroke: #ffffff; stroke-opacity: 0.72; stroke-width: 0.7"/>
    <path d="M 332.622383 236.150944
C 337.005315 236.150944 341.209324 234.409586 344.308525 231.310385
C 347.407726 228.211184 349.149083 224.007175 349.149083 219.624243
C 349.149083 215.241311 347.407726 211.037302 344.308525 207.938101
C 341.209324 204.8389 337.005315 203.097542 332.622383 203.097542
C 328.23945 203.097542 324.035442 204.8389 320.936241 207.938101
C 317.837039 211.037302 316.095682 215.241311 316.095682 219.624243
C 316.095682 224.007175 317.837039 228.211184 320.936241 231.310385
C 324.035442 234.409586 328.23945 236.150944 332.622383 236.150944
z
" clip-path="url(#p9236401677)" style="fill: #d9892b; fill-opacity: 0.72; stroke: #ffffff; stroke-opacity: 0.72; stroke-width: 0.7"/>
   </g>
   <g id="PathCollection_5">
    <path d="M 182.060558 113.658149
C 186.65401 113.658149 191.059945 111.833151 194.308007 108.585089
C 197.556068 105.337028 199.381066 100.931093 199.381066 96.337641
C 199.381066 91.744188 197.556068 87.338253 194.308007 84.090192
C 191.059945 80.84213 186.65401 79.017133 182.060558 79.017133
C 177.467105 79.017133 173.06117 80.84213 169.813109 84.090192
C 166.565048 87.338253 164.74005 91.744188 164.74005 96.337641
C 164.74005 100.931093 166.565048 105.337028 169.813109 108.585089
C 173.06117 111.833151 177.467105 113.658149 182.060558 113.658149
z
" clip-path="url(#p9236401677)" style="fill: #3b7ea1; fill-opacity: 0.72; stroke: #ffffff; stroke-opacity: 0.72; stroke-width: 0.7"/>
    <path d="M 115.878086 60.407568
C 120.471538 60.407568 124.877473 58.58257 128.125534 55.334508
C 131.373596 52.086447 133.198594 47.680512 133.198594 43.08706
C 133.198594 38.493607 131.373596 34.087672 128.125534 30.839611
C 124.877473 27.59155 120.471538 25.766552 115.878086 25.766552
C 111.284633 25.766552 106.878698 27.59155 103.630637 30.839611
C 100.382576 34.087672 98.557578 38.493607 98.557578 43.08706
C 98.557578 47.680512 100.382576 52.086447 103.630637 55.334508
C 106.878698 58.58257 111.284633 60.407568 115.878086 60.407568
z
" clip-path="url(#p9236401677)" style="fill: #3b7ea1; fill-opacity: 0.72; stroke: #ffffff; stroke-opacity: 0.72; stroke-width: 0.7"/>
    <path d="M 234.445091 181.461117
C 239.038543 181.461117 243.444478 179.636119 246.69254 176.388058
C 249.940601 173.139996 251.765599 168.734061 251.765599 164.140609
C 251.765599 159.547157 249.940601 155.141222 246.69254 151.89316
C 243.444478 148.645099 239.038543 146.820101 234.445091 146.820101
C 229.851638 146.820101 225.445703 148.645099 222.197642 151.89316
C 218.949581 155.141222 217.124583 159.547157 217.124583 164.140609
C 217.124583 168.734061 218.949581 173.139996 222.197642 176.388058
C 225.445703 179.636119 229.851638 181.461117 234.445091 181.461117
z
" clip-path="url(#p9236401677)" style="fill: #3b7ea1; fill-opacity: 0.72; stroke: #ffffff; stroke-opacity: 0.72; stroke-width: 0.7"/>
    <path d="M 71.934447 87.564564
C 76.5279 87.564564 80.933835 85.739566 84.181896 82.491504
C 87.429957 79.243443 89.254955 74.837508 89.254955 70.244056
C 89.254955 65.650603 87.429957 61.244668 84.181896 57.996607
C 80.933835 54.748546 76.5279 52.923548 71.934447 52.923548
C 67.340995 52.923548 62.93506 54.748546 59.686999 57.996607
C 56.438937 61.244668 54.613939 65.650603 54.613939 70.244056
C 54.613939 74.837508 56.438937 79.243443 59.686999 82.491504
C 62.93506 85.739566 67.340995 87.564564 71.934447 87.564564
z
" clip-path="url(#p9236401677)" style="fill: #3b7ea1; fill-opacity: 0.72; stroke: #ffffff; stroke-opacity: 0.72; stroke-width: 0.7"/>
    <path d="M 439.012807 303.983641
C 443.60626 303.983641 448.012195 302.158643 451.260256 298.910581
C 454.508318 295.66252 456.333316 291.256585 456.333316 286.663133
C 456.333316 282.06968 454.508318 277.663745 451.260256 274.415684
C 448.012195 271.167623 443.60626 269.342625 439.012807 269.342625
C 434.419355 269.342625 430.01342 271.167623 426.765359 274.415684
C 423.517297 277.663745 421.692299 282.06968 421.692299 286.663133
C 421.692299 291.256585 423.517297 295.66252 426.765359 298.910581
C 430.01342 302.158643 434.419355 303.983641 439.012807 303.983641
z
" clip-path="url(#p9236401677)" style="fill: #3b7ea1; fill-opacity: 0.72; stroke: #ffffff; stroke-opacity: 0.72; stroke-width: 0.7"/>
    <path d="M 300.182831 202.916061
C 304.776284 202.916061 309.182219 201.091063 312.43028 197.843002
C 315.678341 194.59494 317.503339 190.189005 317.503339 185.595553
C 317.503339 181.0021 315.678341 176.596165 312.43028 173.348104
C 309.182219 170.100043 304.776284 168.275045 300.182831 168.275045
C 295.589379 168.275045 291.183444 170.100043 287.935383 173.348104
C 284.687321 176.596165 282.862323 181.0021 282.862323 185.595553
C 282.862323 190.189005 284.687321 194.59494 287.935383 197.843002
C 291.183444 201.091063 295.589379 202.916061 300.182831 202.916061
z
" clip-path="url(#p9236401677)" style="fill: #3b7ea1; fill-opacity: 0.72; stroke: #ffffff; stroke-opacity: 0.72; stroke-width: 0.7"/>
    <path d="M 180.832021 135.711398
C 185.375455 135.711398 189.733413 133.906272 192.946106 130.693579
C 196.158799 127.480886 197.963925 123.122928 197.963925 118.579494
C 197.963925 114.03606 196.158799 109.678101 192.946106 106.465408
C 189.733413 103.252715 185.375455 101.44759 180.832021 101.44759
C 176.288587 101.44759 171.930629 103.252715 168.717936 106.465408
C 165.505243 109.678101 163.700117 114.03606 163.700117 118.579494
C 163.700117 123.122928 165.505243 127.480886 168.717936 130.693579
C 171.930629 133.906272 176.288587 135.711398 180.832021 135.711398
z
" clip-path="url(#p9236401677)" style="fill: #3b7ea1; fill-opacity: 0.72; stroke: #ffffff; stroke-opacity: 0.72; stroke-width: 0.7"/>
   </g>
   <g id="PathCollection_6">
    <path d="M 484.730091 328.504677
C 489.137504 328.504677 493.364994 326.753593 496.481506 323.637082
C 499.598018 320.52057 501.349102 316.29308 501.349102 311.885667
C 501.349102 307.478254 499.598018 303.250763 496.481506 300.134252
C 493.364994 297.01774 489.137504 295.266656 484.730091 295.266656
C 480.322678 295.266656 476.095188 297.01774 472.978676 300.134252
C 469.862164 303.250763 468.111081 307.478254 468.111081 311.885667
C 468.111081 316.29308 469.862164 320.52057 472.978676 323.637082
C 476.095188 326.753593 480.322678 328.504677 484.730091 328.504677
z
" clip-path="url(#p9236401677)" style="fill: #5d737e; fill-opacity: 0.72; stroke: #ffffff; stroke-opacity: 0.72; stroke-width: 0.7"/>
    <path d="M 470.248519 325.516273
C 474.287981 325.516273 478.162542 323.911377 481.018873 321.055046
C 483.875205 318.198714 485.4801 314.324154 485.4801 310.284691
C 485.4801 306.245229 483.875205 302.370668 481.018873 299.514337
C 478.162542 296.658005 474.287981 295.05311 470.248519 295.05311
C 466.209056 295.05311 462.334495 296.658005 459.478164 299.514337
C 456.621832 302.370668 455.016937 306.245229 455.016937 310.284691
C 455.016937 314.324154 456.621832 318.198714 459.478164 321.055046
C 462.334495 323.911377 466.209056 325.516273 470.248519 325.516273
z
" clip-path="url(#p9236401677)" style="fill: #5d737e; fill-opacity: 0.72; stroke: #ffffff; stroke-opacity: 0.72; stroke-width: 0.7"/>
    <path d="M 580.657989 455.398595
C 583.874827 455.398595 586.960346 454.120532 589.234994 451.845883
C 591.509643 449.571235 592.787706 446.485717 592.787706 443.268878
C 592.787706 440.052039 591.509643 436.966521 589.234994 434.691872
C 586.960346 432.417224 583.874827 431.13916 580.657989 431.13916
C 577.44115 431.13916 574.355632 432.417224 572.080983 434.691872
C 569.806335 436.966521 568.528271 440.052039 568.528271 443.268878
C 568.528271 446.485717 569.806335 449.571235 572.080983 451.845883
C 574.355632 454.120532 577.44115 455.398595 580.657989 455.398595
z
" clip-path="url(#p9236401677)" style="fill: #5d737e; fill-opacity: 0.72; stroke: #ffffff; stroke-opacity: 0.72; stroke-width: 0.7"/>
    <path d="M 545.751494 386.194628
C 548.624339 386.194628 551.379905 385.053234 553.411313 383.021827
C 555.442721 380.990419 556.584114 378.234852 556.584114 375.362008
C 556.584114 372.489164 555.442721 369.733597 553.411313 367.70219
C 551.379905 365.670782 548.624339 364.529389 545.751494 364.529389
C 542.87865 364.529389 540.123083 365.670782 538.091676 367.70219
C 536.060268 369.733597 534.918875 372.489164 534.918875 375.362008
C 534.918875 378.234852 536.060268 380.990419 538.091676 383.021827
C 540.123083 385.053234 542.87865 386.194628 545.751494 386.194628
z
" clip-path="url(#p9236401677)" style="fill: #5d737e; fill-opacity: 0.72; stroke: #ffffff; stroke-opacity: 0.72; stroke-width: 0.7"/>
    <path d="M 563.073322 401.329091
C 565.854177 401.329091 568.521511 400.224245 570.487873 398.257883
C 572.454234 396.291521 573.55908 393.624188 573.55908 390.843332
C 573.55908 388.062477 572.454234 385.395143 570.487873 383.428782
C 568.521511 381.46242 565.854177 380.357574 563.073322 380.357574
C 560.292466 380.357574 557.625133 381.46242 555.658771 383.428782
C 553.692409 385.395143 552.587564 388.062477 552.587564 390.843332
C 552.587564 393.624188 553.692409 396.291521 555.658771 398.257883
C 557.625133 400.224245 560.292466 401.329091 563.073322 401.329091
z
" clip-path="url(#p9236401677)" style="fill: #5d737e; fill-opacity: 0.72; stroke: #ffffff; stroke-opacity: 0.72; stroke-width: 0.7"/>
    <path d="M 487.712125 363.855037
C 490.24826 363.855037 492.680863 362.84742 494.474181 361.054101
C 496.2675 359.260783 497.275117 356.82818 497.275117 354.292045
C 497.275117 351.75591 496.2675 349.323307 494.474181 347.529989
C 492.680863 345.736671 490.24826 344.729054 487.712125 344.729054
C 485.17599 344.729054 482.743387 345.736671 480.950069 347.529989
C 479.156751 349.323307 478.149134 351.75591 478.149134 354.292045
C 478.149134 356.82818 479.156751 359.260783 480.950069 361.054101
C 482.743387 362.84742 485.17599 363.855037 487.712125 363.855037
z
" clip-path="url(#p9236401677)" style="fill: #5d737e; fill-opacity: 0.72; stroke: #ffffff; stroke-opacity: 0.72; stroke-width: 0.7"/>
   </g>
   <g id="matplotlib.axis_1">
    <g id="xtick_1">
     <g id="line2d_1">
      <path d="M 71.763312 463.277969
L 71.763312 23.077969
" clip-path="url(#p9236401677)" style="fill: none; stroke: #b0b0b0; stroke-opacity: 0.25; stroke-width: 0.8; stroke-linecap: square"/>
     </g>
     <g id="line2d_2">
      <defs>
       <path id="m16ff17ca3d" d="M 0 0
L 0 3.5
" style="stroke: #000000; stroke-width: 0.8"/>
      </defs>
      <g>
       <use xlink:href="#m16ff17ca3d" x="71.763312" y="463.277969" style="stroke: #000000; stroke-width: 0.8"/>
      </g>
     </g>
     <g id="text_1">
      <!-- 0.4 -->
      <g transform="translate(65.402062 476.356719) scale(0.08 -0.08)">
       <defs>
        <path id="DejaVuSans-30" d="M 2034 4250
Q 1547 4250 1301 3770
Q 1056 3291 1056 2328
Q 1056 1369 1301 889
Q 1547 409 2034 409
Q 2525 409 2770 889
Q 3016 1369 3016 2328
Q 3016 3291 2770 3770
Q 2525 4250 2034 4250
z
M 2034 4750
Q 2819 4750 3233 4129
Q 3647 3509 3647 2328
Q 3647 1150 3233 529
Q 2819 -91 2034 -91
Q 1250 -91 836 529
Q 422 1150 422 2328
Q 422 3509 836 4129
Q 1250 4750 2034 4750
z
" transform="scale(0.015625)"/>
        <path id="DejaVuSans-2e" d="M 684 794
L 1344 794
L 1344 0
L 684 0
L 684 794
z
" transform="scale(0.015625)"/>
        <path id="DejaVuSans-34" d="M 2419 4116
L 825 1625
L 2419 1625
L 2419 4116
z
M 2253 4666
L 3047 4666
L 3047 1625
L 3713 1625
L 3713 1100
L 3047 1100
L 3047 0
L 2419 0
L 2419 1100
L 313 1100
L 313 1709
L 2253 4666
z
" transform="scale(0.015625)"/>
       </defs>
       <use xlink:href="#DejaVuSans-30"/>
       <use xlink:href="#DejaVuSans-2e" x="63.623047"/>
       <use xlink:href="#DejaVuSans-34" x="95.410156"/>
      </g>
     </g>
    </g>
    <g id="xtick_2">
     <g id="line2d_3">
      <path d="M 173.332208 463.277969
L 173.332208 23.077969
" clip-path="url(#p9236401677)" style="fill: none; stroke: #b0b0b0; stroke-opacity: 0.25; stroke-width: 0.8; stroke-linecap: square"/>
     </g>
     <g id="line2d_4">
      <g>
       <use xlink:href="#m16ff17ca3d" x="173.332208" y="463.277969" style="stroke: #000000; stroke-width: 0.8"/>
      </g>
     </g>
     <g id="text_2">
      <!-- 0.5 -->
      <g transform="translate(166.970958 476.356719) scale(0.08 -0.08)">
       <defs>
        <path id="DejaVuSans-35" d="M 691 4666
L 3169 4666
L 3169 4134
L 1269 4134
L 1269 2991
Q 1406 3038 1543 3061
Q 1681 3084 1819 3084
Q 2600 3084 3056 2656
Q 3513 2228 3513 1497
Q 3513 744 3044 326
Q 2575 -91 1722 -91
Q 1428 -91 1123 -41
Q 819 9 494 109
L 494 744
Q 775 591 1075 516
Q 1375 441 1709 441
Q 2250 441 2565 725
Q 2881 1009 2881 1497
Q 2881 1984 2565 2268
Q 2250 2553 1709 2553
Q 1456 2553 1204 2497
Q 953 2441 691 2322
L 691 4666
z
" transform="scale(0.015625)"/>
       </defs>
       <use xlink:href="#DejaVuSans-30"/>
       <use xlink:href="#DejaVuSans-2e" x="63.623047"/>
       <use xlink:href="#DejaVuSans-35" x="95.410156"/>
      </g>
     </g>
    </g>
    <g id="xtick_3">
     <g id="line2d_5">
      <path d="M 274.901104 463.277969
L 274.901104 23.077969
" clip-path="url(#p9236401677)" style="fill: none; stroke: #b0b0b0; stroke-opacity: 0.25; stroke-width: 0.8; stroke-linecap: square"/>
     </g>
     <g id="line2d_6">
      <g>
       <use xlink:href="#m16ff17ca3d" x="274.901104" y="463.277969" style="stroke: #000000; stroke-width: 0.8"/>
      </g>
     </g>
     <g id="text_3">
      <!-- 0.6 -->
      <g transform="translate(268.539854 476.356719) scale(0.08 -0.08)">
       <defs>
        <path id="DejaVuSans-36" d="M 2113 2584
Q 1688 2584 1439 2293
Q 1191 2003 1191 1497
Q 1191 994 1439 701
Q 1688 409 2113 409
Q 2538 409 2786 701
Q 3034 994 3034 1497
Q 3034 2003 2786 2293
Q 2538 2584 2113 2584
z
M 3366 4563
L 3366 3988
Q 3128 4100 2886 4159
Q 2644 4219 2406 4219
Q 1781 4219 1451 3797
Q 1122 3375 1075 2522
Q 1259 2794 1537 2939
Q 1816 3084 2150 3084
Q 2853 3084 3261 2657
Q 3669 2231 3669 1497
Q 3669 778 3244 343
Q 2819 -91 2113 -91
Q 1303 -91 875 529
Q 447 1150 447 2328
Q 447 3434 972 4092
Q 1497 4750 2381 4750
Q 2619 4750 2861 4703
Q 3103 4656 3366 4563
z
" transform="scale(0.015625)"/>
       </defs>
       <use xlink:href="#DejaVuSans-30"/>
       <use xlink:href="#DejaVuSans-2e" x="63.623047"/>
       <use xlink:href="#DejaVuSans-36" x="95.410156"/>
      </g>
     </g>
    </g>
    <g id="xtick_4">
     <g id="line2d_7">
      <path d="M 376.470001 463.277969
L 376.470001 23.077969
" clip-path="url(#p9236401677)" style="fill: none; stroke: #b0b0b0; stroke-opacity: 0.25; stroke-width: 0.8; stroke-linecap: square"/>
     </g>
     <g id="line2d_8">
      <g>
       <use xlink:href="#m16ff17ca3d" x="376.470001" y="463.277969" style="stroke: #000000; stroke-width: 0.8"/>
      </g>
     </g>
     <g id="text_4">
      <!-- 0.7 -->
      <g transform="translate(370.108751 476.356719) scale(0.08 -0.08)">
       <defs>
        <path id="DejaVuSans-37" d="M 525 4666
L 3525 4666
L 3525 4397
L 1831 0
L 1172 0
L 2766 4134
L 525 4134
L 525 4666
z
" transform="scale(0.015625)"/>
       </defs>
       <use xlink:href="#DejaVuSans-30"/>
       <use xlink:href="#DejaVuSans-2e" x="63.623047"/>
       <use xlink:href="#DejaVuSans-37" x="95.410156"/>
      </g>
     </g>
    </g>
    <g id="xtick_5">
     <g id="line2d_9">
      <path d="M 478.038897 463.277969
L 478.038897 23.077969
" clip-path="url(#p9236401677)" style="fill: none; stroke: #b0b0b0; stroke-opacity: 0.25; stroke-width: 0.8; stroke-linecap: square"/>
     </g>
     <g id="line2d_10">
      <g>
       <use xlink:href="#m16ff17ca3d" x="478.038897" y="463.277969" style="stroke: #000000; stroke-width: 0.8"/>
      </g>
     </g>
     <g id="text_5">
      <!-- 0.8 -->
      <g transform="translate(471.677647 476.356719) scale(0.08 -0.08)">
       <defs>
        <path id="DejaVuSans-38" d="M 2034 2216
Q 1584 2216 1326 1975
Q 1069 1734 1069 1313
Q 1069 891 1326 650
Q 1584 409 2034 409
Q 2484 409 2743 651
Q 3003 894 3003 1313
Q 3003 1734 2745 1975
Q 2488 2216 2034 2216
z
M 1403 2484
Q 997 2584 770 2862
Q 544 3141 544 3541
Q 544 4100 942 4425
Q 1341 4750 2034 4750
Q 2731 4750 3128 4425
Q 3525 4100 3525 3541
Q 3525 3141 3298 2862
Q 3072 2584 2669 2484
Q 3125 2378 3379 2068
Q 3634 1759 3634 1313
Q 3634 634 3220 271
Q 2806 -91 2034 -91
Q 1263 -91 848 271
Q 434 634 434 1313
Q 434 1759 690 2068
Q 947 2378 1403 2484
z
M 1172 3481
Q 1172 3119 1398 2916
Q 1625 2713 2034 2713
Q 2441 2713 2670 2916
Q 2900 3119 2900 3481
Q 2900 3844 2670 4047
Q 2441 4250 2034 4250
Q 1625 4250 1398 4047
Q 1172 3844 1172 3481
z
" transform="scale(0.015625)"/>
       </defs>
       <use xlink:href="#DejaVuSans-30"/>
       <use xlink:href="#DejaVuSans-2e" x="63.623047"/>
       <use xlink:href="#DejaVuSans-38" x="95.410156"/>
      </g>
     </g>
    </g>
    <g id="xtick_6">
     <g id="line2d_11">
      <path d="M 579.607793 463.277969
L 579.607793 23.077969
" clip-path="url(#p9236401677)" style="fill: none; stroke: #b0b0b0; stroke-opacity: 0.25; stroke-width: 0.8; stroke-linecap: square"/>
     </g>
     <g id="line2d_12">
      <g>
       <use xlink:href="#m16ff17ca3d" x="579.607793" y="463.277969" style="stroke: #000000; stroke-width: 0.8"/>
      </g>
     </g>
     <g id="text_6">
      <!-- 0.9 -->
      <g transform="translate(573.246543 476.356719) scale(0.08 -0.08)">
       <defs>
        <path id="DejaVuSans-39" d="M 703 97
L 703 672
Q 941 559 1184 500
Q 1428 441 1663 441
Q 2288 441 2617 861
Q 2947 1281 2994 2138
Q 2813 1869 2534 1725
Q 2256 1581 1919 1581
Q 1219 1581 811 2004
Q 403 2428 403 3163
Q 403 3881 828 4315
Q 1253 4750 1959 4750
Q 2769 4750 3195 4129
Q 3622 3509 3622 2328
Q 3622 1225 3098 567
Q 2575 -91 1691 -91
Q 1453 -91 1209 -44
Q 966 3 703 97
z
M 1959 2075
Q 2384 2075 2632 2365
Q 2881 2656 2881 3163
Q 2881 3666 2632 3958
Q 2384 4250 1959 4250
Q 1534 4250 1286 3958
Q 1038 3666 1038 3163
Q 1038 2656 1286 2365
Q 1534 2075 1959 2075
z
" transform="scale(0.015625)"/>
       </defs>
       <use xlink:href="#DejaVuSans-30"/>
       <use xlink:href="#DejaVuSans-2e" x="63.623047"/>
       <use xlink:href="#DejaVuSans-39" x="95.410156"/>
      </g>
     </g>
    </g>
    <g id="text_7">
     <!-- Uses share among non-background edges -->
     <g transform="translate(220.538188 489.618906) scale(0.1 -0.1)">
      <defs>
       <path id="DejaVuSans-55" d="M 556 4666
L 1191 4666
L 1191 1831
Q 1191 1081 1462 751
Q 1734 422 2344 422
Q 2950 422 3222 751
Q 3494 1081 3494 1831
L 3494 4666
L 4128 4666
L 4128 1753
Q 4128 841 3676 375
Q 3225 -91 2344 -91
Q 1459 -91 1007 375
Q 556 841 556 1753
L 556 4666
z
" transform="scale(0.015625)"/>
       <path id="DejaVuSans-73" d="M 2834 3397
L 2834 2853
Q 2591 2978 2328 3040
Q 2066 3103 1784 3103
Q 1356 3103 1142 2972
Q 928 2841 928 2578
Q 928 2378 1081 2264
Q 1234 2150 1697 2047
L 1894 2003
Q 2506 1872 2764 1633
Q 3022 1394 3022 966
Q 3022 478 2636 193
Q 2250 -91 1575 -91
Q 1294 -91 989 -36
Q 684 19 347 128
L 347 722
Q 666 556 975 473
Q 1284 391 1588 391
Q 1994 391 2212 530
Q 2431 669 2431 922
Q 2431 1156 2273 1281
Q 2116 1406 1581 1522
L 1381 1569
Q 847 1681 609 1914
Q 372 2147 372 2553
Q 372 3047 722 3315
Q 1072 3584 1716 3584
Q 2034 3584 2315 3537
Q 2597 3491 2834 3397
z
" transform="scale(0.015625)"/>
       <path id="DejaVuSans-65" d="M 3597 1894
L 3597 1613
L 953 1613
Q 991 1019 1311 708
Q 1631 397 2203 397
Q 2534 397 2845 478
Q 3156 559 3463 722
L 3463 178
Q 3153 47 2828 -22
Q 2503 -91 2169 -91
Q 1331 -91 842 396
Q 353 884 353 1716
Q 353 2575 817 3079
Q 1281 3584 2069 3584
Q 2775 3584 3186 3129
Q 3597 2675 3597 1894
z
M 3022 2063
Q 3016 2534 2758 2815
Q 2500 3097 2075 3097
Q 1594 3097 1305 2825
Q 1016 2553 972 2059
L 3022 2063
z
" transform="scale(0.015625)"/>
       <path id="DejaVuSans-20" transform="scale(0.015625)"/>
       <path id="DejaVuSans-68" d="M 3513 2113
L 3513 0
L 2938 0
L 2938 2094
Q 2938 2591 2744 2837
Q 2550 3084 2163 3084
Q 1697 3084 1428 2787
Q 1159 2491 1159 1978
L 1159 0
L 581 0
L 581 4863
L 1159 4863
L 1159 2956
Q 1366 3272 1645 3428
Q 1925 3584 2291 3584
Q 2894 3584 3203 3211
Q 3513 2838 3513 2113
z
" transform="scale(0.015625)"/>
       <path id="DejaVuSans-61" d="M 2194 1759
Q 1497 1759 1228 1600
Q 959 1441 959 1056
Q 959 750 1161 570
Q 1363 391 1709 391
Q 2188 391 2477 730
Q 2766 1069 2766 1631
L 2766 1759
L 2194 1759
z
M 3341 1997
L 3341 0
L 2766 0
L 2766 531
Q 2569 213 2275 61
Q 1981 -91 1556 -91
Q 1019 -91 701 211
Q 384 513 384 1019
Q 384 1609 779 1909
Q 1175 2209 1959 2209
L 2766 2209
L 2766 2266
Q 2766 2663 2505 2880
Q 2244 3097 1772 3097
Q 1472 3097 1187 3025
Q 903 2953 641 2809
L 641 3341
Q 956 3463 1253 3523
Q 1550 3584 1831 3584
Q 2591 3584 2966 3190
Q 3341 2797 3341 1997
z
" transform="scale(0.015625)"/>
       <path id="DejaVuSans-72" d="M 2631 2963
Q 2534 3019 2420 3045
Q 2306 3072 2169 3072
Q 1681 3072 1420 2755
Q 1159 2438 1159 1844
L 1159 0
L 581 0
L 581 3500
L 1159 3500
L 1159 2956
Q 1341 3275 1631 3429
Q 1922 3584 2338 3584
Q 2397 3584 2469 3576
Q 2541 3569 2628 3553
L 2631 2963
z
" transform="scale(0.015625)"/>
       <path id="DejaVuSans-6d" d="M 3328 2828
Q 3544 3216 3844 3400
Q 4144 3584 4550 3584
Q 5097 3584 5394 3201
Q 5691 2819 5691 2113
L 5691 0
L 5113 0
L 5113 2094
Q 5113 2597 4934 2840
Q 4756 3084 4391 3084
Q 3944 3084 3684 2787
Q 3425 2491 3425 1978
L 3425 0
L 2847 0
L 2847 2094
Q 2847 2600 2669 2842
Q 2491 3084 2119 3084
Q 1678 3084 1418 2786
Q 1159 2488 1159 1978
L 1159 0
L 581 0
L 581 3500
L 1159 3500
L 1159 2956
Q 1356 3278 1631 3431
Q 1906 3584 2284 3584
Q 2666 3584 2933 3390
Q 3200 3197 3328 2828
z
" transform="scale(0.015625)"/>
       <path id="DejaVuSans-6f" d="M 1959 3097
Q 1497 3097 1228 2736
Q 959 2375 959 1747
Q 959 1119 1226 758
Q 1494 397 1959 397
Q 2419 397 2687 759
Q 2956 1122 2956 1747
Q 2956 2369 2687 2733
Q 2419 3097 1959 3097
z
M 1959 3584
Q 2709 3584 3137 3096
Q 3566 2609 3566 1747
Q 3566 888 3137 398
Q 2709 -91 1959 -91
Q 1206 -91 779 398
Q 353 888 353 1747
Q 353 2609 779 3096
Q 1206 3584 1959 3584
z
" transform="scale(0.015625)"/>
       <path id="DejaVuSans-6e" d="M 3513 2113
L 3513 0
L 2938 0
L 2938 2094
Q 2938 2591 2744 2837
Q 2550 3084 2163 3084
Q 1697 3084 1428 2787
Q 1159 2491 1159 1978
L 1159 0
L 581 0
L 581 3500
L 1159 3500
L 1159 2956
Q 1366 3272 1645 3428
Q 1925 3584 2291 3584
Q 2894 3584 3203 3211
Q 3513 2838 3513 2113
z
" transform="scale(0.015625)"/>
       <path id="DejaVuSans-67" d="M 2906 1791
Q 2906 2416 2648 2759
Q 2391 3103 1925 3103
Q 1463 3103 1205 2759
Q 947 2416 947 1791
Q 947 1169 1205 825
Q 1463 481 1925 481
Q 2391 481 2648 825
Q 2906 1169 2906 1791
z
M 3481 434
Q 3481 -459 3084 -895
Q 2688 -1331 1869 -1331
Q 1566 -1331 1297 -1286
Q 1028 -1241 775 -1147
L 775 -588
Q 1028 -725 1275 -790
Q 1522 -856 1778 -856
Q 2344 -856 2625 -561
Q 2906 -266 2906 331
L 2906 616
Q 2728 306 2450 153
Q 2172 0 1784 0
Q 1141 0 747 490
Q 353 981 353 1791
Q 353 2603 747 3093
Q 1141 3584 1784 3584
Q 2172 3584 2450 3431
Q 2728 3278 2906 2969
L 2906 3500
L 3481 3500
L 3481 434
z
" transform="scale(0.015625)"/>
       <path id="DejaVuSans-2d" d="M 313 2009
L 1997 2009
L 1997 1497
L 313 1497
L 313 2009
z
" transform="scale(0.015625)"/>
       <path id="DejaVuSans-62" d="M 3116 1747
Q 3116 2381 2855 2742
Q 2594 3103 2138 3103
Q 1681 3103 1420 2742
Q 1159 2381 1159 1747
Q 1159 1113 1420 752
Q 1681 391 2138 391
Q 2594 391 2855 752
Q 3116 1113 3116 1747
z
M 1159 2969
Q 1341 3281 1617 3432
Q 1894 3584 2278 3584
Q 2916 3584 3314 3078
Q 3713 2572 3713 1747
Q 3713 922 3314 415
Q 2916 -91 2278 -91
Q 1894 -91 1617 61
Q 1341 213 1159 525
L 1159 0
L 581 0
L 581 4863
L 1159 4863
L 1159 2969
z
" transform="scale(0.015625)"/>
       <path id="DejaVuSans-63" d="M 3122 3366
L 3122 2828
Q 2878 2963 2633 3030
Q 2388 3097 2138 3097
Q 1578 3097 1268 2742
Q 959 2388 959 1747
Q 959 1106 1268 751
Q 1578 397 2138 397
Q 2388 397 2633 464
Q 2878 531 3122 666
L 3122 134
Q 2881 22 2623 -34
Q 2366 -91 2075 -91
Q 1284 -91 818 406
Q 353 903 353 1747
Q 353 2603 823 3093
Q 1294 3584 2113 3584
Q 2378 3584 2631 3529
Q 2884 3475 3122 3366
z
" transform="scale(0.015625)"/>
       <path id="DejaVuSans-6b" d="M 581 4863
L 1159 4863
L 1159 1991
L 2875 3500
L 3609 3500
L 1753 1863
L 3688 0
L 2938 0
L 1159 1709
L 1159 0
L 581 0
L 581 4863
z
" transform="scale(0.015625)"/>
       <path id="DejaVuSans-75" d="M 544 1381
L 544 3500
L 1119 3500
L 1119 1403
Q 1119 906 1312 657
Q 1506 409 1894 409
Q 2359 409 2629 706
Q 2900 1003 2900 1516
L 2900 3500
L 3475 3500
L 3475 0
L 2900 0
L 2900 538
Q 2691 219 2414 64
Q 2138 -91 1772 -91
Q 1169 -91 856 284
Q 544 659 544 1381
z
M 1991 3584
L 1991 3584
z
" transform="scale(0.015625)"/>
       <path id="DejaVuSans-64" d="M 2906 2969
L 2906 4863
L 3481 4863
L 3481 0
L 2906 0
L 2906 525
Q 2725 213 2448 61
Q 2172 -91 1784 -91
Q 1150 -91 751 415
Q 353 922 353 1747
Q 353 2572 751 3078
Q 1150 3584 1784 3584
Q 2172 3584 2448 3432
Q 2725 3281 2906 2969
z
M 947 1747
Q 947 1113 1208 752
Q 1469 391 1925 391
Q 2381 391 2643 752
Q 2906 1113 2906 1747
Q 2906 2381 2643 2742
Q 2381 3103 1925 3103
Q 1469 3103 1208 2742
Q 947 2381 947 1747
z
" transform="scale(0.015625)"/>
      </defs>
      <use xlink:href="#DejaVuSans-55"/>
      <use xlink:href="#DejaVuSans-73" x="73.193359"/>
      <use xlink:href="#DejaVuSans-65" x="125.292969"/>
      <use xlink:href="#DejaVuSans-73" x="186.816406"/>
      <use xlink:href="#DejaVuSans-20" x="238.916016"/>
      <use xlink:href="#DejaVuSans-73" x="270.703125"/>
      <use xlink:href="#DejaVuSans-68" x="322.802734"/>
      <use xlink:href="#DejaVuSans-61" x="386.181641"/>
      <use xlink:href="#DejaVuSans-72" x="447.460938"/>
      <use xlink:href="#DejaVuSans-65" x="486.324219"/>
      <use xlink:href="#DejaVuSans-20" x="547.847656"/>
      <use xlink:href="#DejaVuSans-61" x="579.634766"/>
      <use xlink:href="#DejaVuSans-6d" x="640.914062"/>
      <use xlink:href="#DejaVuSans-6f" x="738.326172"/>
      <use xlink:href="#DejaVuSans-6e" x="799.507812"/>
      <use xlink:href="#DejaVuSans-67" x="862.886719"/>
      <use xlink:href="#DejaVuSans-20" x="926.363281"/>
      <use xlink:href="#DejaVuSans-6e" x="958.150391"/>
      <use xlink:href="#DejaVuSans-6f" x="1021.529297"/>
      <use xlink:href="#DejaVuSans-6e" x="1082.710938"/>
      <use xlink:href="#DejaVuSans-2d" x="1146.089844"/>
      <use xlink:href="#DejaVuSans-62" x="1182.173828"/>
      <use xlink:href="#DejaVuSans-61" x="1245.650391"/>
      <use xlink:href="#DejaVuSans-63" x="1306.929688"/>
      <use xlink:href="#DejaVuSans-6b" x="1361.910156"/>
      <use xlink:href="#DejaVuSans-67" x="1419.820312"/>
      <use xlink:href="#DejaVuSans-72" x="1483.296875"/>
      <use xlink:href="#DejaVuSans-6f" x="1522.160156"/>
      <use xlink:href="#DejaVuSans-75" x="1583.341797"/>
      <use xlink:href="#DejaVuSans-6e" x="1646.720703"/>
      <use xlink:href="#DejaVuSans-64" x="1710.099609"/>
      <use xlink:href="#DejaVuSans-20" x="1773.576172"/>
      <use xlink:href="#DejaVuSans-65" x="1805.363281"/>
      <use xlink:href="#DejaVuSans-64" x="1866.886719"/>
      <use xlink:href="#DejaVuSans-67" x="1930.363281"/>
      <use xlink:href="#DejaVuSans-65" x="1993.839844"/>
      <use xlink:href="#DejaVuSans-73" x="2055.363281"/>
     </g>
    </g>
   </g>
   <g id="matplotlib.axis_2">
    <g id="ytick_1">
     <g id="line2d_13">
      <path d="M 45.690625 437.148251
L 606.132625 437.148251
" clip-path="url(#p9236401677)" style="fill: none; stroke: #b0b0b0; stroke-opacity: 0.25; stroke-width: 0.8; stroke-linecap: square"/>
     </g>
     <g id="line2d_14">
      <defs>
       <path id="m462be8a48a" d="M 0 0
L -3.5 0
" style="stroke: #000000; stroke-width: 0.8"/>
      </defs>
      <g>
       <use xlink:href="#m462be8a48a" x="45.690625" y="437.148251" style="stroke: #000000; stroke-width: 0.8"/>
      </g>
     </g>
     <g id="text_8">
      <!-- 0.05 -->
      <g transform="translate(20.878125 440.187626) scale(0.08 -0.08)">
       <use xlink:href="#DejaVuSans-30"/>
       <use xlink:href="#DejaVuSans-2e" x="63.623047"/>
       <use xlink:href="#DejaVuSans-30" x="95.410156"/>
       <use xlink:href="#DejaVuSans-35" x="159.033203"/>
      </g>
     </g>
    </g>
    <g id="ytick_2">
     <g id="line2d_15">
      <path d="M 45.690625 383.334427
L 606.132625 383.334427
" clip-path="url(#p9236401677)" style="fill: none; stroke: #b0b0b0; stroke-opacity: 0.25; stroke-width: 0.8; stroke-linecap: square"/>
     </g>
     <g id="line2d_16">
      <g>
       <use xlink:href="#m462be8a48a" x="45.690625" y="383.334427" style="stroke: #000000; stroke-width: 0.8"/>
      </g>
     </g>
     <g id="text_9">
      <!-- 0.10 -->
      <g transform="translate(20.878125 386.373802) scale(0.08 -0.08)">
       <defs>
        <path id="DejaVuSans-31" d="M 794 531
L 1825 531
L 1825 4091
L 703 3866
L 703 4441
L 1819 4666
L 2450 4666
L 2450 531
L 3481 531
L 3481 0
L 794 0
L 794 531
z
" transform="scale(0.015625)"/>
       </defs>
       <use xlink:href="#DejaVuSans-30"/>
       <use xlink:href="#DejaVuSans-2e" x="63.623047"/>
       <use xlink:href="#DejaVuSans-31" x="95.410156"/>
       <use xlink:href="#DejaVuSans-30" x="159.033203"/>
      </g>
     </g>
    </g>
    <g id="ytick_3">
     <g id="line2d_17">
      <path d="M 45.690625 329.520602
L 606.132625 329.520602
" clip-path="url(#p9236401677)" style="fill: none; stroke: #b0b0b0; stroke-opacity: 0.25; stroke-width: 0.8; stroke-linecap: square"/>
     </g>
     <g id="line2d_18">
      <g>
       <use xlink:href="#m462be8a48a" x="45.690625" y="329.520602" style="stroke: #000000; stroke-width: 0.8"/>
      </g>
     </g>
     <g id="text_10">
      <!-- 0.15 -->
      <g transform="translate(20.878125 332.559977) scale(0.08 -0.08)">
       <use xlink:href="#DejaVuSans-30"/>
       <use xlink:href="#DejaVuSans-2e" x="63.623047"/>
       <use xlink:href="#DejaVuSans-31" x="95.410156"/>
       <use xlink:href="#DejaVuSans-35" x="159.033203"/>
      </g>
     </g>
    </g>
    <g id="ytick_4">
     <g id="line2d_19">
      <path d="M 45.690625 275.706778
L 606.132625 275.706778
" clip-path="url(#p9236401677)" style="fill: none; stroke: #b0b0b0; stroke-opacity: 0.25; stroke-width: 0.8; stroke-linecap: square"/>
     </g>
     <g id="line2d_20">
      <g>
       <use xlink:href="#m462be8a48a" x="45.690625" y="275.706778" style="stroke: #000000; stroke-width: 0.8"/>
      </g>
     </g>
     <g id="text_11">
      <!-- 0.20 -->
      <g transform="translate(20.878125 278.746153) scale(0.08 -0.08)">
       <defs>
        <path id="DejaVuSans-32" d="M 1228 531
L 3431 531
L 3431 0
L 469 0
L 469 531
Q 828 903 1448 1529
Q 2069 2156 2228 2338
Q 2531 2678 2651 2914
Q 2772 3150 2772 3378
Q 2772 3750 2511 3984
Q 2250 4219 1831 4219
Q 1534 4219 1204 4116
Q 875 4013 500 3803
L 500 4441
Q 881 4594 1212 4672
Q 1544 4750 1819 4750
Q 2544 4750 2975 4387
Q 3406 4025 3406 3419
Q 3406 3131 3298 2873
Q 3191 2616 2906 2266
Q 2828 2175 2409 1742
Q 1991 1309 1228 531
z
" transform="scale(0.015625)"/>
       </defs>
       <use xlink:href="#DejaVuSans-30"/>
       <use xlink:href="#DejaVuSans-2e" x="63.623047"/>
       <use xlink:href="#DejaVuSans-32" x="95.410156"/>
       <use xlink:href="#DejaVuSans-30" x="159.033203"/>
      </g>
     </g>
    </g>
    <g id="ytick_5">
     <g id="line2d_21">
      <path d="M 45.690625 221.892954
L 606.132625 221.892954
" clip-path="url(#p9236401677)" style="fill: none; stroke: #b0b0b0; stroke-opacity: 0.25; stroke-width: 0.8; stroke-linecap: square"/>
     </g>
     <g id="line2d_22">
      <g>
       <use xlink:href="#m462be8a48a" x="45.690625" y="221.892954" style="stroke: #000000; stroke-width: 0.8"/>
      </g>
     </g>
     <g id="text_12">
      <!-- 0.25 -->
      <g transform="translate(20.878125 224.932329) scale(0.08 -0.08)">
       <use xlink:href="#DejaVuSans-30"/>
       <use xlink:href="#DejaVuSans-2e" x="63.623047"/>
       <use xlink:href="#DejaVuSans-32" x="95.410156"/>
       <use xlink:href="#DejaVuSans-35" x="159.033203"/>
      </g>
     </g>
    </g>
    <g id="ytick_6">
     <g id="line2d_23">
      <path d="M 45.690625 168.07913
L 606.132625 168.07913
" clip-path="url(#p9236401677)" style="fill: none; stroke: #b0b0b0; stroke-opacity: 0.25; stroke-width: 0.8; stroke-linecap: square"/>
     </g>
     <g id="line2d_24">
      <g>
       <use xlink:href="#m462be8a48a" x="45.690625" y="168.07913" style="stroke: #000000; stroke-width: 0.8"/>
      </g>
     </g>
     <g id="text_13">
      <!-- 0.30 -->
      <g transform="translate(20.878125 171.118505) scale(0.08 -0.08)">
       <defs>
        <path id="DejaVuSans-33" d="M 2597 2516
Q 3050 2419 3304 2112
Q 3559 1806 3559 1356
Q 3559 666 3084 287
Q 2609 -91 1734 -91
Q 1441 -91 1130 -33
Q 819 25 488 141
L 488 750
Q 750 597 1062 519
Q 1375 441 1716 441
Q 2309 441 2620 675
Q 2931 909 2931 1356
Q 2931 1769 2642 2001
Q 2353 2234 1838 2234
L 1294 2234
L 1294 2753
L 1863 2753
Q 2328 2753 2575 2939
Q 2822 3125 2822 3475
Q 2822 3834 2567 4026
Q 2313 4219 1838 4219
Q 1578 4219 1281 4162
Q 984 4106 628 3988
L 628 4550
Q 988 4650 1302 4700
Q 1616 4750 1894 4750
Q 2613 4750 3031 4423
Q 3450 4097 3450 3541
Q 3450 3153 3228 2886
Q 3006 2619 2597 2516
z
" transform="scale(0.015625)"/>
       </defs>
       <use xlink:href="#DejaVuSans-30"/>
       <use xlink:href="#DejaVuSans-2e" x="63.623047"/>
       <use xlink:href="#DejaVuSans-33" x="95.410156"/>
       <use xlink:href="#DejaVuSans-30" x="159.033203"/>
      </g>
     </g>
    </g>
    <g id="ytick_7">
     <g id="line2d_25">
      <path d="M 45.690625 114.265305
L 606.132625 114.265305
" clip-path="url(#p9236401677)" style="fill: none; stroke: #b0b0b0; stroke-opacity: 0.25; stroke-width: 0.8; stroke-linecap: square"/>
     </g>
     <g id="line2d_26">
      <g>
       <use xlink:href="#m462be8a48a" x="45.690625" y="114.265305" style="stroke: #000000; stroke-width: 0.8"/>
      </g>
     </g>
     <g id="text_14">
      <!-- 0.35 -->
      <g transform="translate(20.878125 117.30468) scale(0.08 -0.08)">
       <use xlink:href="#DejaVuSans-30"/>
       <use xlink:href="#DejaVuSans-2e" x="63.623047"/>
       <use xlink:href="#DejaVuSans-33" x="95.410156"/>
       <use xlink:href="#DejaVuSans-35" x="159.033203"/>
      </g>
     </g>
    </g>
    <g id="ytick_8">
     <g id="line2d_27">
      <path d="M 45.690625 60.451481
L 606.132625 60.451481
" clip-path="url(#p9236401677)" style="fill: none; stroke: #b0b0b0; stroke-opacity: 0.25; stroke-width: 0.8; stroke-linecap: square"/>
     </g>
     <g id="line2d_28">
      <g>
       <use xlink:href="#m462be8a48a" x="45.690625" y="60.451481" style="stroke: #000000; stroke-width: 0.8"/>
      </g>
     </g>
     <g id="text_15">
      <!-- 0.40 -->
      <g transform="translate(20.878125 63.490856) scale(0.08 -0.08)">
       <use xlink:href="#DejaVuSans-30"/>
       <use xlink:href="#DejaVuSans-2e" x="63.623047"/>
       <use xlink:href="#DejaVuSans-34" x="95.410156"/>
       <use xlink:href="#DejaVuSans-30" x="159.033203"/>
      </g>
     </g>
    </g>
    <g id="text_16">
     <!-- Compares-against share among non-background edges -->
     <g transform="translate(14.798438 382.118594) rotate(-90) scale(0.1 -0.1)">
      <defs>
       <path id="DejaVuSans-43" d="M 4122 4306
L 4122 3641
Q 3803 3938 3442 4084
Q 3081 4231 2675 4231
Q 1875 4231 1450 3742
Q 1025 3253 1025 2328
Q 1025 1406 1450 917
Q 1875 428 2675 428
Q 3081 428 3442 575
Q 3803 722 4122 1019
L 4122 359
Q 3791 134 3420 21
Q 3050 -91 2638 -91
Q 1578 -91 968 557
Q 359 1206 359 2328
Q 359 3453 968 4101
Q 1578 4750 2638 4750
Q 3056 4750 3426 4639
Q 3797 4528 4122 4306
z
" transform="scale(0.015625)"/>
       <path id="DejaVuSans-70" d="M 1159 525
L 1159 -1331
L 581 -1331
L 581 3500
L 1159 3500
L 1159 2969
Q 1341 3281 1617 3432
Q 1894 3584 2278 3584
Q 2916 3584 3314 3078
Q 3713 2572 3713 1747
Q 3713 922 3314 415
Q 2916 -91 2278 -91
Q 1894 -91 1617 61
Q 1341 213 1159 525
z
M 3116 1747
Q 3116 2381 2855 2742
Q 2594 3103 2138 3103
Q 1681 3103 1420 2742
Q 1159 2381 1159 1747
Q 1159 1113 1420 752
Q 1681 391 2138 391
Q 2594 391 2855 752
Q 3116 1113 3116 1747
z
" transform="scale(0.015625)"/>
       <path id="DejaVuSans-69" d="M 603 3500
L 1178 3500
L 1178 0
L 603 0
L 603 3500
z
M 603 4863
L 1178 4863
L 1178 4134
L 603 4134
L 603 4863
z
" transform="scale(0.015625)"/>
       <path id="DejaVuSans-74" d="M 1172 4494
L 1172 3500
L 2356 3500
L 2356 3053
L 1172 3053
L 1172 1153
Q 1172 725 1289 603
Q 1406 481 1766 481
L 2356 481
L 2356 0
L 1766 0
Q 1100 0 847 248
Q 594 497 594 1153
L 594 3053
L 172 3053
L 172 3500
L 594 3500
L 594 4494
L 1172 4494
z
" transform="scale(0.015625)"/>
      </defs>
      <use xlink:href="#DejaVuSans-43"/>
      <use xlink:href="#DejaVuSans-6f" x="69.824219"/>
      <use xlink:href="#DejaVuSans-6d" x="131.005859"/>
      <use xlink:href="#DejaVuSans-70" x="228.417969"/>
      <use xlink:href="#DejaVuSans-61" x="291.894531"/>
      <use xlink:href="#DejaVuSans-72" x="353.173828"/>
      <use xlink:href="#DejaVuSans-65" x="392.037109"/>
      <use xlink:href="#DejaVuSans-73" x="453.560547"/>
      <use xlink:href="#DejaVuSans-2d" x="505.660156"/>
      <use xlink:href="#DejaVuSans-61" x="541.744141"/>
      <use xlink:href="#DejaVuSans-67" x="603.023438"/>
      <use xlink:href="#DejaVuSans-61" x="666.5"/>
      <use xlink:href="#DejaVuSans-69" x="727.779297"/>
      <use xlink:href="#DejaVuSans-6e" x="755.5625"/>
      <use xlink:href="#DejaVuSans-73" x="818.941406"/>
      <use xlink:href="#DejaVuSans-74" x="871.041016"/>
      <use xlink:href="#DejaVuSans-20" x="910.25"/>
      <use xlink:href="#DejaVuSans-73" x="942.037109"/>
      <use xlink:href="#DejaVuSans-68" x="994.136719"/>
      <use xlink:href="#DejaVuSans-61" x="1057.515625"/>
      <use xlink:href="#DejaVuSans-72" x="1118.794922"/>
      <use xlink:href="#DejaVuSans-65" x="1157.658203"/>
      <use xlink:href="#DejaVuSans-20" x="1219.181641"/>
      <use xlink:href="#DejaVuSans-61" x="1250.96875"/>
      <use xlink:href="#DejaVuSans-6d" x="1312.248047"/>
      <use xlink:href="#DejaVuSans-6f" x="1409.660156"/>
      <use xlink:href="#DejaVuSans-6e" x="1470.841797"/>
      <use xlink:href="#DejaVuSans-67" x="1534.220703"/>
      <use xlink:href="#DejaVuSans-20" x="1597.697266"/>
      <use xlink:href="#DejaVuSans-6e" x="1629.484375"/>
      <use xlink:href="#DejaVuSans-6f" x="1692.863281"/>
      <use xlink:href="#DejaVuSans-6e" x="1754.044922"/>
      <use xlink:href="#DejaVuSans-2d" x="1817.423828"/>
      <use xlink:href="#DejaVuSans-62" x="1853.507812"/>
      <use xlink:href="#DejaVuSans-61" x="1916.984375"/>
      <use xlink:href="#DejaVuSans-63" x="1978.263672"/>
      <use xlink:href="#DejaVuSans-6b" x="2033.244141"/>
      <use xlink:href="#DejaVuSans-67" x="2091.154297"/>
      <use xlink:href="#DejaVuSans-72" x="2154.630859"/>
      <use xlink:href="#DejaVuSans-6f" x="2193.494141"/>
      <use xlink:href="#DejaVuSans-75" x="2254.675781"/>
      <use xlink:href="#DejaVuSans-6e" x="2318.054688"/>
      <use xlink:href="#DejaVuSans-64" x="2381.433594"/>
      <use xlink:href="#DejaVuSans-20" x="2444.910156"/>
      <use xlink:href="#DejaVuSans-65" x="2476.697266"/>
      <use xlink:href="#DejaVuSans-64" x="2538.220703"/>
      <use xlink:href="#DejaVuSans-67" x="2601.697266"/>
      <use xlink:href="#DejaVuSans-65" x="2665.173828"/>
      <use xlink:href="#DejaVuSans-73" x="2726.697266"/>
     </g>
    </g>
   </g>
   <g id="line2d_29">
    <path d="M 291.865502 463.277969
L 291.865502 23.077969
" clip-path="url(#p9236401677)" style="fill: none; stroke-dasharray: 3.7,1.6; stroke-dashoffset: 0; stroke: #666666; stroke-opacity: 0.65"/>
   </g>
   <g id="line2d_30">
    <path d="M 45.690625 189.386126
L 606.132625 189.386126
" clip-path="url(#p9236401677)" style="fill: none; stroke-dasharray: 3.7,1.6; stroke-dashoffset: 0; stroke: #666666; stroke-opacity: 0.65"/>
   </g>
   <g id="patch_3">
    <path d="M 45.690625 463.277969
L 45.690625 23.077969
" style="fill: none; stroke: #000000; stroke-width: 0.8; stroke-linejoin: miter; stroke-linecap: square"/>
   </g>
   <g id="patch_4">
    <path d="M 606.132625 463.277969
L 606.132625 23.077969
" style="fill: none; stroke: #000000; stroke-width: 0.8; stroke-linejoin: miter; stroke-linecap: square"/>
   </g>
   <g id="patch_5">
    <path d="M 45.690625 463.277969
L 606.132625 463.277969
" style="fill: none; stroke: #000000; stroke-width: 0.8; stroke-linejoin: miter; stroke-linecap: square"/>
   </g>
   <g id="patch_6">
    <path d="M 45.690625 23.077969
L 606.132625 23.077969
" style="fill: none; stroke: #000000; stroke-width: 0.8; stroke-linejoin: miter; stroke-linecap: square"/>
   </g>
   <g id="text_17">
    <g id="patch_7">
     <path d="M 188.060558 90.801391
L 208.469308 90.801391
Q 209.269308 90.801391 209.269308 90.001391
L 209.269308 82.258891
Q 209.269308 81.458891 208.469308 81.458891
L 188.060558 81.458891
Q 187.260558 81.458891 187.260558 82.258891
L 187.260558 90.001391
Q 187.260558 90.801391 188.060558 90.801391
z
" style="fill: #ffffff; opacity: 0.7"/>
    </g>
    <!-- BERT -->
    <g transform="translate(188.060558 88.337641) scale(0.08 -0.08)">
     <defs>
      <path id="DejaVuSans-42" d="M 1259 2228
L 1259 519
L 2272 519
Q 2781 519 3026 730
Q 3272 941 3272 1375
Q 3272 1813 3026 2020
Q 2781 2228 2272 2228
L 1259 2228
z
M 1259 4147
L 1259 2741
L 2194 2741
Q 2656 2741 2882 2914
Q 3109 3088 3109 3444
Q 3109 3797 2882 3972
Q 2656 4147 2194 4147
L 1259 4147
z
M 628 4666
L 2241 4666
Q 2963 4666 3353 4366
Q 3744 4066 3744 3513
Q 3744 3084 3544 2831
Q 3344 2578 2956 2516
Q 3422 2416 3680 2098
Q 3938 1781 3938 1306
Q 3938 681 3513 340
Q 3088 0 2303 0
L 628 0
L 628 4666
z
" transform="scale(0.015625)"/>
      <path id="DejaVuSans-45" d="M 628 4666
L 3578 4666
L 3578 4134
L 1259 4134
L 1259 2753
L 3481 2753
L 3481 2222
L 1259 2222
L 1259 531
L 3634 531
L 3634 0
L 628 0
L 628 4666
z
" transform="scale(0.015625)"/>
      <path id="DejaVuSans-52" d="M 2841 2188
Q 3044 2119 3236 1894
Q 3428 1669 3622 1275
L 4263 0
L 3584 0
L 2988 1197
Q 2756 1666 2539 1819
Q 2322 1972 1947 1972
L 1259 1972
L 1259 0
L 628 0
L 628 4666
L 2053 4666
Q 2853 4666 3247 4331
Q 3641 3997 3641 3322
Q 3641 2881 3436 2590
Q 3231 2300 2841 2188
z
M 1259 4147
L 1259 2491
L 2053 2491
Q 2509 2491 2742 2702
Q 2975 2913 2975 3322
Q 2975 3731 2742 3939
Q 2509 4147 2053 4147
L 1259 4147
z
" transform="scale(0.015625)"/>
      <path id="DejaVuSans-54" d="M -19 4666
L 3928 4666
L 3928 4134
L 2272 4134
L 2272 0
L 1638 0
L 1638 4134
L -19 4134
L -19 4666
z
" transform="scale(0.015625)"/>
     </defs>
     <use xlink:href="#DejaVuSans-42"/>
     <use xlink:href="#DejaVuSans-45" x="68.603516"/>
     <use xlink:href="#DejaVuSans-52" x="131.787109"/>
     <use xlink:href="#DejaVuSans-54" x="194.019531"/>
    </g>
   </g>
   <g id="text_18">
    <g id="patch_8">
     <path d="M 123.878086 55.55081
L 145.203086 55.55081
Q 146.003086 55.55081 146.003086 54.75081
L 146.003086 47.00831
Q 146.003086 46.20831 145.203086 46.20831
L 123.878086 46.20831
Q 123.078086 46.20831 123.078086 47.00831
L 123.078086 54.75081
Q 123.078086 55.55081 123.878086 55.55081
z
" style="fill: #ffffff; opacity: 0.7"/>
    </g>
    <!-- LSTM -->
    <g transform="translate(123.878086 53.08706) scale(0.08 -0.08)">
     <defs>
      <path id="DejaVuSans-4c" d="M 628 4666
L 1259 4666
L 1259 531
L 3531 531
L 3531 0
L 628 0
L 628 4666
z
" transform="scale(0.015625)"/>
      <path id="DejaVuSans-53" d="M 3425 4513
L 3425 3897
Q 3066 4069 2747 4153
Q 2428 4238 2131 4238
Q 1616 4238 1336 4038
Q 1056 3838 1056 3469
Q 1056 3159 1242 3001
Q 1428 2844 1947 2747
L 2328 2669
Q 3034 2534 3370 2195
Q 3706 1856 3706 1288
Q 3706 609 3251 259
Q 2797 -91 1919 -91
Q 1588 -91 1214 -16
Q 841 59 441 206
L 441 856
Q 825 641 1194 531
Q 1563 422 1919 422
Q 2459 422 2753 634
Q 3047 847 3047 1241
Q 3047 1584 2836 1778
Q 2625 1972 2144 2069
L 1759 2144
Q 1053 2284 737 2584
Q 422 2884 422 3419
Q 422 4038 858 4394
Q 1294 4750 2059 4750
Q 2388 4750 2728 4690
Q 3069 4631 3425 4513
z
" transform="scale(0.015625)"/>
      <path id="DejaVuSans-4d" d="M 628 4666
L 1569 4666
L 2759 1491
L 3956 4666
L 4897 4666
L 4897 0
L 4281 0
L 4281 4097
L 3078 897
L 2444 897
L 1241 4097
L 1241 0
L 628 0
L 628 4666
z
" transform="scale(0.015625)"/>
     </defs>
     <use xlink:href="#DejaVuSans-4c"/>
     <use xlink:href="#DejaVuSans-53" x="55.712891"/>
     <use xlink:href="#DejaVuSans-54" x="119.189453"/>
     <use xlink:href="#DejaVuSans-4d" x="180.273438"/>
    </g>
   </g>
   <g id="text_19">
    <g id="patch_9">
     <path d="M 230.672467 160.846881
L 251.528717 160.846881
Q 252.328717 160.846881 252.328717 160.046881
L 252.328717 152.304381
Q 252.328717 151.504381 251.528717 151.504381
L 230.672467 151.504381
Q 229.872467 151.504381 229.872467 152.304381
L 229.872467 160.046881
Q 229.872467 160.846881 230.672467 160.846881
z
" style="fill: #ffffff; opacity: 0.7"/>
    </g>
    <!-- BLEU -->
    <g transform="translate(230.672467 158.383131) scale(0.08 -0.08)">
     <use xlink:href="#DejaVuSans-42"/>
     <use xlink:href="#DejaVuSans-4c" x="68.603516"/>
     <use xlink:href="#DejaVuSans-45" x="124.316406"/>
     <use xlink:href="#DejaVuSans-55" x="187.5"/>
    </g>
   </g>
   <g id="text_20">
    <g id="patch_10">
     <path d="M 240.445091 180.604359
L 288.443841 180.604359
Q 289.243841 180.604359 289.243841 179.804359
L 289.243841 172.061859
Q 289.243841 171.261859 288.443841 171.261859
L 240.445091 171.261859
Q 239.645091 171.261859 239.645091 172.061859
L 239.645091 179.804359
Q 239.645091 180.604359 240.445091 180.604359
z
" style="fill: #ffffff; opacity: 0.7"/>
    </g>
    <!-- Transformer -->
    <g transform="translate(240.445091 178.140609) scale(0.08 -0.08)">
     <defs>
      <path id="DejaVuSans-66" d="M 2375 4863
L 2375 4384
L 1825 4384
Q 1516 4384 1395 4259
Q 1275 4134 1275 3809
L 1275 3500
L 2222 3500
L 2222 3053
L 1275 3053
L 1275 0
L 697 0
L 697 3053
L 147 3053
L 147 3500
L 697 3500
L 697 3744
Q 697 4328 969 4595
Q 1241 4863 1831 4863
L 2375 4863
z
" transform="scale(0.015625)"/>
     </defs>
     <use xlink:href="#DejaVuSans-54"/>
     <use xlink:href="#DejaVuSans-72" x="46.333984"/>
     <use xlink:href="#DejaVuSans-61" x="87.447266"/>
     <use xlink:href="#DejaVuSans-6e" x="148.726562"/>
     <use xlink:href="#DejaVuSans-73" x="212.105469"/>
     <use xlink:href="#DejaVuSans-66" x="264.205078"/>
     <use xlink:href="#DejaVuSans-6f" x="299.410156"/>
     <use xlink:href="#DejaVuSans-72" x="360.591797"/>
     <use xlink:href="#DejaVuSans-6d" x="399.955078"/>
     <use xlink:href="#DejaVuSans-65" x="497.367188"/>
     <use xlink:href="#DejaVuSans-72" x="558.890625"/>
    </g>
   </g>
   <g id="text_21">
    <g id="patch_11">
     <path d="M 89.377675 91.014658
L 105.123925 91.014658
Q 105.923925 91.014658 105.923925 90.214658
L 105.923925 82.472158
Q 105.923925 81.672158 105.123925 81.672158
L 89.377675 81.672158
Q 88.577675 81.672158 88.577675 82.472158
L 88.577675 90.214658
Q 88.577675 91.014658 89.377675 91.014658
z
" style="fill: #ffffff; opacity: 0.7"/>
    </g>
    <!-- CRF -->
    <g transform="translate(89.377675 88.550908) scale(0.08 -0.08)">
     <defs>
      <path id="DejaVuSans-46" d="M 628 4666
L 3309 4666
L 3309 4134
L 1259 4134
L 1259 2759
L 3109 2759
L 3109 2228
L 1259 2228
L 1259 0
L 628 0
L 628 4666
z
" transform="scale(0.015625)"/>
     </defs>
     <use xlink:href="#DejaVuSans-43"/>
     <use xlink:href="#DejaVuSans-52" x="69.824219"/>
     <use xlink:href="#DejaVuSans-46" x="139.306641"/>
    </g>
   </g>
   <g id="text_22">
    <g id="patch_12">
     <path d="M 193.683178 180.479725
L 228.289428 180.479725
Q 229.089428 180.479725 229.089428 179.679725
L 229.089428 171.937225
Q 229.089428 171.137225 228.289428 171.137225
L 193.683178 171.137225
Q 192.883178 171.137225 192.883178 171.937225
L 192.883178 179.679725
Q 192.883178 180.479725 193.683178 180.479725
z
" style="fill: #ffffff; opacity: 0.7"/>
    </g>
    <!-- WordNet -->
    <g transform="translate(193.683178 178.015975) scale(0.08 -0.08)">
     <defs>
      <path id="DejaVuSans-57" d="M 213 4666
L 850 4666
L 1831 722
L 2809 4666
L 3519 4666
L 4500 722
L 5478 4666
L 6119 4666
L 4947 0
L 4153 0
L 3169 4050
L 2175 0
L 1381 0
L 213 4666
z
" transform="scale(0.015625)"/>
      <path id="DejaVuSans-4e" d="M 628 4666
L 1478 4666
L 3547 763
L 3547 4666
L 4159 4666
L 4159 0
L 3309 0
L 1241 3903
L 1241 0
L 628 0
L 628 4666
z
" transform="scale(0.015625)"/>
     </defs>
     <use xlink:href="#DejaVuSans-57"/>
     <use xlink:href="#DejaVuSans-6f" x="93.001953"/>
     <use xlink:href="#DejaVuSans-72" x="154.183594"/>
     <use xlink:href="#DejaVuSans-64" x="193.546875"/>
     <use xlink:href="#DejaVuSans-4e" x="257.023438"/>
     <use xlink:href="#DejaVuSans-65" x="331.828125"/>
     <use xlink:href="#DejaVuSans-74" x="393.351562"/>
    </g>
   </g>
   <g id="text_23">
    <g id="patch_13">
     <path d="M 77.934447 64.707806
L 111.361947 64.707806
Q 112.161947 64.707806 112.161947 63.907806
L 112.161947 56.165306
Q 112.161947 55.365306 111.361947 55.365306
L 77.934447 55.365306
Q 77.134447 55.365306 77.134447 56.165306
L 77.134447 63.907806
Q 77.134447 64.707806 77.934447 64.707806
z
" style="fill: #ffffff; opacity: 0.7"/>
    </g>
    <!-- seq2seq -->
    <g transform="translate(77.934447 62.244056) scale(0.08 -0.08)">
     <defs>
      <path id="DejaVuSans-71" d="M 947 1747
Q 947 1113 1208 752
Q 1469 391 1925 391
Q 2381 391 2643 752
Q 2906 1113 2906 1747
Q 2906 2381 2643 2742
Q 2381 3103 1925 3103
Q 1469 3103 1208 2742
Q 947 2381 947 1747
z
M 2906 525
Q 2725 213 2448 61
Q 2172 -91 1784 -91
Q 1150 -91 751 415
Q 353 922 353 1747
Q 353 2572 751 3078
Q 1150 3584 1784 3584
Q 2172 3584 2448 3432
Q 2725 3281 2906 2969
L 2906 3500
L 3481 3500
L 3481 -1331
L 2906 -1331
L 2906 525
z
" transform="scale(0.015625)"/>
     </defs>
     <use xlink:href="#DejaVuSans-73"/>
     <use xlink:href="#DejaVuSans-65" x="52.099609"/>
     <use xlink:href="#DejaVuSans-71" x="113.623047"/>
     <use xlink:href="#DejaVuSans-32" x="177.099609"/>
     <use xlink:href="#DejaVuSans-73" x="240.722656"/>
     <use xlink:href="#DejaVuSans-65" x="292.822266"/>
     <use xlink:href="#DejaVuSans-71" x="354.345703"/>
    </g>
   </g>
   <g id="text_24">
    <g id="patch_14">
     <path d="M 79.165261 158.045638
L 164.537761 158.045638
Q 165.337761 158.045638 165.337761 157.245638
L 165.337761 149.503138
Q 165.337761 148.703138 164.537761 148.703138
L 79.165261 148.703138
Q 78.365261 148.703138 78.365261 149.503138
L 78.365261 157.245638
Q 78.365261 158.045638 79.165261 158.045638
z
" style="fill: #ffffff; opacity: 0.7"/>
    </g>
    <!-- attention mechanism -->
    <g transform="translate(79.165261 155.581888) scale(0.08 -0.08)">
     <use xlink:href="#DejaVuSans-61"/>
     <use xlink:href="#DejaVuSans-74" x="61.279297"/>
     <use xlink:href="#DejaVuSans-74" x="100.488281"/>
     <use xlink:href="#DejaVuSans-65" x="139.697266"/>
     <use xlink:href="#DejaVuSans-6e" x="201.220703"/>
     <use xlink:href="#DejaVuSans-74" x="264.599609"/>
     <use xlink:href="#DejaVuSans-69" x="303.808594"/>
     <use xlink:href="#DejaVuSans-6f" x="331.591797"/>
     <use xlink:href="#DejaVuSans-6e" x="392.773438"/>
     <use xlink:href="#DejaVuSans-20" x="456.152344"/>
     <use xlink:href="#DejaVuSans-6d" x="487.939453"/>
     <use xlink:href="#DejaVuSans-65" x="585.351562"/>
     <use xlink:href="#DejaVuSans-63" x="646.875"/>
     <use xlink:href="#DejaVuSans-68" x="701.855469"/>
     <use xlink:href="#DejaVuSans-61" x="765.234375"/>
     <use xlink:href="#DejaVuSans-6e" x="826.513672"/>
     <use xlink:href="#DejaVuSans-69" x="889.892578"/>
     <use xlink:href="#DejaVuSans-73" x="917.675781"/>
     <use xlink:href="#DejaVuSans-6d" x="969.775391"/>
    </g>
   </g>
   <g id="text_25">
    <g id="patch_15">
     <path d="M 164.937812 73.908346
L 199.646562 73.908346
Q 200.446562 73.908346 200.446562 73.108346
L 200.446562 65.365846
Q 200.446562 64.565846 199.646562 64.565846
L 164.937812 64.565846
Q 164.137812 64.565846 164.137812 65.365846
L 164.137812 73.108346
Q 164.137812 73.908346 164.937812 73.908346
z
" style="fill: #ffffff; opacity: 0.7"/>
    </g>
    <!-- SemEval -->
    <g transform="translate(164.937812 71.444596) scale(0.08 -0.08)">
     <defs>
      <path id="DejaVuSans-76" d="M 191 3500
L 800 3500
L 1894 563
L 2988 3500
L 3597 3500
L 2284 0
L 1503 0
L 191 3500
z
" transform="scale(0.015625)"/>
      <path id="DejaVuSans-6c" d="M 603 4863
L 1178 4863
L 1178 0
L 603 0
L 603 4863
z
" transform="scale(0.015625)"/>
     </defs>
     <use xlink:href="#DejaVuSans-53"/>
     <use xlink:href="#DejaVuSans-65" x="63.476562"/>
     <use xlink:href="#DejaVuSans-6d" x="125"/>
     <use xlink:href="#DejaVuSans-45" x="222.412109"/>
     <use xlink:href="#DejaVuSans-76" x="285.595703"/>
     <use xlink:href="#DejaVuSans-61" x="344.775391"/>
     <use xlink:href="#DejaVuSans-6c" x="406.054688"/>
    </g>
   </g>
   <g id="text_26">
    <g id="patch_16">
     <path d="M 120.255315 120.333856
L 140.076565 120.333856
Q 140.876565 120.333856 140.876565 119.533856
L 140.876565 111.791356
Q 140.876565 110.991356 140.076565 110.991356
L 120.255315 110.991356
Q 119.455315 110.991356 119.455315 111.791356
L 119.455315 119.533856
Q 119.455315 120.333856 120.255315 120.333856
z
" style="fill: #ffffff; opacity: 0.7"/>
    </g>
    <!-- HMM -->
    <g transform="translate(120.255315 117.870106) scale(0.08 -0.08)">
     <defs>
      <path id="DejaVuSans-48" d="M 628 4666
L 1259 4666
L 1259 2753
L 3553 2753
L 3553 4666
L 4184 4666
L 4184 0
L 3553 0
L 3553 2222
L 1259 2222
L 1259 0
L 628 0
L 628 4666
z
" transform="scale(0.015625)"/>
     </defs>
     <use xlink:href="#DejaVuSans-48"/>
     <use xlink:href="#DejaVuSans-4d" x="75.195312"/>
     <use xlink:href="#DejaVuSans-4d" x="161.474609"/>
    </g>
   </g>
   <g id="text_27">
    <g id="patch_17">
     <path d="M 401.012807 301.126883
L 424.104057 301.126883
Q 424.904057 301.126883 424.904057 300.326883
L 424.904057 292.584383
Q 424.904057 291.784383 424.104057 291.784383
L 401.012807 291.784383
Q 400.212807 291.784383 400.212807 292.584383
L 400.212807 300.326883
Q 400.212807 301.126883 401.012807 301.126883
z
" style="fill: #ffffff; opacity: 0.7"/>
    </g>
    <!-- GloVe -->
    <g transform="translate(401.012807 298.663133) scale(0.08 -0.08)">
     <defs>
      <path id="DejaVuSans-47" d="M 3809 666
L 3809 1919
L 2778 1919
L 2778 2438
L 4434 2438
L 4434 434
Q 4069 175 3628 42
Q 3188 -91 2688 -91
Q 1594 -91 976 548
Q 359 1188 359 2328
Q 359 3472 976 4111
Q 1594 4750 2688 4750
Q 3144 4750 3555 4637
Q 3966 4525 4313 4306
L 4313 3634
Q 3963 3931 3569 4081
Q 3175 4231 2741 4231
Q 1884 4231 1454 3753
Q 1025 3275 1025 2328
Q 1025 1384 1454 906
Q 1884 428 2741 428
Q 3075 428 3337 486
Q 3600 544 3809 666
z
" transform="scale(0.015625)"/>
      <path id="DejaVuSans-56" d="M 1831 0
L 50 4666
L 709 4666
L 2188 738
L 3669 4666
L 4325 4666
L 2547 0
L 1831 0
z
" transform="scale(0.015625)"/>
     </defs>
     <use xlink:href="#DejaVuSans-47"/>
     <use xlink:href="#DejaVuSans-6c" x="77.490234"/>
     <use xlink:href="#DejaVuSans-6f" x="105.273438"/>
     <use xlink:href="#DejaVuSans-56" x="166.455078"/>
     <use xlink:href="#DejaVuSans-65" x="227.113281"/>
    </g>
   </g>
   <g id="text_28">
    <g id="patch_18">
     <path d="M 397.37623 280.164481
L 455.85873 280.164481
Q 456.65873 280.164481 456.65873 279.364481
L 456.65873 271.621981
Q 456.65873 270.821981 455.85873 270.821981
L 397.37623 270.821981
Q 396.57623 270.821981 396.57623 271.621981
L 396.57623 279.364481
Q 396.57623 280.164481 397.37623 280.164481
z
" style="fill: #ffffff; opacity: 0.7"/>
    </g>
    <!-- Penn Treebank -->
    <g transform="translate(397.37623 277.700731) scale(0.08 -0.08)">
     <defs>
      <path id="DejaVuSans-50" d="M 1259 4147
L 1259 2394
L 2053 2394
Q 2494 2394 2734 2622
Q 2975 2850 2975 3272
Q 2975 3691 2734 3919
Q 2494 4147 2053 4147
L 1259 4147
z
M 628 4666
L 2053 4666
Q 2838 4666 3239 4311
Q 3641 3956 3641 3272
Q 3641 2581 3239 2228
Q 2838 1875 2053 1875
L 1259 1875
L 1259 0
L 628 0
L 628 4666
z
" transform="scale(0.015625)"/>
     </defs>
     <use xlink:href="#DejaVuSans-50"/>
     <use xlink:href="#DejaVuSans-65" x="56.677734"/>
     <use xlink:href="#DejaVuSans-6e" x="118.201172"/>
     <use xlink:href="#DejaVuSans-6e" x="181.580078"/>
     <use xlink:href="#DejaVuSans-20" x="244.958984"/>
     <use xlink:href="#DejaVuSans-54" x="276.746094"/>
     <use xlink:href="#DejaVuSans-72" x="323.080078"/>
     <use xlink:href="#DejaVuSans-65" x="361.943359"/>
     <use xlink:href="#DejaVuSans-65" x="423.466797"/>
     <use xlink:href="#DejaVuSans-62" x="484.990234"/>
     <use xlink:href="#DejaVuSans-61" x="548.466797"/>
     <use xlink:href="#DejaVuSans-6e" x="609.746094"/>
     <use xlink:href="#DejaVuSans-6b" x="673.125"/>
    </g>
   </g>
   <g id="text_29">
    <g id="patch_19">
     <path d="M 62.503885 44.109719
L 196.896385 44.109719
Q 198.656385 44.109719 198.656385 42.349719
L 198.656385 34.607219
Q 198.656385 32.847219 196.896385 32.847219
L 62.503885 32.847219
Q 60.743885 32.847219 60.743885 34.607219
L 60.743885 42.349719
Q 60.743885 44.109719 62.503885 44.109719
z
" style="fill: #ffffff; opacity: 0.86; stroke: #dddddd; stroke-linejoin: miter"/>
    </g>
    <!-- Benchmark / comparison anchors -->
    <g transform="translate(62.503885 40.685969) scale(0.08 -0.08)">
     <defs>
      <path id="DejaVuSans-2f" d="M 1625 4666
L 2156 4666
L 531 -594
L 0 -594
L 1625 4666
z
" transform="scale(0.015625)"/>
     </defs>
     <use xlink:href="#DejaVuSans-42"/>
     <use xlink:href="#DejaVuSans-65" x="68.603516"/>
     <use xlink:href="#DejaVuSans-6e" x="130.126953"/>
     <use xlink:href="#DejaVuSans-63" x="193.505859"/>
     <use xlink:href="#DejaVuSans-68" x="248.486328"/>
     <use xlink:href="#DejaVuSans-6d" x="311.865234"/>
     <use xlink:href="#DejaVuSans-61" x="409.277344"/>
     <use xlink:href="#DejaVuSans-72" x="470.556641"/>
     <use xlink:href="#DejaVuSans-6b" x="511.669922"/>
     <use xlink:href="#DejaVuSans-20" x="569.580078"/>
     <use xlink:href="#DejaVuSans-2f" x="601.367188"/>
     <use xlink:href="#DejaVuSans-20" x="635.058594"/>
     <use xlink:href="#DejaVuSans-63" x="666.845703"/>
     <use xlink:href="#DejaVuSans-6f" x="721.826172"/>
     <use xlink:href="#DejaVuSans-6d" x="783.007812"/>
     <use xlink:href="#DejaVuSans-70" x="880.419922"/>
     <use xlink:href="#DejaVuSans-61" x="943.896484"/>
     <use xlink:href="#DejaVuSans-72" x="1005.175781"/>
     <use xlink:href="#DejaVuSans-69" x="1046.289062"/>
     <use xlink:href="#DejaVuSans-73" x="1074.072266"/>
     <use xlink:href="#DejaVuSans-6f" x="1126.171875"/>
     <use xlink:href="#DejaVuSans-6e" x="1187.353516"/>
     <use xlink:href="#DejaVuSans-20" x="1250.732422"/>
     <use xlink:href="#DejaVuSans-61" x="1282.519531"/>
     <use xlink:href="#DejaVuSans-6e" x="1343.798828"/>
     <use xlink:href="#DejaVuSans-63" x="1407.177734"/>
     <use xlink:href="#DejaVuSans-68" x="1462.158203"/>
     <use xlink:href="#DejaVuSans-6f" x="1525.537109"/>
     <use xlink:href="#DejaVuSans-72" x="1586.71875"/>
     <use xlink:href="#DejaVuSans-73" x="1627.832031"/>
    </g>
   </g>
   <g id="text_30">
    <g id="patch_20">
     <path d="M 415.582345 444.691719
L 508.157345 444.691719
Q 509.917345 444.691719 509.917345 442.931719
L 509.917345 435.189219
Q 509.917345 433.429219 508.157345 433.429219
L 415.582345 433.429219
Q 413.822345 433.429219 413.822345 435.189219
L 413.822345 442.931719
Q 413.822345 444.691719 415.582345 444.691719
z
" style="fill: #ffffff; opacity: 0.86; stroke: #dddddd; stroke-linejoin: miter"/>
    </g>
    <!-- High-use infrastructure -->
    <g transform="translate(415.582345 441.267969) scale(0.08 -0.08)">
     <use xlink:href="#DejaVuSans-48"/>
     <use xlink:href="#DejaVuSans-69" x="75.195312"/>
     <use xlink:href="#DejaVuSans-67" x="102.978516"/>
     <use xlink:href="#DejaVuSans-68" x="166.455078"/>
     <use xlink:href="#DejaVuSans-2d" x="229.833984"/>
     <use xlink:href="#DejaVuSans-75" x="265.917969"/>
     <use xlink:href="#DejaVuSans-73" x="329.296875"/>
     <use xlink:href="#DejaVuSans-65" x="381.396484"/>
     <use xlink:href="#DejaVuSans-20" x="442.919922"/>
     <use xlink:href="#DejaVuSans-69" x="474.707031"/>
     <use xlink:href="#DejaVuSans-6e" x="502.490234"/>
     <use xlink:href="#DejaVuSans-66" x="565.869141"/>
     <use xlink:href="#DejaVuSans-72" x="601.074219"/>
     <use xlink:href="#DejaVuSans-61" x="642.1875"/>
     <use xlink:href="#DejaVuSans-73" x="703.466797"/>
     <use xlink:href="#DejaVuSans-74" x="755.566406"/>
     <use xlink:href="#DejaVuSans-72" x="794.775391"/>
     <use xlink:href="#DejaVuSans-75" x="835.888672"/>
     <use xlink:href="#DejaVuSans-63" x="899.267578"/>
     <use xlink:href="#DejaVuSans-74" x="954.248047"/>
     <use xlink:href="#DejaVuSans-75" x="993.457031"/>
     <use xlink:href="#DejaVuSans-72" x="1056.835938"/>
     <use xlink:href="#DejaVuSans-65" x="1095.699219"/>
    </g>
   </g>
   <g id="text_31">
    <!-- Infrastructure Quadrant -->
    <g transform="translate(248.703813 17.077969) scale(0.13 -0.13)">
     <defs>
      <path id="DejaVuSans-49" d="M 628 4666
L 1259 4666
L 1259 0
L 628 0
L 628 4666
z
" transform="scale(0.015625)"/>
      <path id="DejaVuSans-51" d="M 2522 4238
Q 1834 4238 1429 3725
Q 1025 3213 1025 2328
Q 1025 1447 1429 934
Q 1834 422 2522 422
Q 3209 422 3611 934
Q 4013 1447 4013 2328
Q 4013 3213 3611 3725
Q 3209 4238 2522 4238
z
M 3406 84
L 4238 -825
L 3475 -825
L 2784 -78
Q 2681 -84 2626 -87
Q 2572 -91 2522 -91
Q 1538 -91 948 567
Q 359 1225 359 2328
Q 359 3434 948 4092
Q 1538 4750 2522 4750
Q 3503 4750 4090 4092
Q 4678 3434 4678 2328
Q 4678 1516 4351 937
Q 4025 359 3406 84
z
" transform="scale(0.015625)"/>
     </defs>
     <use xlink:href="#DejaVuSans-49"/>
     <use xlink:href="#DejaVuSans-6e" x="29.492188"/>
     <use xlink:href="#DejaVuSans-66" x="92.871094"/>
     <use xlink:href="#DejaVuSans-72" x="128.076172"/>
     <use xlink:href="#DejaVuSans-61" x="169.189453"/>
     <use xlink:href="#DejaVuSans-73" x="230.46875"/>
     <use xlink:href="#DejaVuSans-74" x="282.568359"/>
     <use xlink:href="#DejaVuSans-72" x="321.777344"/>
     <use xlink:href="#DejaVuSans-75" x="362.890625"/>
     <use xlink:href="#DejaVuSans-63" x="426.269531"/>
     <use xlink:href="#DejaVuSans-74" x="481.25"/>
     <use xlink:href="#DejaVuSans-75" x="520.458984"/>
     <use xlink:href="#DejaVuSans-72" x="583.837891"/>
     <use xlink:href="#DejaVuSans-65" x="622.701172"/>
     <use xlink:href="#DejaVuSans-20" x="684.224609"/>
     <use xlink:href="#DejaVuSans-51" x="716.011719"/>
     <use xlink:href="#DejaVuSans-75" x="794.722656"/>
     <use xlink:href="#DejaVuSans-61" x="858.101562"/>
     <use xlink:href="#DejaVuSans-64" x="919.380859"/>
     <use xlink:href="#DejaVuSans-72" x="982.857422"/>
     <use xlink:href="#DejaVuSans-61" x="1023.970703"/>
     <use xlink:href="#DejaVuSans-6e" x="1085.25"/>
     <use xlink:href="#DejaVuSans-74" x="1148.628906"/>
    </g>
   </g>
   <g id="legend_1">
    <g id="PathCollection_7">
     <defs>
      <path id="m4020c5e524" d="M 0 13.635601
C 3.616204 13.635601 7.084784 12.198868 9.641826 9.641826
C 12.198868 7.084784 13.635601 3.616204 13.635601 0
C 13.635601 -3.616204 12.198868 -7.084784 9.641826 -9.641826
C 7.084784 -12.198868 3.616204 -13.635601 0 -13.635601
C -3.616204 -13.635601 -7.084784 -12.198868 -9.641826 -9.641826
C -12.198868 -7.084784 -13.635601 -3.616204 -13.635601 0
C -13.635601 3.616204 -12.198868 7.084784 -9.641826 9.641826
C -7.084784 12.198868 -3.616204 13.635601 0 13.635601
z
" style="stroke: #ffffff; stroke-opacity: 0.72; stroke-width: 0.7"/>
     </defs>
     <g>
      <use xlink:href="#m4020c5e524" x="632.541465" y="213.929219" style="fill: #b54a5a; fill-opacity: 0.72; stroke: #ffffff; stroke-opacity: 0.72; stroke-width: 0.7"/>
     </g>
    </g>
    <g id="text_32">
     <!-- Benchmark Or Protocol -->
     <g transform="translate(646.941465 216.029219) scale(0.08 -0.08)">
      <defs>
       <path id="DejaVuSans-4f" d="M 2522 4238
Q 1834 4238 1429 3725
Q 1025 3213 1025 2328
Q 1025 1447 1429 934
Q 1834 422 2522 422
Q 3209 422 3611 934
Q 4013 1447 4013 2328
Q 4013 3213 3611 3725
Q 3209 4238 2522 4238
z
M 2522 4750
Q 3503 4750 4090 4092
Q 4678 3434 4678 2328
Q 4678 1225 4090 567
Q 3503 -91 2522 -91
Q 1538 -91 948 565
Q 359 1222 359 2328
Q 359 3434 948 4092
Q 1538 4750 2522 4750
z
" transform="scale(0.015625)"/>
      </defs>
      <use xlink:href="#DejaVuSans-42"/>
      <use xlink:href="#DejaVuSans-65" x="68.603516"/>
      <use xlink:href="#DejaVuSans-6e" x="130.126953"/>
      <use xlink:href="#DejaVuSans-63" x="193.505859"/>
      <use xlink:href="#DejaVuSans-68" x="248.486328"/>
      <use xlink:href="#DejaVuSans-6d" x="311.865234"/>
      <use xlink:href="#DejaVuSans-61" x="409.277344"/>
      <use xlink:href="#DejaVuSans-72" x="470.556641"/>
      <use xlink:href="#DejaVuSans-6b" x="511.669922"/>
      <use xlink:href="#DejaVuSans-20" x="569.580078"/>
      <use xlink:href="#DejaVuSans-4f" x="601.367188"/>
      <use xlink:href="#DejaVuSans-72" x="680.078125"/>
      <use xlink:href="#DejaVuSans-20" x="721.191406"/>
      <use xlink:href="#DejaVuSans-50" x="752.978516"/>
      <use xlink:href="#DejaVuSans-72" x="811.53125"/>
      <use xlink:href="#DejaVuSans-6f" x="850.394531"/>
      <use xlink:href="#DejaVuSans-74" x="911.576172"/>
      <use xlink:href="#DejaVuSans-6f" x="950.785156"/>
      <use xlink:href="#DejaVuSans-63" x="1011.966797"/>
      <use xlink:href="#DejaVuSans-6f" x="1066.947266"/>
      <use xlink:href="#DejaVuSans-6c" x="1128.128906"/>
     </g>
    </g>
    <g id="PathCollection_8">
     <defs>
      <path id="m20969900af" d="M 0 14.589005
C 3.869049 14.589005 7.580154 13.051816 10.315985 10.315985
C 13.051816 7.580154 14.589005 3.869049 14.589005 0
C 14.589005 -3.869049 13.051816 -7.580154 10.315985 -10.315985
C 7.580154 -13.051816 3.869049 -14.589005 0 -14.589005
C -3.869049 -14.589005 -7.580154 -13.051816 -10.315985 -10.315985
C -13.051816 -7.580154 -14.589005 -3.869049 -14.589005 0
C -14.589005 3.869049 -13.051816 7.580154 -10.315985 10.315985
C -7.580154 13.051816 -3.869049 14.589005 0 14.589005
z
" style="stroke: #ffffff; stroke-opacity: 0.72; stroke-width: 0.7"/>
     </defs>
     <g>
      <use xlink:href="#m20969900af" x="632.541465" y="225.671719" style="fill: #7e62a3; fill-opacity: 0.72; stroke: #ffffff; stroke-opacity: 0.72; stroke-width: 0.7"/>
     </g>
    </g>
    <g id="text_33">
     <!-- Dataset Or Database -->
     <g transform="translate(646.941465 227.771719) scale(0.08 -0.08)">
      <defs>
       <path id="DejaVuSans-44" d="M 1259 4147
L 1259 519
L 2022 519
Q 2988 519 3436 956
Q 3884 1394 3884 2338
Q 3884 3275 3436 3711
Q 2988 4147 2022 4147
L 1259 4147
z
M 628 4666
L 1925 4666
Q 3281 4666 3915 4102
Q 4550 3538 4550 2338
Q 4550 1131 3912 565
Q 3275 0 1925 0
L 628 0
L 628 4666
z
" transform="scale(0.015625)"/>
      </defs>
      <use xlink:href="#DejaVuSans-44"/>
      <use xlink:href="#DejaVuSans-61" x="77.001953"/>
      <use xlink:href="#DejaVuSans-74" x="138.28125"/>
      <use xlink:href="#DejaVuSans-61" x="177.490234"/>
      <use xlink:href="#DejaVuSans-73" x="238.769531"/>
      <use xlink:href="#DejaVuSans-65" x="290.869141"/>
      <use xlink:href="#DejaVuSans-74" x="352.392578"/>
      <use xlink:href="#DejaVuSans-20" x="391.601562"/>
      <use xlink:href="#DejaVuSans-4f" x="423.388672"/>
      <use xlink:href="#DejaVuSans-72" x="502.099609"/>
      <use xlink:href="#DejaVuSans-20" x="543.212891"/>
      <use xlink:href="#DejaVuSans-44" x="575"/>
      <use xlink:href="#DejaVuSans-61" x="652.001953"/>
      <use xlink:href="#DejaVuSans-74" x="713.28125"/>
      <use xlink:href="#DejaVuSans-61" x="752.490234"/>
      <use xlink:href="#DejaVuSans-62" x="813.769531"/>
      <use xlink:href="#DejaVuSans-61" x="877.246094"/>
      <use xlink:href="#DejaVuSans-73" x="938.525391"/>
      <use xlink:href="#DejaVuSans-65" x="990.625"/>
     </g>
    </g>
    <g id="PathCollection_9">
     <defs>
      <path id="m780e2f39ca" d="M 0 17.320508
C 4.593452 17.320508 8.999387 15.49551 12.247449 12.247449
C 15.49551 8.999387 17.320508 4.593452 17.320508 0
C 17.320508 -4.593452 15.49551 -8.999387 12.247449 -12.247449
C 8.999387 -15.49551 4.593452 -17.320508 0 -17.320508
C -4.593452 -17.320508 -8.999387 -15.49551 -12.247449 -12.247449
C -15.49551 -8.999387 -17.320508 -4.593452 -17.320508 0
C -17.320508 4.593452 -15.49551 8.999387 -12.247449 12.247449
C -8.999387 15.49551 -4.593452 17.320508 0 17.320508
z
" style="stroke: #ffffff; stroke-opacity: 0.72; stroke-width: 0.7"/>
     </defs>
     <g>
      <use xlink:href="#m780e2f39ca" x="632.541465" y="237.414219" style="fill: #5b9a57; fill-opacity: 0.72; stroke: #ffffff; stroke-opacity: 0.72; stroke-width: 0.7"/>
     </g>
    </g>
    <g id="text_34">
     <!-- Method -->
     <g transform="translate(646.941465 239.514219) scale(0.08 -0.08)">
      <use xlink:href="#DejaVuSans-4d"/>
      <use xlink:href="#DejaVuSans-65" x="86.279297"/>
      <use xlink:href="#DejaVuSans-74" x="147.802734"/>
      <use xlink:href="#DejaVuSans-68" x="187.011719"/>
      <use xlink:href="#DejaVuSans-6f" x="250.390625"/>
      <use xlink:href="#DejaVuSans-64" x="311.572266"/>
     </g>
    </g>
    <g id="PathCollection_10">
     <defs>
      <path id="ma77e948772" d="M 0 16.928258
C 4.489426 16.928258 8.795582 15.14459 11.970086 11.970086
C 15.14459 8.795582 16.928258 4.489426 16.928258 0
C 16.928258 -4.489426 15.14459 -8.795582 11.970086 -11.970086
C 8.795582 -15.14459 4.489426 -16.928258 0 -16.928258
C -4.489426 -16.928258 -8.795582 -15.14459 -11.970086 -11.970086
C -15.14459 -8.795582 -16.928258 -4.489426 -16.928258 0
C -16.928258 4.489426 -15.14459 8.795582 -11.970086 11.970086
C -8.795582 15.14459 -4.489426 16.928258 0 16.928258
z
" style="stroke: #ffffff; stroke-opacity: 0.72; stroke-width: 0.7"/>
     </defs>
     <g>
      <use xlink:href="#ma77e948772" x="632.541465" y="249.156719" style="fill: #d9892b; fill-opacity: 0.72; stroke: #ffffff; stroke-opacity: 0.72; stroke-width: 0.7"/>
     </g>
    </g>
    <g id="text_35">
     <!-- Metric -->
     <g transform="translate(646.941465 251.256719) scale(0.08 -0.08)">
      <use xlink:href="#DejaVuSans-4d"/>
      <use xlink:href="#DejaVuSans-65" x="86.279297"/>
      <use xlink:href="#DejaVuSans-74" x="147.802734"/>
      <use xlink:href="#DejaVuSans-72" x="187.011719"/>
      <use xlink:href="#DejaVuSans-69" x="228.125"/>
      <use xlink:href="#DejaVuSans-63" x="255.908203"/>
     </g>
    </g>
    <g id="PathCollection_11">
     <defs>
      <path id="m0120b3098b" d="M 0 17.226464
C 4.568512 17.226464 8.950524 15.411375 12.18095 12.18095
C 15.411375 8.950524 17.226464 4.568512 17.226464 0
C 17.226464 -4.568512 15.411375 -8.950524 12.18095 -12.18095
C 8.950524 -15.411375 4.568512 -17.226464 0 -17.226464
C -4.568512 -17.226464 -8.950524 -15.411375 -12.18095 -12.18095
C -15.411375 -8.950524 -17.226464 -4.568512 -17.226464 0
C -17.226464 4.568512 -15.411375 8.950524 -12.18095 12.18095
C -8.950524 15.411375 -4.568512 17.226464 0 17.226464
z
" style="stroke: #ffffff; stroke-opacity: 0.72; stroke-width: 0.7"/>
     </defs>
     <g>
      <use xlink:href="#m0120b3098b" x="632.541465" y="260.899219" style="fill: #3b7ea1; fill-opacity: 0.72; stroke: #ffffff; stroke-opacity: 0.72; stroke-width: 0.7"/>
     </g>
    </g>
    <g id="text_36">
     <!-- Model -->
     <g transform="translate(646.941465 262.999219) scale(0.08 -0.08)">
      <use xlink:href="#DejaVuSans-4d"/>
      <use xlink:href="#DejaVuSans-6f" x="86.279297"/>
      <use xlink:href="#DejaVuSans-64" x="147.460938"/>
      <use xlink:href="#DejaVuSans-65" x="210.9375"/>
      <use xlink:href="#DejaVuSans-6c" x="272.460938"/>
     </g>
    </g>
    <g id="PathCollection_12">
     <defs>
      <path id="mec1be61aea" d="M 0 13.558066
C 3.595641 13.558066 7.044498 12.129503 9.587001 9.587001
C 12.129503 7.044498 13.558066 3.595641 13.558066 0
C 13.558066 -3.595641 12.129503 -7.044498 9.587001 -9.587001
C 7.044498 -12.129503 3.595641 -13.558066 0 -13.558066
C -3.595641 -13.558066 -7.044498 -12.129503 -9.587001 -9.587001
C -12.129503 -7.044498 -13.558066 -3.595641 -13.558066 0
C -13.558066 3.595641 -12.129503 7.044498 -9.587001 9.587001
C -7.044498 12.129503 -3.595641 13.558066 0 13.558066
z
" style="stroke: #ffffff; stroke-opacity: 0.72; stroke-width: 0.7"/>
     </defs>
     <g>
      <use xlink:href="#mec1be61aea" x="632.541465" y="272.641719" style="fill: #5d737e; fill-opacity: 0.72; stroke: #ffffff; stroke-opacity: 0.72; stroke-width: 0.7"/>
     </g>
    </g>
    <g id="text_37">
     <!-- Software Or Tool -->
     <g transform="translate(646.941465 274.741719) scale(0.08 -0.08)">
      <defs>
       <path id="DejaVuSans-77" d="M 269 3500
L 844 3500
L 1563 769
L 2278 3500
L 2956 3500
L 3675 769
L 4391 3500
L 4966 3500
L 4050 0
L 3372 0
L 2619 2869
L 1863 0
L 1184 0
L 269 3500
z
" transform="scale(0.015625)"/>
      </defs>
      <use xlink:href="#DejaVuSans-53"/>
      <use xlink:href="#DejaVuSans-6f" x="63.476562"/>
      <use xlink:href="#DejaVuSans-66" x="124.658203"/>
      <use xlink:href="#DejaVuSans-74" x="158.113281"/>
      <use xlink:href="#DejaVuSans-77" x="197.322266"/>
      <use xlink:href="#DejaVuSans-61" x="279.109375"/>
      <use xlink:href="#DejaVuSans-72" x="340.388672"/>
      <use xlink:href="#DejaVuSans-65" x="379.251953"/>
      <use xlink:href="#DejaVuSans-20" x="440.775391"/>
      <use xlink:href="#DejaVuSans-4f" x="472.5625"/>
      <use xlink:href="#DejaVuSans-72" x="551.273438"/>
      <use xlink:href="#DejaVuSans-20" x="592.386719"/>
      <use xlink:href="#DejaVuSans-54" x="624.173828"/>
      <use xlink:href="#DejaVuSans-6f" x="668.257812"/>
      <use xlink:href="#DejaVuSans-6f" x="729.439453"/>
      <use xlink:href="#DejaVuSans-6c" x="790.621094"/>
     </g>
    </g>
   </g>
  </g>
 </g>
 <defs>
  <clipPath id="p9236401677">
   <rect x="45.690625" y="23.077969" width="560.442" height="440.2"/>
  </clipPath>
 </defs>
</svg>
