<?xml version="1.0" encoding="utf-8" standalone="no"?>
<!DOCTYPE svg PUBLIC "-//W3C//DTD SVG 1.1//EN"
  "http://www.w3.org/Graphics/SVG/1.1/DTD/svg11.dtd">
<svg xmlns:xlink="http://www.w3.org/1999/xlink" width="568.41625pt" height="423.754375pt" viewBox="0 0 568.41625 423.754375" xmlns="http://www.w3.org/2000/svg" version="1.1">
 <metadata>
  <rdf:RDF xmlns:dc="http://purl.org/dc/elements/1.1/" xmlns:cc="http://creativecommons.org/ns#" xmlns:rdf="http://www.w3.org/1999/02/22-rdf-syntax-ns#">
   <cc:Work>
    <dc:type rdf:resource="http://purl.org/dc/dcmitype/StillImage"/>
    <dc:date>2026-05-31T18:20:23.458582</dc:date>
    <dc:format>image/svg+xml</dc:format>
    <dc:creator>
     <cc:Agent>
      <dc:title>Matplotlib v3.9.2, https://matplotlib.org/</dc:title>
     </cc:Agent>
    </dc:creator>
   </cc:Work>
  </rdf:RDF>
 </metadata>
 <defs>
  <style type="text/css">*{stroke-linejoin: round; stroke-linecap: butt}</style>
 </defs>
 <g id="figure_1">
  <g id="patch_1">
   <path d="M 0 423.754375
L 568.41625 423.754375
L 568.41625 0
L 0 0
z
" style="fill: #ffffff"/>
  </g>
  <g id="axes_1">
   <g id="patch_2">
    <path d="M 43.78125 386.198125
L 561.21625 386.198125
L 561.21625 22.318125
L 43.78125 22.318125
z
" style="fill: #ffffff"/>
   </g>
   <g id="PathCollection_1">
    <path d="M 314.804957 247.721008
C 317.456988 247.721008 320.000756 246.667344 321.876025 244.792075
C 323.751294 242.916806 324.804957 240.373039 324.804957 237.721008
C 324.804957 235.068977 323.751294 232.525209 321.876025 230.64994
C 320.000756 228.774671 317.456988 227.721008 314.804957 227.721008
C 312.152926 227.721008 309.609159 228.774671 307.73389 230.64994
C 305.85862 232.525209 304.804957 235.068977 304.804957 237.721008
C 304.804957 240.373039 305.85862 242.916806 307.73389 244.792075
C 309.609159 246.667344 312.152926 247.721008 314.804957 247.721008
z
" clip-path="url(#p4e5a1a977c)" style="fill: #1f77b4; fill-opacity: 0.72; stroke: #ffffff; stroke-opacity: 0.72; stroke-width: 0.6"/>
    <path d="M 371.63215 284.023697
C 374.069939 284.023697 376.408211 283.055153 378.131988 281.331376
C 379.855765 279.607599 380.824309 277.269327 380.824309 274.831538
C 380.824309 272.393748 379.855765 270.055476 378.131988 268.331699
C 376.408211 266.607922 374.069939 265.639378 371.63215 265.639378
C 369.19436 265.639378 366.856088 266.607922 365.132311 268.331699
C 363.408534 270.055476 362.43999 272.393748 362.43999 274.831538
C 362.43999 277.269327 363.408534 279.607599 365.132311 281.331376
C 366.856088 283.055153 369.19436 284.023697 371.63215 284.023697
z
" clip-path="url(#p4e5a1a977c)" style="fill: #1f77b4; fill-opacity: 0.72; stroke: #ffffff; stroke-opacity: 0.72; stroke-width: 0.6"/>
    <path d="M 335.544278 250.273392
C 337.259721 250.273392 338.905134 249.591839 340.118135 248.378838
C 341.331136 247.165837 342.012689 245.520424 342.012689 243.804981
C 342.012689 242.089539 341.331136 240.444125 340.118135 239.231124
C 338.905134 238.018123 337.259721 237.33657 335.544278 237.33657
C 333.828836 237.33657 332.183422 238.018123 330.970421 239.231124
C 329.75742 240.444125 329.075868 242.089539 329.075868 243.804981
C 329.075868 245.520424 329.75742 247.165837 330.970421 248.378838
C 332.183422 249.591839 333.828836 250.273392 335.544278 250.273392
z
" clip-path="url(#p4e5a1a977c)" style="fill: #1f77b4; fill-opacity: 0.72; stroke: #ffffff; stroke-opacity: 0.72; stroke-width: 0.6"/>
    <path d="M 386.855817 282.95801
C 388.218759 282.95801 389.526061 282.416507 390.489807 281.452762
C 391.453552 280.489016 391.995055 279.181714 391.995055 277.818772
C 391.995055 276.45583 391.453552 275.148527 390.489807 274.184782
C 389.526061 273.221037 388.218759 272.679534 386.855817 272.679534
C 385.492875 272.679534 384.185572 273.221037 383.221827 274.184782
C 382.258082 275.148527 381.716579 276.45583 381.716579 277.818772
C 381.716579 279.181714 382.258082 280.489016 383.221827 281.452762
C 384.185572 282.416507 385.492875 282.95801 386.855817 282.95801
z
" clip-path="url(#p4e5a1a977c)" style="fill: #1f77b4; fill-opacity: 0.72; stroke: #ffffff; stroke-opacity: 0.72; stroke-width: 0.6"/>
    <path d="M 361.622051 282.527962
C 362.870943 282.527962 364.068851 282.031772 364.951951 281.148672
C 365.835051 280.265572 366.331241 279.067664 366.331241 277.818772
C 366.331241 276.56988 365.835051 275.371972 364.951951 274.488872
C 364.068851 273.605772 362.870943 273.109582 361.622051 273.109582
C 360.373159 273.109582 359.17525 273.605772 358.292151 274.488872
C 357.409051 275.371972 356.912861 276.56988 356.912861 277.818772
C 356.912861 279.067664 357.409051 280.265572 358.292151 281.148672
C 359.17525 282.031772 360.373159 282.527962 361.622051 282.527962
z
" clip-path="url(#p4e5a1a977c)" style="fill: #1f77b4; fill-opacity: 0.72; stroke: #ffffff; stroke-opacity: 0.72; stroke-width: 0.6"/>
    <path d="M 329.617985 239.513751
C 330.538282 239.513751 331.421011 239.148113 332.071759 238.497364
C 332.722508 237.846615 333.088146 236.963887 333.088146 236.04359
C 333.088146 235.123292 332.722508 234.240564 332.071759 233.589815
C 331.421011 232.939067 330.538282 232.573429 329.617985 232.573429
C 328.697687 232.573429 327.814959 232.939067 327.16421 233.589815
C 326.513462 234.240564 326.147824 235.123292 326.147824 236.04359
C 326.147824 236.963887 326.513462 237.846615 327.16421 238.497364
C 327.814959 239.148113 328.697687 239.513751 329.617985 239.513751
z
" clip-path="url(#p4e5a1a977c)" style="fill: #1f77b4; fill-opacity: 0.72; stroke: #ffffff; stroke-opacity: 0.72; stroke-width: 0.6"/>
   </g>
   <g id="PathCollection_2">
    <path d="M 307.473489 263.892039
C 310.12552 263.892039 312.669287 262.838376 314.544556 260.963107
C 316.419826 259.087838 317.473489 256.54407 317.473489 253.892039
C 317.473489 251.240008 316.419826 248.69624 314.544556 246.820971
C 312.669287 244.945702 310.12552 243.892039 307.473489 243.892039
C 304.821458 243.892039 302.27769 244.945702 300.402421 246.820971
C 298.527152 248.69624 297.473489 251.240008 297.473489 253.892039
C 297.473489 256.54407 298.527152 259.087838 300.402421 260.963107
C 302.27769 262.838376 304.821458 263.892039 307.473489 263.892039
z
" clip-path="url(#p4e5a1a977c)" style="fill: #ff7f0e; fill-opacity: 0.72; stroke: #ffffff; stroke-opacity: 0.72; stroke-width: 0.6"/>
    <path d="M 405.369595 308.825747
C 407.864164 308.825747 410.256897 307.834644 412.020824 306.070717
C 413.784751 304.306791 414.775854 301.914057 414.775854 299.419488
C 414.775854 296.924919 413.784751 294.532185 412.020824 292.768258
C 410.256897 291.004332 407.864164 290.013229 405.369595 290.013229
C 402.875026 290.013229 400.482292 291.004332 398.718365 292.768258
C 396.954438 294.532185 395.963336 296.924919 395.963336 299.419488
C 395.963336 301.914057 396.954438 304.306791 398.718365 306.070717
C 400.482292 307.834644 402.875026 308.825747 405.369595 308.825747
z
" clip-path="url(#p4e5a1a977c)" style="fill: #ff7f0e; fill-opacity: 0.72; stroke: #ffffff; stroke-opacity: 0.72; stroke-width: 0.6"/>
    <path d="M 346.259333 263.280469
C 348.233294 263.280469 350.126672 262.496206 351.522473 261.100405
C 352.918274 259.704604 353.702537 257.811226 353.702537 255.837265
C 353.702537 253.863305 352.918274 251.969927 351.522473 250.574126
C 350.126672 249.178325 348.233294 248.394062 346.259333 248.394062
C 344.285373 248.394062 342.391995 249.178325 340.996194 250.574126
C 339.600393 251.969927 338.81613 253.863305 338.81613 255.837265
C 338.81613 257.811226 339.600393 259.704604 340.996194 261.100405
C 342.391995 262.496206 344.285373 263.280469 346.259333 263.280469
z
" clip-path="url(#p4e5a1a977c)" style="fill: #ff7f0e; fill-opacity: 0.72; stroke: #ffffff; stroke-opacity: 0.72; stroke-width: 0.6"/>
    <path d="M 383.514615 283.203867
C 385.134019 283.203867 386.687314 282.560471 387.832405 281.415379
C 388.977497 280.270288 389.620893 278.716993 389.620893 277.097589
C 389.620893 275.478185 388.977497 273.92489 387.832405 272.779799
C 386.687314 271.634708 385.134019 270.991312 383.514615 270.991312
C 381.895212 270.991312 380.341916 271.634708 379.196825 272.779799
C 378.051734 273.92489 377.408338 275.478185 377.408338 277.097589
C 377.408338 278.716993 378.051734 280.270288 379.196825 281.415379
C 380.341916 282.560471 381.895212 283.203867 383.514615 283.203867
z
" clip-path="url(#p4e5a1a977c)" style="fill: #ff7f0e; fill-opacity: 0.72; stroke: #ffffff; stroke-opacity: 0.72; stroke-width: 0.6"/>
    <path d="M 359.466564 270.966226
C 361.074726 270.966226 362.617237 270.327297 363.754379 269.190156
C 364.89152 268.053014 365.530449 266.510502 365.530449 264.902341
C 365.530449 263.29418 364.89152 261.751669 363.754379 260.614527
C 362.617237 259.477386 361.074726 258.838456 359.466564 258.838456
C 357.858403 258.838456 356.315892 259.477386 355.17875 260.614527
C 354.041609 261.751669 353.402679 263.29418 353.402679 264.902341
C 353.402679 266.510502 354.041609 268.053014 355.17875 269.190156
C 356.315892 270.327297 357.858403 270.966226 359.466564 270.966226
z
" clip-path="url(#p4e5a1a977c)" style="fill: #ff7f0e; fill-opacity: 0.72; stroke: #ffffff; stroke-opacity: 0.72; stroke-width: 0.6"/>
    <path d="M 343.440046 284.828708
C 344.837611 284.828708 346.178124 284.273449 347.166352 283.285221
C 348.154579 282.296994 348.709838 280.956481 348.709838 279.558916
C 348.709838 278.161351 348.154579 276.820839 347.166352 275.832611
C 346.178124 274.844383 344.837611 274.289125 343.440046 274.289125
C 342.042481 274.289125 340.701969 274.844383 339.713741 275.832611
C 338.725514 276.820839 338.170255 278.161351 338.170255 279.558916
C 338.170255 280.956481 338.725514 282.296994 339.713741 283.285221
C 340.701969 284.273449 342.042481 284.828708 343.440046 284.828708
z
" clip-path="url(#p4e5a1a977c)" style="fill: #ff7f0e; fill-opacity: 0.72; stroke: #ffffff; stroke-opacity: 0.72; stroke-width: 0.6"/>
    <path d="M 311.661904 287.346985
C 313.034729 287.346985 314.351511 286.801556 315.322244 285.830823
C 316.292978 284.860089 316.838407 283.543307 316.838407 282.170483
C 316.838407 280.797658 316.292978 279.480876 315.322244 278.510142
C 314.351511 277.539409 313.034729 276.99398 311.661904 276.99398
C 310.28908 276.99398 308.972298 277.539409 308.001564 278.510142
C 307.030831 279.480876 306.485402 280.797658 306.485402 282.170483
C 306.485402 283.543307 307.030831 284.860089 308.001564 285.830823
C 308.972298 286.801556 310.28908 287.346985 311.661904 287.346985
z
" clip-path="url(#p4e5a1a977c)" style="fill: #ff7f0e; fill-opacity: 0.72; stroke: #ffffff; stroke-opacity: 0.72; stroke-width: 0.6"/>
    <path d="M 403.382303 300.112887
C 404.526025 300.112887 405.623056 299.658482 406.431789 298.849749
C 407.240522 298.041016 407.694927 296.943985 407.694927 295.800263
C 407.694927 294.656542 407.240522 293.559511 406.431789 292.750778
C 405.623056 291.942045 404.526025 291.487639 403.382303 291.487639
C 402.238582 291.487639 401.141551 291.942045 400.332818 292.750778
C 399.524085 293.559511 399.069679 294.656542 399.069679 295.800263
C 399.069679 296.943985 399.524085 298.041016 400.332818 298.849749
C 401.141551 299.658482 402.238582 300.112887 403.382303 300.112887
z
" clip-path="url(#p4e5a1a977c)" style="fill: #ff7f0e; fill-opacity: 0.72; stroke: #ffffff; stroke-opacity: 0.72; stroke-width: 0.6"/>
   </g>
   <g id="PathCollection_3">
    <path d="M 280.412725 242.310338
C 283.064756 242.310338 285.608524 241.256675 287.483793 239.381406
C 289.359062 237.506137 290.412725 234.962369 290.412725 232.310338
C 290.412725 229.658307 289.359062 227.11454 287.483793 225.239271
C 285.608524 223.364002 283.064756 222.310338 280.412725 222.310338
C 277.760694 222.310338 275.216926 223.364002 273.341657 225.239271
C 271.466388 227.11454 270.412725 229.658307 270.412725 232.310338
C 270.412725 234.962369 271.466388 237.506137 273.341657 239.381406
C 275.216926 241.256675 277.760694 242.310338 280.412725 242.310338
z
" clip-path="url(#p4e5a1a977c)" style="fill: #2ca02c; fill-opacity: 0.72; stroke: #ffffff; stroke-opacity: 0.72; stroke-width: 0.6"/>
    <path d="M 253.396701 244.338834
C 255.315363 244.338834 257.155699 243.576541 258.512398 242.219842
C 259.869097 240.863144 260.631389 239.022807 260.631389 237.104145
C 260.631389 235.185483 259.869097 233.345146 258.512398 231.988448
C 257.155699 230.631749 255.315363 229.869456 253.396701 229.869456
C 251.478039 229.869456 249.637702 230.631749 248.281003 231.988448
C 246.924304 233.345146 246.162012 235.185483 246.162012 237.104145
C 246.162012 239.022807 246.924304 240.863144 248.281003 242.219842
C 249.637702 243.576541 251.478039 244.338834 253.396701 244.338834
z
" clip-path="url(#p4e5a1a977c)" style="fill: #2ca02c; fill-opacity: 0.72; stroke: #ffffff; stroke-opacity: 0.72; stroke-width: 0.6"/>
    <path d="M 274.10604 238.181125
C 275.961202 238.181125 277.740631 237.444061 279.052428 236.132264
C 280.364226 234.820466 281.10129 233.041037 281.10129 231.185875
C 281.10129 229.330713 280.364226 227.551284 279.052428 226.239487
C 277.740631 224.927689 275.961202 224.190625 274.10604 224.190625
C 272.250878 224.190625 270.471449 224.927689 269.159651 226.239487
C 267.847854 227.551284 267.11079 229.330713 267.11079 231.185875
C 267.11079 233.041037 267.847854 234.820466 269.159651 236.132264
C 270.471449 237.444061 272.250878 238.181125 274.10604 238.181125
z
" clip-path="url(#p4e5a1a977c)" style="fill: #2ca02c; fill-opacity: 0.72; stroke: #ffffff; stroke-opacity: 0.72; stroke-width: 0.6"/>
   </g>
   <g id="PathCollection_4">
    <path d="M 346.397428 258.49755
C 349.049459 258.49755 351.593227 257.443887 353.468496 255.568618
C 355.343765 253.693349 356.397428 251.149581 356.397428 248.49755
C 356.397428 245.845519 355.343765 243.301752 353.468496 241.426483
C 351.593227 239.551214 349.049459 238.49755 346.397428 238.49755
C 343.745397 238.49755 341.201629 239.551214 339.32636 241.426483
C 337.451091 243.301752 336.397428 245.845519 336.397428 248.49755
C 336.397428 251.149581 337.451091 253.693349 339.32636 255.568618
C 341.201629 257.443887 343.745397 258.49755 346.397428 258.49755
z
" clip-path="url(#p4e5a1a977c)" style="fill: #d62728; fill-opacity: 0.72; stroke: #ffffff; stroke-opacity: 0.72; stroke-width: 0.6"/>
    <path d="M 372.391163 268.355471
C 374.045629 268.355471 375.632554 267.698145 376.802437 266.528262
C 377.972321 265.358378 378.629647 263.771453 378.629647 262.116988
C 378.629647 260.462523 377.972321 258.875597 376.802437 257.705714
C 375.632554 256.53583 374.045629 255.878504 372.391163 255.878504
C 370.736698 255.878504 369.149773 256.53583 367.97989 257.705714
C 366.810006 258.875597 366.15268 260.462523 366.15268 262.116988
C 366.15268 263.771453 366.810006 265.358378 367.97989 266.528262
C 369.149773 267.698145 370.736698 268.355471 372.391163 268.355471
z
" clip-path="url(#p4e5a1a977c)" style="fill: #d62728; fill-opacity: 0.72; stroke: #ffffff; stroke-opacity: 0.72; stroke-width: 0.6"/>
    <path d="M 379.054566 273.641739
C 380.490916 273.641739 381.86863 273.071072 382.884283 272.055419
C 383.899935 271.039766 384.470603 269.662052 384.470603 268.225703
C 384.470603 266.789353 383.899935 265.411639 382.884283 264.395986
C 381.86863 263.380334 380.490916 262.809666 379.054566 262.809666
C 377.618217 262.809666 376.240503 263.380334 375.22485 264.395986
C 374.209197 265.411639 373.63853 266.789353 373.63853 268.225703
C 373.63853 269.662052 374.209197 271.039766 375.22485 272.055419
C 376.240503 273.071072 377.618217 273.641739 379.054566 273.641739
z
" clip-path="url(#p4e5a1a977c)" style="fill: #d62728; fill-opacity: 0.72; stroke: #ffffff; stroke-opacity: 0.72; stroke-width: 0.6"/>
   </g>
   <g id="PathCollection_5">
    <path d="M 306.693647 248.429093
C 309.345678 248.429093 311.889446 247.37543 313.764715 245.500161
C 315.639984 243.624892 316.693647 241.081124 316.693647 238.429093
C 316.693647 235.777062 315.639984 233.233294 313.764715 231.358025
C 311.889446 229.482756 309.345678 228.429093 306.693647 228.429093
C 304.041616 228.429093 301.497849 229.482756 299.62258 231.358025
C 297.74731 233.233294 296.693647 235.777062 296.693647 238.429093
C 296.693647 241.081124 297.74731 243.624892 299.62258 245.500161
C 301.497849 247.37543 304.041616 248.429093 306.693647 248.429093
z
" clip-path="url(#p4e5a1a977c)" style="fill: #9467bd; fill-opacity: 0.72; stroke: #ffffff; stroke-opacity: 0.72; stroke-width: 0.6"/>
    <path d="M 274.885953 229.381497
C 276.98109 229.381497 278.990697 228.54909 280.472182 227.067605
C 281.953668 225.586119 282.786074 223.576512 282.786074 221.481375
C 282.786074 219.386239 281.953668 217.376631 280.472182 215.895146
C 278.990697 214.413661 276.98109 213.581254 274.885953 213.581254
C 272.790816 213.581254 270.781209 214.413661 269.299724 215.895146
C 267.818238 217.376631 266.985832 219.386239 266.985832 221.481375
C 266.985832 223.576512 267.818238 225.586119 269.299724 227.067605
C 270.781209 228.54909 272.790816 229.381497 274.885953 229.381497
z
" clip-path="url(#p4e5a1a977c)" style="fill: #9467bd; fill-opacity: 0.72; stroke: #ffffff; stroke-opacity: 0.72; stroke-width: 0.6"/>
    <path d="M 331.869969 262.784843
C 333.681021 262.784843 335.418141 262.065305 336.698748 260.784698
C 337.979355 259.504091 338.698893 257.766971 338.698893 255.95592
C 338.698893 254.144868 337.979355 252.407748 336.698748 251.127141
C 335.418141 249.846534 333.681021 249.126996 331.869969 249.126996
C 330.058917 249.126996 328.321798 249.846534 327.041191 251.127141
C 325.760584 252.407748 325.041045 254.144868 325.041045 255.95592
C 325.041045 257.766971 325.760584 259.504091 327.041191 260.784698
C 328.321798 262.065305 330.058917 262.784843 331.869969 262.784843
z
" clip-path="url(#p4e5a1a977c)" style="fill: #9467bd; fill-opacity: 0.72; stroke: #ffffff; stroke-opacity: 0.72; stroke-width: 0.6"/>
    <path d="M 430.186445 312.485991
C 431.939241 312.485991 433.620483 311.789597 434.859898 310.550183
C 436.099312 309.310769 436.795705 307.629526 436.795705 305.87673
C 436.795705 304.123934 436.099312 302.442691 434.859898 301.203277
C 433.620483 299.963863 431.939241 299.267469 430.186445 299.267469
C 428.433648 299.267469 426.752406 299.963863 425.512992 301.203277
C 424.273577 302.442691 423.577184 304.123934 423.577184 305.87673
C 423.577184 307.629526 424.273577 309.310769 425.512992 310.550183
C 426.752406 311.789597 428.433648 312.485991 430.186445 312.485991
z
" clip-path="url(#p4e5a1a977c)" style="fill: #9467bd; fill-opacity: 0.72; stroke: #ffffff; stroke-opacity: 0.72; stroke-width: 0.6"/>
    <path d="M 253.766376 224.182026
C 255.100344 224.182026 256.379856 223.652035 257.323114 222.708777
C 258.266372 221.765519 258.796364 220.486007 258.796364 219.152039
C 258.796364 217.81807 258.266372 216.538558 257.323114 215.5953
C 256.379856 214.652042 255.100344 214.122051 253.766376 214.122051
C 252.432408 214.122051 251.152896 214.652042 250.209638 215.5953
C 249.26638 216.538558 248.736389 217.81807 248.736389 219.152039
C 248.736389 220.486007 249.26638 221.765519 250.209638 222.708777
C 251.152896 223.652035 252.432408 224.182026 253.766376 224.182026
z
" clip-path="url(#p4e5a1a977c)" style="fill: #9467bd; fill-opacity: 0.72; stroke: #ffffff; stroke-opacity: 0.72; stroke-width: 0.6"/>
    <path d="M 363.463923 275.71479
C 364.784915 275.71479 366.05198 275.189954 366.986063 274.255871
C 367.920145 273.321789 368.444981 272.054723 368.444981 270.733731
C 368.444981 269.412739 367.920145 268.145674 366.986063 267.211591
C 366.05198 266.277509 364.784915 265.752673 363.463923 265.752673
C 362.142931 265.752673 360.875865 266.277509 359.941783 267.211591
C 359.0077 268.145674 358.482864 269.412739 358.482864 270.733731
C 358.482864 272.054723 359.0077 273.321789 359.941783 274.255871
C 360.875865 275.189954 362.142931 275.71479 363.463923 275.71479
z
" clip-path="url(#p4e5a1a977c)" style="fill: #9467bd; fill-opacity: 0.72; stroke: #ffffff; stroke-opacity: 0.72; stroke-width: 0.6"/>
    <path d="M 306.103205 249.89069
C 307.353322 249.89069 308.552405 249.394014 309.436371 248.510048
C 310.320338 247.626082 310.817014 246.426998 310.817014 245.176881
C 310.817014 243.926765 310.320338 242.727681 309.436371 241.843715
C 308.552405 240.959749 307.353322 240.463073 306.103205 240.463073
C 304.853089 240.463073 303.654005 240.959749 302.770039 241.843715
C 301.886073 242.727681 301.389396 243.926765 301.389396 245.176881
C 301.389396 246.426998 301.886073 247.626082 302.770039 248.510048
C 303.654005 249.394014 304.853089 249.89069 306.103205 249.89069
z
" clip-path="url(#p4e5a1a977c)" style="fill: #9467bd; fill-opacity: 0.72; stroke: #ffffff; stroke-opacity: 0.72; stroke-width: 0.6"/>
   </g>
   <g id="PathCollection_6">
    <path d="M 452.158446 326.462963
C 454.810477 326.462963 457.354245 325.4093 459.229514 323.534031
C 461.104783 321.658762 462.158446 319.114994 462.158446 316.462963
C 462.158446 313.810932 461.104783 311.267164 459.229514 309.391895
C 457.354245 307.516626 454.810477 306.462963 452.158446 306.462963
C 449.506415 306.462963 446.962647 307.516626 445.087378 309.391895
C 443.212109 311.267164 442.158446 313.810932 442.158446 316.462963
C 442.158446 319.114994 443.212109 321.658762 445.087378 323.534031
C 446.962647 325.4093 449.506415 326.462963 452.158446 326.462963
z
" clip-path="url(#p4e5a1a977c)" style="fill: #8c564b; fill-opacity: 0.72; stroke: #ffffff; stroke-opacity: 0.72; stroke-width: 0.6"/>
    <path d="M 445.198515 322.204768
C 447.295555 322.204768 449.306987 321.371606 450.789818 319.888775
C 452.272649 318.405944 453.105812 316.394511 453.105812 314.297472
C 453.105812 312.200432 452.272649 310.189 450.789818 308.706169
C 449.306987 307.223338 447.295555 306.390175 445.198515 306.390175
C 443.101476 306.390175 441.090043 307.223338 439.607212 308.706169
C 438.124381 310.189 437.291219 312.200432 437.291219 314.297472
C 437.291219 316.394511 438.124381 318.405944 439.607212 319.888775
C 441.090043 321.371606 443.101476 322.204768 445.198515 322.204768
z
" clip-path="url(#p4e5a1a977c)" style="fill: #8c564b; fill-opacity: 0.72; stroke: #ffffff; stroke-opacity: 0.72; stroke-width: 0.6"/>
    <path d="M 498.261971 363.622799
C 499.847224 363.622799 501.367762 362.992972 502.488706 361.872029
C 503.609649 360.751085 504.239476 359.230547 504.239476 357.645294
C 504.239476 356.060041 503.609649 354.539502 502.488706 353.418559
C 501.367762 352.297616 499.847224 351.667788 498.261971 351.667788
C 496.676718 351.667788 495.156179 352.297616 494.035236 353.418559
C 492.914293 354.539502 492.284465 356.060041 492.284465 357.645294
C 492.284465 359.230547 492.914293 360.751085 494.035236 361.872029
C 495.156179 362.992972 496.676718 363.622799 498.261971 363.622799
z
" clip-path="url(#p4e5a1a977c)" style="fill: #8c564b; fill-opacity: 0.72; stroke: #ffffff; stroke-opacity: 0.72; stroke-width: 0.6"/>
    <path d="M 489.810674 345.776157
C 491.084597 345.776157 492.306515 345.270022 493.207314 344.369223
C 494.108113 343.468424 494.614248 342.246506 494.614248 340.972583
C 494.614248 339.69866 494.108113 338.476743 493.207314 337.575943
C 492.306515 336.675144 491.084597 336.169009 489.810674 336.169009
C 488.536751 336.169009 487.314834 336.675144 486.414034 337.575943
C 485.513235 338.476743 485.0071 339.69866 485.0071 340.972583
C 485.0071 342.246506 485.513235 343.468424 486.414034 344.369223
C 487.314834 345.270022 488.536751 345.776157 489.810674 345.776157
z
" clip-path="url(#p4e5a1a977c)" style="fill: #8c564b; fill-opacity: 0.72; stroke: #ffffff; stroke-opacity: 0.72; stroke-width: 0.6"/>
    <path d="M 481.4857 340.986972
C 482.679462 340.986972 483.824492 340.512685 484.668609 339.668568
C 485.512727 338.82445 485.987013 337.679421 485.987013 336.485658
C 485.987013 335.291896 485.512727 334.146866 484.668609 333.302749
C 483.824492 332.458631 482.679462 331.984345 481.4857 331.984345
C 480.291937 331.984345 479.146908 332.458631 478.30279 333.302749
C 477.458673 334.146866 476.984386 335.291896 476.984386 336.485658
C 476.984386 337.679421 477.458673 338.82445 478.30279 339.668568
C 479.146908 340.512685 480.291937 340.986972 481.4857 340.986972
z
" clip-path="url(#p4e5a1a977c)" style="fill: #8c564b; fill-opacity: 0.72; stroke: #ffffff; stroke-opacity: 0.72; stroke-width: 0.6"/>
    <path d="M 453.59163 331.004475
C 454.690968 331.004475 455.745429 330.567703 456.522779 329.790353
C 457.300129 329.013003 457.736901 327.958542 457.736901 326.859203
C 457.736901 325.759864 457.300129 324.705403 456.522779 323.928053
C 455.745429 323.150703 454.690968 322.713932 453.59163 322.713932
C 452.492291 322.713932 451.43783 323.150703 450.66048 323.928053
C 449.88313 324.705403 449.446358 325.759864 449.446358 326.859203
C 449.446358 327.958542 449.88313 329.013003 450.66048 329.790353
C 451.43783 330.567703 452.492291 331.004475 453.59163 331.004475
z
" clip-path="url(#p4e5a1a977c)" style="fill: #8c564b; fill-opacity: 0.72; stroke: #ffffff; stroke-opacity: 0.72; stroke-width: 0.6"/>
   </g>
   <g id="matplotlib.axis_1">
    <g id="xtick_1">
     <g id="line2d_1">
      <defs>
       <path id="m7cf2c68486" d="M 0 0
L 0 3.5
" style="stroke: #000000; stroke-width: 0.8"/>
      </defs>
      <g>
       <use xlink:href="#m7cf2c68486" x="58.425637" y="386.198125" style="stroke: #000000; stroke-width: 0.8"/>
      </g>
     </g>
     <g id="text_1">
      <!-- 0.0 -->
      <g transform="translate(50.474074 400.796562) scale(0.1 -0.1)">
       <defs>
        <path id="DejaVuSans-30" d="M 2034 4250
Q 1547 4250 1301 3770
Q 1056 3291 1056 2328
Q 1056 1369 1301 889
Q 1547 409 2034 409
Q 2525 409 2770 889
Q 3016 1369 3016 2328
Q 3016 3291 2770 3770
Q 2525 4250 2034 4250
z
M 2034 4750
Q 2819 4750 3233 4129
Q 3647 3509 3647 2328
Q 3647 1150 3233 529
Q 2819 -91 2034 -91
Q 1250 -91 836 529
Q 422 1150 422 2328
Q 422 3509 836 4129
Q 1250 4750 2034 4750
z
" transform="scale(0.015625)"/>
        <path id="DejaVuSans-2e" d="M 684 794
L 1344 794
L 1344 0
L 684 0
L 684 794
z
" transform="scale(0.015625)"/>
       </defs>
       <use xlink:href="#DejaVuSans-30"/>
       <use xlink:href="#DejaVuSans-2e" x="63.623047"/>
       <use xlink:href="#DejaVuSans-30" x="95.410156"/>
      </g>
     </g>
    </g>
    <g id="xtick_2">
     <g id="line2d_2">
      <g>
       <use xlink:href="#m7cf2c68486" x="156.054882" y="386.198125" style="stroke: #000000; stroke-width: 0.8"/>
      </g>
     </g>
     <g id="text_2">
      <!-- 0.2 -->
      <g transform="translate(148.10332 400.796562) scale(0.1 -0.1)">
       <defs>
        <path id="DejaVuSans-32" d="M 1228 531
L 3431 531
L 3431 0
L 469 0
L 469 531
Q 828 903 1448 1529
Q 2069 2156 2228 2338
Q 2531 2678 2651 2914
Q 2772 3150 2772 3378
Q 2772 3750 2511 3984
Q 2250 4219 1831 4219
Q 1534 4219 1204 4116
Q 875 4013 500 3803
L 500 4441
Q 881 4594 1212 4672
Q 1544 4750 1819 4750
Q 2544 4750 2975 4387
Q 3406 4025 3406 3419
Q 3406 3131 3298 2873
Q 3191 2616 2906 2266
Q 2828 2175 2409 1742
Q 1991 1309 1228 531
z
" transform="scale(0.015625)"/>
       </defs>
       <use xlink:href="#DejaVuSans-30"/>
       <use xlink:href="#DejaVuSans-2e" x="63.623047"/>
       <use xlink:href="#DejaVuSans-32" x="95.410156"/>
      </g>
     </g>
    </g>
    <g id="xtick_3">
     <g id="line2d_3">
      <g>
       <use xlink:href="#m7cf2c68486" x="253.684127" y="386.198125" style="stroke: #000000; stroke-width: 0.8"/>
      </g>
     </g>
     <g id="text_3">
      <!-- 0.4 -->
      <g transform="translate(245.732565 400.796562) scale(0.1 -0.1)">
       <defs>
        <path id="DejaVuSans-34" d="M 2419 4116
L 825 1625
L 2419 1625
L 2419 4116
z
M 2253 4666
L 3047 4666
L 3047 1625
L 3713 1625
L 3713 1100
L 3047 1100
L 3047 0
L 2419 0
L 2419 1100
L 313 1100
L 313 1709
L 2253 4666
z
" transform="scale(0.015625)"/>
       </defs>
       <use xlink:href="#DejaVuSans-30"/>
       <use xlink:href="#DejaVuSans-2e" x="63.623047"/>
       <use xlink:href="#DejaVuSans-34" x="95.410156"/>
      </g>
     </g>
    </g>
    <g id="xtick_4">
     <g id="line2d_4">
      <g>
       <use xlink:href="#m7cf2c68486" x="351.313373" y="386.198125" style="stroke: #000000; stroke-width: 0.8"/>
      </g>
     </g>
     <g id="text_4">
      <!-- 0.6 -->
      <g transform="translate(343.36181 400.796562) scale(0.1 -0.1)">
       <defs>
        <path id="DejaVuSans-36" d="M 2113 2584
Q 1688 2584 1439 2293
Q 1191 2003 1191 1497
Q 1191 994 1439 701
Q 1688 409 2113 409
Q 2538 409 2786 701
Q 3034 994 3034 1497
Q 3034 2003 2786 2293
Q 2538 2584 2113 2584
z
M 3366 4563
L 3366 3988
Q 3128 4100 2886 4159
Q 2644 4219 2406 4219
Q 1781 4219 1451 3797
Q 1122 3375 1075 2522
Q 1259 2794 1537 2939
Q 1816 3084 2150 3084
Q 2853 3084 3261 2657
Q 3669 2231 3669 1497
Q 3669 778 3244 343
Q 2819 -91 2113 -91
Q 1303 -91 875 529
Q 447 1150 447 2328
Q 447 3434 972 4092
Q 1497 4750 2381 4750
Q 2619 4750 2861 4703
Q 3103 4656 3366 4563
z
" transform="scale(0.015625)"/>
       </defs>
       <use xlink:href="#DejaVuSans-30"/>
       <use xlink:href="#DejaVuSans-2e" x="63.623047"/>
       <use xlink:href="#DejaVuSans-36" x="95.410156"/>
      </g>
     </g>
    </g>
    <g id="xtick_5">
     <g id="line2d_5">
      <g>
       <use xlink:href="#m7cf2c68486" x="448.942618" y="386.198125" style="stroke: #000000; stroke-width: 0.8"/>
      </g>
     </g>
     <g id="text_5">
      <!-- 0.8 -->
      <g transform="translate(440.991055 400.796562) scale(0.1 -0.1)">
       <defs>
        <path id="DejaVuSans-38" d="M 2034 2216
Q 1584 2216 1326 1975
Q 1069 1734 1069 1313
Q 1069 891 1326 650
Q 1584 409 2034 409
Q 2484 409 2743 651
Q 3003 894 3003 1313
Q 3003 1734 2745 1975
Q 2488 2216 2034 2216
z
M 1403 2484
Q 997 2584 770 2862
Q 544 3141 544 3541
Q 544 4100 942 4425
Q 1341 4750 2034 4750
Q 2731 4750 3128 4425
Q 3525 4100 3525 3541
Q 3525 3141 3298 2862
Q 3072 2584 2669 2484
Q 3125 2378 3379 2068
Q 3634 1759 3634 1313
Q 3634 634 3220 271
Q 2806 -91 2034 -91
Q 1263 -91 848 271
Q 434 634 434 1313
Q 434 1759 690 2068
Q 947 2378 1403 2484
z
M 1172 3481
Q 1172 3119 1398 2916
Q 1625 2713 2034 2713
Q 2441 2713 2670 2916
Q 2900 3119 2900 3481
Q 2900 3844 2670 4047
Q 2441 4250 2034 4250
Q 1625 4250 1398 4047
Q 1172 3844 1172 3481
z
" transform="scale(0.015625)"/>
       </defs>
       <use xlink:href="#DejaVuSans-30"/>
       <use xlink:href="#DejaVuSans-2e" x="63.623047"/>
       <use xlink:href="#DejaVuSans-38" x="95.410156"/>
      </g>
     </g>
    </g>
    <g id="xtick_6">
     <g id="line2d_6">
      <g>
       <use xlink:href="#m7cf2c68486" x="546.571863" y="386.198125" style="stroke: #000000; stroke-width: 0.8"/>
      </g>
     </g>
     <g id="text_6">
      <!-- 1.0 -->
      <g transform="translate(538.620301 400.796562) scale(0.1 -0.1)">
       <defs>
        <path id="DejaVuSans-31" d="M 794 531
L 1825 531
L 1825 4091
L 703 3866
L 703 4441
L 1819 4666
L 2450 4666
L 2450 531
L 3481 531
L 3481 0
L 794 0
L 794 531
z
" transform="scale(0.015625)"/>
       </defs>
       <use xlink:href="#DejaVuSans-31"/>
       <use xlink:href="#DejaVuSans-2e" x="63.623047"/>
       <use xlink:href="#DejaVuSans-30" x="95.410156"/>
      </g>
     </g>
    </g>
    <g id="text_7">
     <!-- Use share among non-background object edges -->
     <g transform="translate(182.732344 414.474687) scale(0.1 -0.1)">
      <defs>
       <path id="DejaVuSans-55" d="M 556 4666
L 1191 4666
L 1191 1831
Q 1191 1081 1462 751
Q 1734 422 2344 422
Q 2950 422 3222 751
Q 3494 1081 3494 1831
L 3494 4666
L 4128 4666
L 4128 1753
Q 4128 841 3676 375
Q 3225 -91 2344 -91
Q 1459 -91 1007 375
Q 556 841 556 1753
L 556 4666
z
" transform="scale(0.015625)"/>
       <path id="DejaVuSans-73" d="M 2834 3397
L 2834 2853
Q 2591 2978 2328 3040
Q 2066 3103 1784 3103
Q 1356 3103 1142 2972
Q 928 2841 928 2578
Q 928 2378 1081 2264
Q 1234 2150 1697 2047
L 1894 2003
Q 2506 1872 2764 1633
Q 3022 1394 3022 966
Q 3022 478 2636 193
Q 2250 -91 1575 -91
Q 1294 -91 989 -36
Q 684 19 347 128
L 347 722
Q 666 556 975 473
Q 1284 391 1588 391
Q 1994 391 2212 530
Q 2431 669 2431 922
Q 2431 1156 2273 1281
Q 2116 1406 1581 1522
L 1381 1569
Q 847 1681 609 1914
Q 372 2147 372 2553
Q 372 3047 722 3315
Q 1072 3584 1716 3584
Q 2034 3584 2315 3537
Q 2597 3491 2834 3397
z
" transform="scale(0.015625)"/>
       <path id="DejaVuSans-65" d="M 3597 1894
L 3597 1613
L 953 1613
Q 991 1019 1311 708
Q 1631 397 2203 397
Q 2534 397 2845 478
Q 3156 559 3463 722
L 3463 178
Q 3153 47 2828 -22
Q 2503 -91 2169 -91
Q 1331 -91 842 396
Q 353 884 353 1716
Q 353 2575 817 3079
Q 1281 3584 2069 3584
Q 2775 3584 3186 3129
Q 3597 2675 3597 1894
z
M 3022 2063
Q 3016 2534 2758 2815
Q 2500 3097 2075 3097
Q 1594 3097 1305 2825
Q 1016 2553 972 2059
L 3022 2063
z
" transform="scale(0.015625)"/>
       <path id="DejaVuSans-20" transform="scale(0.015625)"/>
       <path id="DejaVuSans-68" d="M 3513 2113
L 3513 0
L 2938 0
L 2938 2094
Q 2938 2591 2744 2837
Q 2550 3084 2163 3084
Q 1697 3084 1428 2787
Q 1159 2491 1159 1978
L 1159 0
L 581 0
L 581 4863
L 1159 4863
L 1159 2956
Q 1366 3272 1645 3428
Q 1925 3584 2291 3584
Q 2894 3584 3203 3211
Q 3513 2838 3513 2113
z
" transform="scale(0.015625)"/>
       <path id="DejaVuSans-61" d="M 2194 1759
Q 1497 1759 1228 1600
Q 959 1441 959 1056
Q 959 750 1161 570
Q 1363 391 1709 391
Q 2188 391 2477 730
Q 2766 1069 2766 1631
L 2766 1759
L 2194 1759
z
M 3341 1997
L 3341 0
L 2766 0
L 2766 531
Q 2569 213 2275 61
Q 1981 -91 1556 -91
Q 1019 -91 701 211
Q 384 513 384 1019
Q 384 1609 779 1909
Q 1175 2209 1959 2209
L 2766 2209
L 2766 2266
Q 2766 2663 2505 2880
Q 2244 3097 1772 3097
Q 1472 3097 1187 3025
Q 903 2953 641 2809
L 641 3341
Q 956 3463 1253 3523
Q 1550 3584 1831 3584
Q 2591 3584 2966 3190
Q 3341 2797 3341 1997
z
" transform="scale(0.015625)"/>
       <path id="DejaVuSans-72" d="M 2631 2963
Q 2534 3019 2420 3045
Q 2306 3072 2169 3072
Q 1681 3072 1420 2755
Q 1159 2438 1159 1844
L 1159 0
L 581 0
L 581 3500
L 1159 3500
L 1159 2956
Q 1341 3275 1631 3429
Q 1922 3584 2338 3584
Q 2397 3584 2469 3576
Q 2541 3569 2628 3553
L 2631 2963
z
" transform="scale(0.015625)"/>
       <path id="DejaVuSans-6d" d="M 3328 2828
Q 3544 3216 3844 3400
Q 4144 3584 4550 3584
Q 5097 3584 5394 3201
Q 5691 2819 5691 2113
L 5691 0
L 5113 0
L 5113 2094
Q 5113 2597 4934 2840
Q 4756 3084 4391 3084
Q 3944 3084 3684 2787
Q 3425 2491 3425 1978
L 3425 0
L 2847 0
L 2847 2094
Q 2847 2600 2669 2842
Q 2491 3084 2119 3084
Q 1678 3084 1418 2786
Q 1159 2488 1159 1978
L 1159 0
L 581 0
L 581 3500
L 1159 3500
L 1159 2956
Q 1356 3278 1631 3431
Q 1906 3584 2284 3584
Q 2666 3584 2933 3390
Q 3200 3197 3328 2828
z
" transform="scale(0.015625)"/>
       <path id="DejaVuSans-6f" d="M 1959 3097
Q 1497 3097 1228 2736
Q 959 2375 959 1747
Q 959 1119 1226 758
Q 1494 397 1959 397
Q 2419 397 2687 759
Q 2956 1122 2956 1747
Q 2956 2369 2687 2733
Q 2419 3097 1959 3097
z
M 1959 3584
Q 2709 3584 3137 3096
Q 3566 2609 3566 1747
Q 3566 888 3137 398
Q 2709 -91 1959 -91
Q 1206 -91 779 398
Q 353 888 353 1747
Q 353 2609 779 3096
Q 1206 3584 1959 3584
z
" transform="scale(0.015625)"/>
       <path id="DejaVuSans-6e" d="M 3513 2113
L 3513 0
L 2938 0
L 2938 2094
Q 2938 2591 2744 2837
Q 2550 3084 2163 3084
Q 1697 3084 1428 2787
Q 1159 2491 1159 1978
L 1159 0
L 581 0
L 581 3500
L 1159 3500
L 1159 2956
Q 1366 3272 1645 3428
Q 1925 3584 2291 3584
Q 2894 3584 3203 3211
Q 3513 2838 3513 2113
z
" transform="scale(0.015625)"/>
       <path id="DejaVuSans-67" d="M 2906 1791
Q 2906 2416 2648 2759
Q 2391 3103 1925 3103
Q 1463 3103 1205 2759
Q 947 2416 947 1791
Q 947 1169 1205 825
Q 1463 481 1925 481
Q 2391 481 2648 825
Q 2906 1169 2906 1791
z
M 3481 434
Q 3481 -459 3084 -895
Q 2688 -1331 1869 -1331
Q 1566 -1331 1297 -1286
Q 1028 -1241 775 -1147
L 775 -588
Q 1028 -725 1275 -790
Q 1522 -856 1778 -856
Q 2344 -856 2625 -561
Q 2906 -266 2906 331
L 2906 616
Q 2728 306 2450 153
Q 2172 0 1784 0
Q 1141 0 747 490
Q 353 981 353 1791
Q 353 2603 747 3093
Q 1141 3584 1784 3584
Q 2172 3584 2450 3431
Q 2728 3278 2906 2969
L 2906 3500
L 3481 3500
L 3481 434
z
" transform="scale(0.015625)"/>
       <path id="DejaVuSans-2d" d="M 313 2009
L 1997 2009
L 1997 1497
L 313 1497
L 313 2009
z
" transform="scale(0.015625)"/>
       <path id="DejaVuSans-62" d="M 3116 1747
Q 3116 2381 2855 2742
Q 2594 3103 2138 3103
Q 1681 3103 1420 2742
Q 1159 2381 1159 1747
Q 1159 1113 1420 752
Q 1681 391 2138 391
Q 2594 391 2855 752
Q 3116 1113 3116 1747
z
M 1159 2969
Q 1341 3281 1617 3432
Q 1894 3584 2278 3584
Q 2916 3584 3314 3078
Q 3713 2572 3713 1747
Q 3713 922 3314 415
Q 2916 -91 2278 -91
Q 1894 -91 1617 61
Q 1341 213 1159 525
L 1159 0
L 581 0
L 581 4863
L 1159 4863
L 1159 2969
z
" transform="scale(0.015625)"/>
       <path id="DejaVuSans-63" d="M 3122 3366
L 3122 2828
Q 2878 2963 2633 3030
Q 2388 3097 2138 3097
Q 1578 3097 1268 2742
Q 959 2388 959 1747
Q 959 1106 1268 751
Q 1578 397 2138 397
Q 2388 397 2633 464
Q 2878 531 3122 666
L 3122 134
Q 2881 22 2623 -34
Q 2366 -91 2075 -91
Q 1284 -91 818 406
Q 353 903 353 1747
Q 353 2603 823 3093
Q 1294 3584 2113 3584
Q 2378 3584 2631 3529
Q 2884 3475 3122 3366
z
" transform="scale(0.015625)"/>
       <path id="DejaVuSans-6b" d="M 581 4863
L 1159 4863
L 1159 1991
L 2875 3500
L 3609 3500
L 1753 1863
L 3688 0
L 2938 0
L 1159 1709
L 1159 0
L 581 0
L 581 4863
z
" transform="scale(0.015625)"/>
       <path id="DejaVuSans-75" d="M 544 1381
L 544 3500
L 1119 3500
L 1119 1403
Q 1119 906 1312 657
Q 1506 409 1894 409
Q 2359 409 2629 706
Q 2900 1003 2900 1516
L 2900 3500
L 3475 3500
L 3475 0
L 2900 0
L 2900 538
Q 2691 219 2414 64
Q 2138 -91 1772 -91
Q 1169 -91 856 284
Q 544 659 544 1381
z
M 1991 3584
L 1991 3584
z
" transform="scale(0.015625)"/>
       <path id="DejaVuSans-64" d="M 2906 2969
L 2906 4863
L 3481 4863
L 3481 0
L 2906 0
L 2906 525
Q 2725 213 2448 61
Q 2172 -91 1784 -91
Q 1150 -91 751 415
Q 353 922 353 1747
Q 353 2572 751 3078
Q 1150 3584 1784 3584
Q 2172 3584 2448 3432
Q 2725 3281 2906 2969
z
M 947 1747
Q 947 1113 1208 752
Q 1469 391 1925 391
Q 2381 391 2643 752
Q 2906 1113 2906 1747
Q 2906 2381 2643 2742
Q 2381 3103 1925 3103
Q 1469 3103 1208 2742
Q 947 2381 947 1747
z
" transform="scale(0.015625)"/>
       <path id="DejaVuSans-6a" d="M 603 3500
L 1178 3500
L 1178 -63
Q 1178 -731 923 -1031
Q 669 -1331 103 -1331
L -116 -1331
L -116 -844
L 38 -844
Q 366 -844 484 -692
Q 603 -541 603 -63
L 603 3500
z
M 603 4863
L 1178 4863
L 1178 4134
L 603 4134
L 603 4863
z
" transform="scale(0.015625)"/>
       <path id="DejaVuSans-74" d="M 1172 4494
L 1172 3500
L 2356 3500
L 2356 3053
L 1172 3053
L 1172 1153
Q 1172 725 1289 603
Q 1406 481 1766 481
L 2356 481
L 2356 0
L 1766 0
Q 1100 0 847 248
Q 594 497 594 1153
L 594 3053
L 172 3053
L 172 3500
L 594 3500
L 594 4494
L 1172 4494
z
" transform="scale(0.015625)"/>
      </defs>
      <use xlink:href="#DejaVuSans-55"/>
      <use xlink:href="#DejaVuSans-73" x="73.193359"/>
      <use xlink:href="#DejaVuSans-65" x="125.292969"/>
      <use xlink:href="#DejaVuSans-20" x="186.816406"/>
      <use xlink:href="#DejaVuSans-73" x="218.603516"/>
      <use xlink:href="#DejaVuSans-68" x="270.703125"/>
      <use xlink:href="#DejaVuSans-61" x="334.082031"/>
      <use xlink:href="#DejaVuSans-72" x="395.361328"/>
      <use xlink:href="#DejaVuSans-65" x="434.224609"/>
      <use xlink:href="#DejaVuSans-20" x="495.748047"/>
      <use xlink:href="#DejaVuSans-61" x="527.535156"/>
      <use xlink:href="#DejaVuSans-6d" x="588.814453"/>
      <use xlink:href="#DejaVuSans-6f" x="686.226562"/>
      <use xlink:href="#DejaVuSans-6e" x="747.408203"/>
      <use xlink:href="#DejaVuSans-67" x="810.787109"/>
      <use xlink:href="#DejaVuSans-20" x="874.263672"/>
      <use xlink:href="#DejaVuSans-6e" x="906.050781"/>
      <use xlink:href="#DejaVuSans-6f" x="969.429688"/>
      <use xlink:href="#DejaVuSans-6e" x="1030.611328"/>
      <use xlink:href="#DejaVuSans-2d" x="1093.990234"/>
      <use xlink:href="#DejaVuSans-62" x="1130.074219"/>
      <use xlink:href="#DejaVuSans-61" x="1193.550781"/>
      <use xlink:href="#DejaVuSans-63" x="1254.830078"/>
      <use xlink:href="#DejaVuSans-6b" x="1309.810547"/>
      <use xlink:href="#DejaVuSans-67" x="1367.720703"/>
      <use xlink:href="#DejaVuSans-72" x="1431.197266"/>
      <use xlink:href="#DejaVuSans-6f" x="1470.060547"/>
      <use xlink:href="#DejaVuSans-75" x="1531.242188"/>
      <use xlink:href="#DejaVuSans-6e" x="1594.621094"/>
      <use xlink:href="#DejaVuSans-64" x="1658"/>
      <use xlink:href="#DejaVuSans-20" x="1721.476562"/>
      <use xlink:href="#DejaVuSans-6f" x="1753.263672"/>
      <use xlink:href="#DejaVuSans-62" x="1814.445312"/>
      <use xlink:href="#DejaVuSans-6a" x="1877.921875"/>
      <use xlink:href="#DejaVuSans-65" x="1905.705078"/>
      <use xlink:href="#DejaVuSans-63" x="1967.228516"/>
      <use xlink:href="#DejaVuSans-74" x="2022.208984"/>
      <use xlink:href="#DejaVuSans-20" x="2061.417969"/>
      <use xlink:href="#DejaVuSans-65" x="2093.205078"/>
      <use xlink:href="#DejaVuSans-64" x="2154.728516"/>
      <use xlink:href="#DejaVuSans-67" x="2218.205078"/>
      <use xlink:href="#DejaVuSans-65" x="2281.681641"/>
      <use xlink:href="#DejaVuSans-73" x="2343.205078"/>
     </g>
    </g>
   </g>
   <g id="matplotlib.axis_2">
    <g id="ytick_1">
     <g id="line2d_7">
      <defs>
       <path id="mad73aba211" d="M 0 0
L -3.5 0
" style="stroke: #000000; stroke-width: 0.8"/>
      </defs>
      <g>
       <use xlink:href="#mad73aba211" x="43.78125" y="375.899634" style="stroke: #000000; stroke-width: 0.8"/>
      </g>
     </g>
     <g id="text_8">
      <!-- 0.0 -->
      <g transform="translate(20.878125 379.698853) scale(0.1 -0.1)">
       <use xlink:href="#DejaVuSans-30"/>
       <use xlink:href="#DejaVuSans-2e" x="63.623047"/>
       <use xlink:href="#DejaVuSans-30" x="95.410156"/>
      </g>
     </g>
    </g>
    <g id="ytick_2">
     <g id="line2d_8">
      <g>
       <use xlink:href="#mad73aba211" x="43.78125" y="307.243031" style="stroke: #000000; stroke-width: 0.8"/>
      </g>
     </g>
     <g id="text_9">
      <!-- 0.2 -->
      <g transform="translate(20.878125 311.042249) scale(0.1 -0.1)">
       <use xlink:href="#DejaVuSans-30"/>
       <use xlink:href="#DejaVuSans-2e" x="63.623047"/>
       <use xlink:href="#DejaVuSans-32" x="95.410156"/>
      </g>
     </g>
    </g>
    <g id="ytick_3">
     <g id="line2d_9">
      <g>
       <use xlink:href="#mad73aba211" x="43.78125" y="238.586427" style="stroke: #000000; stroke-width: 0.8"/>
      </g>
     </g>
     <g id="text_10">
      <!-- 0.4 -->
      <g transform="translate(20.878125 242.385646) scale(0.1 -0.1)">
       <use xlink:href="#DejaVuSans-30"/>
       <use xlink:href="#DejaVuSans-2e" x="63.623047"/>
       <use xlink:href="#DejaVuSans-34" x="95.410156"/>
      </g>
     </g>
    </g>
    <g id="ytick_4">
     <g id="line2d_10">
      <g>
       <use xlink:href="#mad73aba211" x="43.78125" y="169.929823" style="stroke: #000000; stroke-width: 0.8"/>
      </g>
     </g>
     <g id="text_11">
      <!-- 0.6 -->
      <g transform="translate(20.878125 173.729042) scale(0.1 -0.1)">
       <use xlink:href="#DejaVuSans-30"/>
       <use xlink:href="#DejaVuSans-2e" x="63.623047"/>
       <use xlink:href="#DejaVuSans-36" x="95.410156"/>
      </g>
     </g>
    </g>
    <g id="ytick_5">
     <g id="line2d_11">
      <g>
       <use xlink:href="#mad73aba211" x="43.78125" y="101.273219" style="stroke: #000000; stroke-width: 0.8"/>
      </g>
     </g>
     <g id="text_12">
      <!-- 0.8 -->
      <g transform="translate(20.878125 105.072438) scale(0.1 -0.1)">
       <use xlink:href="#DejaVuSans-30"/>
       <use xlink:href="#DejaVuSans-2e" x="63.623047"/>
       <use xlink:href="#DejaVuSans-38" x="95.410156"/>
      </g>
     </g>
    </g>
    <g id="ytick_6">
     <g id="line2d_12">
      <g>
       <use xlink:href="#mad73aba211" x="43.78125" y="32.616616" style="stroke: #000000; stroke-width: 0.8"/>
      </g>
     </g>
     <g id="text_13">
      <!-- 1.0 -->
      <g transform="translate(20.878125 36.415834) scale(0.1 -0.1)">
       <use xlink:href="#DejaVuSans-31"/>
       <use xlink:href="#DejaVuSans-2e" x="63.623047"/>
       <use xlink:href="#DejaVuSans-30" x="95.410156"/>
      </g>
     </g>
    </g>
    <g id="text_14">
     <!-- Compare/critique share among non-background object edges -->
     <g transform="translate(14.798438 358.009687) rotate(-90) scale(0.1 -0.1)">
      <defs>
       <path id="DejaVuSans-43" d="M 4122 4306
L 4122 3641
Q 3803 3938 3442 4084
Q 3081 4231 2675 4231
Q 1875 4231 1450 3742
Q 1025 3253 1025 2328
Q 1025 1406 1450 917
Q 1875 428 2675 428
Q 3081 428 3442 575
Q 3803 722 4122 1019
L 4122 359
Q 3791 134 3420 21
Q 3050 -91 2638 -91
Q 1578 -91 968 557
Q 359 1206 359 2328
Q 359 3453 968 4101
Q 1578 4750 2638 4750
Q 3056 4750 3426 4639
Q 3797 4528 4122 4306
z
" transform="scale(0.015625)"/>
       <path id="DejaVuSans-70" d="M 1159 525
L 1159 -1331
L 581 -1331
L 581 3500
L 1159 3500
L 1159 2969
Q 1341 3281 1617 3432
Q 1894 3584 2278 3584
Q 2916 3584 3314 3078
Q 3713 2572 3713 1747
Q 3713 922 3314 415
Q 2916 -91 2278 -91
Q 1894 -91 1617 61
Q 1341 213 1159 525
z
M 3116 1747
Q 3116 2381 2855 2742
Q 2594 3103 2138 3103
Q 1681 3103 1420 2742
Q 1159 2381 1159 1747
Q 1159 1113 1420 752
Q 1681 391 2138 391
Q 2594 391 2855 752
Q 3116 1113 3116 1747
z
" transform="scale(0.015625)"/>
       <path id="DejaVuSans-2f" d="M 1625 4666
L 2156 4666
L 531 -594
L 0 -594
L 1625 4666
z
" transform="scale(0.015625)"/>
       <path id="DejaVuSans-69" d="M 603 3500
L 1178 3500
L 1178 0
L 603 0
L 603 3500
z
M 603 4863
L 1178 4863
L 1178 4134
L 603 4134
L 603 4863
z
" transform="scale(0.015625)"/>
       <path id="DejaVuSans-71" d="M 947 1747
Q 947 1113 1208 752
Q 1469 391 1925 391
Q 2381 391 2643 752
Q 2906 1113 2906 1747
Q 2906 2381 2643 2742
Q 2381 3103 1925 3103
Q 1469 3103 1208 2742
Q 947 2381 947 1747
z
M 2906 525
Q 2725 213 2448 61
Q 2172 -91 1784 -91
Q 1150 -91 751 415
Q 353 922 353 1747
Q 353 2572 751 3078
Q 1150 3584 1784 3584
Q 2172 3584 2448 3432
Q 2725 3281 2906 2969
L 2906 3500
L 3481 3500
L 3481 -1331
L 2906 -1331
L 2906 525
z
" transform="scale(0.015625)"/>
      </defs>
      <use xlink:href="#DejaVuSans-43"/>
      <use xlink:href="#DejaVuSans-6f" x="69.824219"/>
      <use xlink:href="#DejaVuSans-6d" x="131.005859"/>
      <use xlink:href="#DejaVuSans-70" x="228.417969"/>
      <use xlink:href="#DejaVuSans-61" x="291.894531"/>
      <use xlink:href="#DejaVuSans-72" x="353.173828"/>
      <use xlink:href="#DejaVuSans-65" x="392.037109"/>
      <use xlink:href="#DejaVuSans-2f" x="453.560547"/>
      <use xlink:href="#DejaVuSans-63" x="487.251953"/>
      <use xlink:href="#DejaVuSans-72" x="542.232422"/>
      <use xlink:href="#DejaVuSans-69" x="583.345703"/>
      <use xlink:href="#DejaVuSans-74" x="611.128906"/>
      <use xlink:href="#DejaVuSans-69" x="650.337891"/>
      <use xlink:href="#DejaVuSans-71" x="678.121094"/>
      <use xlink:href="#DejaVuSans-75" x="741.597656"/>
      <use xlink:href="#DejaVuSans-65" x="804.976562"/>
      <use xlink:href="#DejaVuSans-20" x="866.5"/>
      <use xlink:href="#DejaVuSans-73" x="898.287109"/>
      <use xlink:href="#DejaVuSans-68" x="950.386719"/>
      <use xlink:href="#DejaVuSans-61" x="1013.765625"/>
      <use xlink:href="#DejaVuSans-72" x="1075.044922"/>
      <use xlink:href="#DejaVuSans-65" x="1113.908203"/>
      <use xlink:href="#DejaVuSans-20" x="1175.431641"/>
      <use xlink:href="#DejaVuSans-61" x="1207.21875"/>
      <use xlink:href="#DejaVuSans-6d" x="1268.498047"/>
      <use xlink:href="#DejaVuSans-6f" x="1365.910156"/>
      <use xlink:href="#DejaVuSans-6e" x="1427.091797"/>
      <use xlink:href="#DejaVuSans-67" x="1490.470703"/>
      <use xlink:href="#DejaVuSans-20" x="1553.947266"/>
      <use xlink:href="#DejaVuSans-6e" x="1585.734375"/>
      <use xlink:href="#DejaVuSans-6f" x="1649.113281"/>
      <use xlink:href="#DejaVuSans-6e" x="1710.294922"/>
      <use xlink:href="#DejaVuSans-2d" x="1773.673828"/>
      <use xlink:href="#DejaVuSans-62" x="1809.757812"/>
      <use xlink:href="#DejaVuSans-61" x="1873.234375"/>
      <use xlink:href="#DejaVuSans-63" x="1934.513672"/>
      <use xlink:href="#DejaVuSans-6b" x="1989.494141"/>
      <use xlink:href="#DejaVuSans-67" x="2047.404297"/>
      <use xlink:href="#DejaVuSans-72" x="2110.880859"/>
      <use xlink:href="#DejaVuSans-6f" x="2149.744141"/>
      <use xlink:href="#DejaVuSans-75" x="2210.925781"/>
      <use xlink:href="#DejaVuSans-6e" x="2274.304688"/>
      <use xlink:href="#DejaVuSans-64" x="2337.683594"/>
      <use xlink:href="#DejaVuSans-20" x="2401.160156"/>
      <use xlink:href="#DejaVuSans-6f" x="2432.947266"/>
      <use xlink:href="#DejaVuSans-62" x="2494.128906"/>
      <use xlink:href="#DejaVuSans-6a" x="2557.605469"/>
      <use xlink:href="#DejaVuSans-65" x="2585.388672"/>
      <use xlink:href="#DejaVuSans-63" x="2646.912109"/>
      <use xlink:href="#DejaVuSans-74" x="2701.892578"/>
      <use xlink:href="#DejaVuSans-20" x="2741.101562"/>
      <use xlink:href="#DejaVuSans-65" x="2772.888672"/>
      <use xlink:href="#DejaVuSans-64" x="2834.412109"/>
      <use xlink:href="#DejaVuSans-67" x="2897.888672"/>
      <use xlink:href="#DejaVuSans-65" x="2961.365234"/>
      <use xlink:href="#DejaVuSans-73" x="3022.888672"/>
     </g>
    </g>
   </g>
   <g id="line2d_13">
    <path d="M 359.466564 386.198125
L 359.466564 22.318125
" clip-path="url(#p4e5a1a977c)" style="fill: none; stroke-dasharray: 3.7,1.6; stroke-dashoffset: 0; stroke: #bfbfbf"/>
   </g>
   <g id="line2d_14">
    <path d="M 43.78125 268.225703
L 561.21625 268.225703
" clip-path="url(#p4e5a1a977c)" style="fill: none; stroke-dasharray: 3.7,1.6; stroke-dashoffset: 0; stroke: #bfbfbf"/>
   </g>
   <g id="patch_3">
    <path d="M 43.78125 386.198125
L 43.78125 22.318125
" style="fill: none; stroke: #000000; stroke-width: 0.8; stroke-linejoin: miter; stroke-linecap: square"/>
   </g>
   <g id="patch_4">
    <path d="M 561.21625 386.198125
L 561.21625 22.318125
" style="fill: none; stroke: #000000; stroke-width: 0.8; stroke-linejoin: miter; stroke-linecap: square"/>
   </g>
   <g id="patch_5">
    <path d="M 43.78125 386.198125
L 561.21625 386.198125
" style="fill: none; stroke: #000000; stroke-width: 0.8; stroke-linejoin: miter; stroke-linecap: square"/>
   </g>
   <g id="patch_6">
    <path d="M 43.78125 22.318125
L 561.21625 22.318125
" style="fill: none; stroke: #000000; stroke-width: 0.8; stroke-linejoin: miter; stroke-linecap: square"/>
   </g>
   <g id="text_15">
    <!-- BERT -->
    <g transform="translate(310.693647 234.429093) scale(0.08 -0.08)">
     <defs>
      <path id="DejaVuSans-42" d="M 1259 2228
L 1259 519
L 2272 519
Q 2781 519 3026 730
Q 3272 941 3272 1375
Q 3272 1813 3026 2020
Q 2781 2228 2272 2228
L 1259 2228
z
M 1259 4147
L 1259 2741
L 2194 2741
Q 2656 2741 2882 2914
Q 3109 3088 3109 3444
Q 3109 3797 2882 3972
Q 2656 4147 2194 4147
L 1259 4147
z
M 628 4666
L 2241 4666
Q 2963 4666 3353 4366
Q 3744 4066 3744 3513
Q 3744 3084 3544 2831
Q 3344 2578 2956 2516
Q 3422 2416 3680 2098
Q 3938 1781 3938 1306
Q 3938 681 3513 340
Q 3088 0 2303 0
L 628 0
L 628 4666
z
" transform="scale(0.015625)"/>
      <path id="DejaVuSans-45" d="M 628 4666
L 3578 4666
L 3578 4134
L 1259 4134
L 1259 2753
L 3481 2753
L 3481 2222
L 1259 2222
L 1259 531
L 3634 531
L 3634 0
L 628 0
L 628 4666
z
" transform="scale(0.015625)"/>
      <path id="DejaVuSans-52" d="M 2841 2188
Q 3044 2119 3236 1894
Q 3428 1669 3622 1275
L 4263 0
L 3584 0
L 2988 1197
Q 2756 1666 2539 1819
Q 2322 1972 1947 1972
L 1259 1972
L 1259 0
L 628 0
L 628 4666
L 2053 4666
Q 2853 4666 3247 4331
Q 3641 3997 3641 3322
Q 3641 2881 3436 2590
Q 3231 2300 2841 2188
z
M 1259 4147
L 1259 2491
L 2053 2491
Q 2509 2491 2742 2702
Q 2975 2913 2975 3322
Q 2975 3731 2742 3939
Q 2509 4147 2053 4147
L 1259 4147
z
" transform="scale(0.015625)"/>
      <path id="DejaVuSans-54" d="M -19 4666
L 3928 4666
L 3928 4134
L 2272 4134
L 2272 0
L 1638 0
L 1638 4134
L -19 4134
L -19 4666
z
" transform="scale(0.015625)"/>
     </defs>
     <use xlink:href="#DejaVuSans-42"/>
     <use xlink:href="#DejaVuSans-45" x="68.603516"/>
     <use xlink:href="#DejaVuSans-52" x="131.787109"/>
     <use xlink:href="#DejaVuSans-54" x="194.019531"/>
    </g>
   </g>
   <g id="text_16">
    <!-- BLEU -->
    <g transform="translate(350.397428 244.49755) scale(0.08 -0.08)">
     <defs>
      <path id="DejaVuSans-4c" d="M 628 4666
L 1259 4666
L 1259 531
L 3531 531
L 3531 0
L 628 0
L 628 4666
z
" transform="scale(0.015625)"/>
     </defs>
     <use xlink:href="#DejaVuSans-42"/>
     <use xlink:href="#DejaVuSans-4c" x="68.603516"/>
     <use xlink:href="#DejaVuSans-45" x="124.316406"/>
     <use xlink:href="#DejaVuSans-55" x="187.5"/>
    </g>
   </g>
   <g id="text_17">
    <!-- LSTM -->
    <g transform="translate(278.885953 217.481375) scale(0.08 -0.08)">
     <defs>
      <path id="DejaVuSans-53" d="M 3425 4513
L 3425 3897
Q 3066 4069 2747 4153
Q 2428 4238 2131 4238
Q 1616 4238 1336 4038
Q 1056 3838 1056 3469
Q 1056 3159 1242 3001
Q 1428 2844 1947 2747
L 2328 2669
Q 3034 2534 3370 2195
Q 3706 1856 3706 1288
Q 3706 609 3251 259
Q 2797 -91 1919 -91
Q 1588 -91 1214 -16
Q 841 59 441 206
L 441 856
Q 825 641 1194 531
Q 1563 422 1919 422
Q 2459 422 2753 634
Q 3047 847 3047 1241
Q 3047 1584 2836 1778
Q 2625 1972 2144 2069
L 1759 2144
Q 1053 2284 737 2584
Q 422 2884 422 3419
Q 422 4038 858 4394
Q 1294 4750 2059 4750
Q 2388 4750 2728 4690
Q 3069 4631 3425 4513
z
" transform="scale(0.015625)"/>
      <path id="DejaVuSans-4d" d="M 628 4666
L 1569 4666
L 2759 1491
L 3956 4666
L 4897 4666
L 4897 0
L 4281 0
L 4281 4097
L 3078 897
L 2444 897
L 1241 4097
L 1241 0
L 628 0
L 628 4666
z
" transform="scale(0.015625)"/>
     </defs>
     <use xlink:href="#DejaVuSans-4c"/>
     <use xlink:href="#DejaVuSans-53" x="55.712891"/>
     <use xlink:href="#DejaVuSans-54" x="119.189453"/>
     <use xlink:href="#DejaVuSans-4d" x="180.273438"/>
    </g>
   </g>
   <g id="text_18">
    <!-- Transformer -->
    <g transform="translate(335.869969 251.95592) scale(0.08 -0.08)">
     <defs>
      <path id="DejaVuSans-66" d="M 2375 4863
L 2375 4384
L 1825 4384
Q 1516 4384 1395 4259
Q 1275 4134 1275 3809
L 1275 3500
L 2222 3500
L 2222 3053
L 1275 3053
L 1275 0
L 697 0
L 697 3053
L 147 3053
L 147 3500
L 697 3500
L 697 3744
Q 697 4328 969 4595
Q 1241 4863 1831 4863
L 2375 4863
z
" transform="scale(0.015625)"/>
     </defs>
     <use xlink:href="#DejaVuSans-54"/>
     <use xlink:href="#DejaVuSans-72" x="46.333984"/>
     <use xlink:href="#DejaVuSans-61" x="87.447266"/>
     <use xlink:href="#DejaVuSans-6e" x="148.726562"/>
     <use xlink:href="#DejaVuSans-73" x="212.105469"/>
     <use xlink:href="#DejaVuSans-66" x="264.205078"/>
     <use xlink:href="#DejaVuSans-6f" x="299.410156"/>
     <use xlink:href="#DejaVuSans-72" x="360.591797"/>
     <use xlink:href="#DejaVuSans-6d" x="399.955078"/>
     <use xlink:href="#DejaVuSans-65" x="497.367188"/>
     <use xlink:href="#DejaVuSans-72" x="558.890625"/>
    </g>
   </g>
   <g id="text_19">
    <!-- GloVe -->
    <g transform="translate(434.186445 301.87673) scale(0.08 -0.08)">
     <defs>
      <path id="DejaVuSans-47" d="M 3809 666
L 3809 1919
L 2778 1919
L 2778 2438
L 4434 2438
L 4434 434
Q 4069 175 3628 42
Q 3188 -91 2688 -91
Q 1594 -91 976 548
Q 359 1188 359 2328
Q 359 3472 976 4111
Q 1594 4750 2688 4750
Q 3144 4750 3555 4637
Q 3966 4525 4313 4306
L 4313 3634
Q 3963 3931 3569 4081
Q 3175 4231 2741 4231
Q 1884 4231 1454 3753
Q 1025 3275 1025 2328
Q 1025 1384 1454 906
Q 1884 428 2741 428
Q 3075 428 3337 486
Q 3600 544 3809 666
z
" transform="scale(0.015625)"/>
      <path id="DejaVuSans-6c" d="M 603 4863
L 1178 4863
L 1178 0
L 603 0
L 603 4863
z
" transform="scale(0.015625)"/>
      <path id="DejaVuSans-56" d="M 1831 0
L 50 4666
L 709 4666
L 2188 738
L 3669 4666
L 4325 4666
L 2547 0
L 1831 0
z
" transform="scale(0.015625)"/>
     </defs>
     <use xlink:href="#DejaVuSans-47"/>
     <use xlink:href="#DejaVuSans-6c" x="77.490234"/>
     <use xlink:href="#DejaVuSans-6f" x="105.273438"/>
     <use xlink:href="#DejaVuSans-56" x="166.455078"/>
     <use xlink:href="#DejaVuSans-65" x="227.113281"/>
    </g>
   </g>
   <g id="text_20">
    <!-- Moses -->
    <g transform="translate(456.158446 312.462963) scale(0.08 -0.08)">
     <use xlink:href="#DejaVuSans-4d"/>
     <use xlink:href="#DejaVuSans-6f" x="86.279297"/>
     <use xlink:href="#DejaVuSans-73" x="147.460938"/>
     <use xlink:href="#DejaVuSans-65" x="199.560547"/>
     <use xlink:href="#DejaVuSans-73" x="261.083984"/>
    </g>
   </g>
   <g id="text_21">
    <!-- CRF -->
    <g transform="translate(284.412725 228.310338) scale(0.08 -0.08)">
     <defs>
      <path id="DejaVuSans-46" d="M 628 4666
L 3309 4666
L 3309 4134
L 1259 4134
L 1259 2759
L 3109 2759
L 3109 2228
L 1259 2228
L 1259 0
L 628 0
L 628 4666
z
" transform="scale(0.015625)"/>
     </defs>
     <use xlink:href="#DejaVuSans-43"/>
     <use xlink:href="#DejaVuSans-52" x="69.824219"/>
     <use xlink:href="#DejaVuSans-46" x="139.306641"/>
    </g>
   </g>
   <g id="text_22">
    <!-- ROUGE -->
    <g transform="translate(376.391163 258.116988) scale(0.08 -0.08)">
     <defs>
      <path id="DejaVuSans-4f" d="M 2522 4238
Q 1834 4238 1429 3725
Q 1025 3213 1025 2328
Q 1025 1447 1429 934
Q 1834 422 2522 422
Q 3209 422 3611 934
Q 4013 1447 4013 2328
Q 4013 3213 3611 3725
Q 3209 4238 2522 4238
z
M 2522 4750
Q 3503 4750 4090 4092
Q 4678 3434 4678 2328
Q 4678 1225 4090 567
Q 3503 -91 2522 -91
Q 1538 -91 948 565
Q 359 1222 359 2328
Q 359 3434 948 4092
Q 1538 4750 2522 4750
z
" transform="scale(0.015625)"/>
     </defs>
     <use xlink:href="#DejaVuSans-52"/>
     <use xlink:href="#DejaVuSans-4f" x="69.482422"/>
     <use xlink:href="#DejaVuSans-55" x="148.193359"/>
     <use xlink:href="#DejaVuSans-47" x="221.386719"/>
     <use xlink:href="#DejaVuSans-45" x="298.876953"/>
    </g>
   </g>
   <g id="text_23">
    <!-- WordNet -->
    <g transform="translate(311.473489 249.892039) scale(0.08 -0.08)">
     <defs>
      <path id="DejaVuSans-57" d="M 213 4666
L 850 4666
L 1831 722
L 2809 4666
L 3519 4666
L 4500 722
L 5478 4666
L 6119 4666
L 4947 0
L 4153 0
L 3169 4050
L 2175 0
L 1381 0
L 213 4666
z
" transform="scale(0.015625)"/>
      <path id="DejaVuSans-4e" d="M 628 4666
L 1478 4666
L 3547 763
L 3547 4666
L 4159 4666
L 4159 0
L 3309 0
L 1241 3903
L 1241 0
L 628 0
L 628 4666
z
" transform="scale(0.015625)"/>
     </defs>
     <use xlink:href="#DejaVuSans-57"/>
     <use xlink:href="#DejaVuSans-6f" x="93.001953"/>
     <use xlink:href="#DejaVuSans-72" x="154.183594"/>
     <use xlink:href="#DejaVuSans-64" x="193.546875"/>
     <use xlink:href="#DejaVuSans-4e" x="257.023438"/>
     <use xlink:href="#DejaVuSans-65" x="331.828125"/>
     <use xlink:href="#DejaVuSans-74" x="393.351562"/>
    </g>
   </g>
   <g id="text_24">
    <!-- GIZA++ -->
    <g transform="translate(449.198515 310.297472) scale(0.08 -0.08)">
     <defs>
      <path id="DejaVuSans-49" d="M 628 4666
L 1259 4666
L 1259 0
L 628 0
L 628 4666
z
" transform="scale(0.015625)"/>
      <path id="DejaVuSans-5a" d="M 359 4666
L 4025 4666
L 4025 4184
L 1075 531
L 4097 531
L 4097 0
L 288 0
L 288 481
L 3238 4134
L 359 4134
L 359 4666
z
" transform="scale(0.015625)"/>
      <path id="DejaVuSans-41" d="M 2188 4044
L 1331 1722
L 3047 1722
L 2188 4044
z
M 1831 4666
L 2547 4666
L 4325 0
L 3669 0
L 3244 1197
L 1141 1197
L 716 0
L 50 0
L 1831 4666
z
" transform="scale(0.015625)"/>
      <path id="DejaVuSans-2b" d="M 2944 4013
L 2944 2272
L 4684 2272
L 4684 1741
L 2944 1741
L 2944 0
L 2419 0
L 2419 1741
L 678 1741
L 678 2272
L 2419 2272
L 2419 4013
L 2944 4013
z
" transform="scale(0.015625)"/>
     </defs>
     <use xlink:href="#DejaVuSans-47"/>
     <use xlink:href="#DejaVuSans-49" x="77.490234"/>
     <use xlink:href="#DejaVuSans-5a" x="106.982422"/>
     <use xlink:href="#DejaVuSans-41" x="175.488281"/>
     <use xlink:href="#DejaVuSans-2b" x="243.896484"/>
     <use xlink:href="#DejaVuSans-2b" x="327.685547"/>
    </g>
   </g>
   <g id="text_25">
    <!-- Penn Treebank -->
    <g transform="translate(409.369595 295.419488) scale(0.08 -0.08)">
     <defs>
      <path id="DejaVuSans-50" d="M 1259 4147
L 1259 2394
L 2053 2394
Q 2494 2394 2734 2622
Q 2975 2850 2975 3272
Q 2975 3691 2734 3919
Q 2494 4147 2053 4147
L 1259 4147
z
M 628 4666
L 2053 4666
Q 2838 4666 3239 4311
Q 3641 3956 3641 3272
Q 3641 2581 3239 2228
Q 2838 1875 2053 1875
L 1259 1875
L 1259 0
L 628 0
L 628 4666
z
" transform="scale(0.015625)"/>
     </defs>
     <use xlink:href="#DejaVuSans-50"/>
     <use xlink:href="#DejaVuSans-65" x="56.677734"/>
     <use xlink:href="#DejaVuSans-6e" x="118.201172"/>
     <use xlink:href="#DejaVuSans-6e" x="181.580078"/>
     <use xlink:href="#DejaVuSans-20" x="244.958984"/>
     <use xlink:href="#DejaVuSans-54" x="276.746094"/>
     <use xlink:href="#DejaVuSans-72" x="323.080078"/>
     <use xlink:href="#DejaVuSans-65" x="361.943359"/>
     <use xlink:href="#DejaVuSans-65" x="423.466797"/>
     <use xlink:href="#DejaVuSans-62" x="484.990234"/>
     <use xlink:href="#DejaVuSans-61" x="548.466797"/>
     <use xlink:href="#DejaVuSans-6e" x="609.746094"/>
     <use xlink:href="#DejaVuSans-6b" x="673.125"/>
    </g>
   </g>
   <g id="text_26">
    <!-- SemEval -->
    <g transform="translate(318.804957 233.721008) scale(0.08 -0.08)">
     <defs>
      <path id="DejaVuSans-76" d="M 191 3500
L 800 3500
L 1894 563
L 2988 3500
L 3597 3500
L 2284 0
L 1503 0
L 191 3500
z
" transform="scale(0.015625)"/>
     </defs>
     <use xlink:href="#DejaVuSans-53"/>
     <use xlink:href="#DejaVuSans-65" x="63.476562"/>
     <use xlink:href="#DejaVuSans-6d" x="125"/>
     <use xlink:href="#DejaVuSans-45" x="222.412109"/>
     <use xlink:href="#DejaVuSans-76" x="285.595703"/>
     <use xlink:href="#DejaVuSans-61" x="344.775391"/>
     <use xlink:href="#DejaVuSans-6c" x="406.054688"/>
    </g>
   </g>
   <g id="text_27">
    <!-- Seed-registry objects occupy distinct citation-use roles -->
    <g transform="translate(137.920625 16.318125) scale(0.12 -0.12)">
     <defs>
      <path id="DejaVuSans-79" d="M 2059 -325
Q 1816 -950 1584 -1140
Q 1353 -1331 966 -1331
L 506 -1331
L 506 -850
L 844 -850
Q 1081 -850 1212 -737
Q 1344 -625 1503 -206
L 1606 56
L 191 3500
L 800 3500
L 1894 763
L 2988 3500
L 3597 3500
L 2059 -325
z
" transform="scale(0.015625)"/>
     </defs>
     <use xlink:href="#DejaVuSans-53"/>
     <use xlink:href="#DejaVuSans-65" x="63.476562"/>
     <use xlink:href="#DejaVuSans-65" x="125"/>
     <use xlink:href="#DejaVuSans-64" x="186.523438"/>
     <use xlink:href="#DejaVuSans-2d" x="250"/>
     <use xlink:href="#DejaVuSans-72" x="286.083984"/>
     <use xlink:href="#DejaVuSans-65" x="324.947266"/>
     <use xlink:href="#DejaVuSans-67" x="386.470703"/>
     <use xlink:href="#DejaVuSans-69" x="449.947266"/>
     <use xlink:href="#DejaVuSans-73" x="477.730469"/>
     <use xlink:href="#DejaVuSans-74" x="529.830078"/>
     <use xlink:href="#DejaVuSans-72" x="569.039062"/>
     <use xlink:href="#DejaVuSans-79" x="610.152344"/>
     <use xlink:href="#DejaVuSans-20" x="669.332031"/>
     <use xlink:href="#DejaVuSans-6f" x="701.119141"/>
     <use xlink:href="#DejaVuSans-62" x="762.300781"/>
     <use xlink:href="#DejaVuSans-6a" x="825.777344"/>
     <use xlink:href="#DejaVuSans-65" x="853.560547"/>
     <use xlink:href="#DejaVuSans-63" x="915.083984"/>
     <use xlink:href="#DejaVuSans-74" x="970.064453"/>
     <use xlink:href="#DejaVuSans-73" x="1009.273438"/>
     <use xlink:href="#DejaVuSans-20" x="1061.373047"/>
     <use xlink:href="#DejaVuSans-6f" x="1093.160156"/>
     <use xlink:href="#DejaVuSans-63" x="1154.341797"/>
     <use xlink:href="#DejaVuSans-63" x="1209.322266"/>
     <use xlink:href="#DejaVuSans-75" x="1264.302734"/>
     <use xlink:href="#DejaVuSans-70" x="1327.681641"/>
     <use xlink:href="#DejaVuSans-79" x="1391.158203"/>
     <use xlink:href="#DejaVuSans-20" x="1450.337891"/>
     <use xlink:href="#DejaVuSans-64" x="1482.125"/>
     <use xlink:href="#DejaVuSans-69" x="1545.601562"/>
     <use xlink:href="#DejaVuSans-73" x="1573.384766"/>
     <use xlink:href="#DejaVuSans-74" x="1625.484375"/>
     <use xlink:href="#DejaVuSans-69" x="1664.693359"/>
     <use xlink:href="#DejaVuSans-6e" x="1692.476562"/>
     <use xlink:href="#DejaVuSans-63" x="1755.855469"/>
     <use xlink:href="#DejaVuSans-74" x="1810.835938"/>
     <use xlink:href="#DejaVuSans-20" x="1850.044922"/>
     <use xlink:href="#DejaVuSans-63" x="1881.832031"/>
     <use xlink:href="#DejaVuSans-69" x="1936.8125"/>
     <use xlink:href="#DejaVuSans-74" x="1964.595703"/>
     <use xlink:href="#DejaVuSans-61" x="2003.804688"/>
     <use xlink:href="#DejaVuSans-74" x="2065.083984"/>
     <use xlink:href="#DejaVuSans-69" x="2104.292969"/>
     <use xlink:href="#DejaVuSans-6f" x="2132.076172"/>
     <use xlink:href="#DejaVuSans-6e" x="2193.257812"/>
     <use xlink:href="#DejaVuSans-2d" x="2256.636719"/>
     <use xlink:href="#DejaVuSans-75" x="2292.720703"/>
     <use xlink:href="#DejaVuSans-73" x="2356.099609"/>
     <use xlink:href="#DejaVuSans-65" x="2408.199219"/>
     <use xlink:href="#DejaVuSans-20" x="2469.722656"/>
     <use xlink:href="#DejaVuSans-72" x="2501.509766"/>
     <use xlink:href="#DejaVuSans-6f" x="2540.373047"/>
     <use xlink:href="#DejaVuSans-6c" x="2601.554688"/>
     <use xlink:href="#DejaVuSans-65" x="2629.337891"/>
     <use xlink:href="#DejaVuSans-73" x="2690.861328"/>
    </g>
   </g>
   <g id="legend_1">
    <g id="patch_7">
     <path d="M 436.04625 113.51875
L 555.61625 113.51875
Q 557.21625 113.51875 557.21625 111.91875
L 557.21625 27.918125
Q 557.21625 26.318125 555.61625 26.318125
L 436.04625 26.318125
Q 434.44625 26.318125 434.44625 27.918125
L 434.44625 111.91875
Q 434.44625 113.51875 436.04625 113.51875
z
" style="fill: #ffffff; opacity: 0.8; stroke: #cccccc; stroke-linejoin: miter"/>
    </g>
    <g id="text_28">
     <!-- Object type -->
     <g transform="translate(466.786719 37.116562) scale(0.1 -0.1)">
      <use xlink:href="#DejaVuSans-4f"/>
      <use xlink:href="#DejaVuSans-62" x="78.710938"/>
      <use xlink:href="#DejaVuSans-6a" x="142.1875"/>
      <use xlink:href="#DejaVuSans-65" x="169.970703"/>
      <use xlink:href="#DejaVuSans-63" x="231.494141"/>
      <use xlink:href="#DejaVuSans-74" x="286.474609"/>
      <use xlink:href="#DejaVuSans-20" x="325.683594"/>
      <use xlink:href="#DejaVuSans-74" x="357.470703"/>
      <use xlink:href="#DejaVuSans-79" x="396.679688"/>
      <use xlink:href="#DejaVuSans-70" x="455.859375"/>
      <use xlink:href="#DejaVuSans-65" x="519.335938"/>
     </g>
    </g>
    <g id="PathCollection_7">
     <defs>
      <path id="md94220abb3" d="M 0 7.484718
C 1.984971 7.484718 3.888909 6.696081 5.292495 5.292495
C 6.696081 3.888909 7.484718 1.984971 7.484718 0
C 7.484718 -1.984971 6.696081 -3.888909 5.292495 -5.292495
C 3.888909 -6.696081 1.984971 -7.484718 0 -7.484718
C -1.984971 -7.484718 -3.888909 -6.696081 -5.292495 -5.292495
C -6.696081 -3.888909 -7.484718 -1.984971 -7.484718 0
C -7.484718 1.984971 -6.696081 3.888909 -5.292495 5.292495
C -3.888909 6.696081 -1.984971 7.484718 0 7.484718
z
" style="stroke: #ffffff; stroke-opacity: 0.72; stroke-width: 0.6"/>
     </defs>
     <g>
      <use xlink:href="#md94220abb3" x="445.64625" y="47.175" style="fill: #1f77b4; fill-opacity: 0.72; stroke: #ffffff; stroke-opacity: 0.72; stroke-width: 0.6"/>
     </g>
    </g>
    <g id="text_29">
     <!-- benchmark_or_protocol -->
     <g transform="translate(460.04625 49.275) scale(0.08 -0.08)">
      <defs>
       <path id="DejaVuSans-5f" d="M 3263 -1063
L 3263 -1509
L -63 -1509
L -63 -1063
L 3263 -1063
z
" transform="scale(0.015625)"/>
      </defs>
      <use xlink:href="#DejaVuSans-62"/>
      <use xlink:href="#DejaVuSans-65" x="63.476562"/>
      <use xlink:href="#DejaVuSans-6e" x="125"/>
      <use xlink:href="#DejaVuSans-63" x="188.378906"/>
      <use xlink:href="#DejaVuSans-68" x="243.359375"/>
      <use xlink:href="#DejaVuSans-6d" x="306.738281"/>
      <use xlink:href="#DejaVuSans-61" x="404.150391"/>
      <use xlink:href="#DejaVuSans-72" x="465.429688"/>
      <use xlink:href="#DejaVuSans-6b" x="506.542969"/>
      <use xlink:href="#DejaVuSans-5f" x="564.453125"/>
      <use xlink:href="#DejaVuSans-6f" x="614.453125"/>
      <use xlink:href="#DejaVuSans-72" x="675.634766"/>
      <use xlink:href="#DejaVuSans-5f" x="716.748047"/>
      <use xlink:href="#DejaVuSans-70" x="766.748047"/>
      <use xlink:href="#DejaVuSans-72" x="830.224609"/>
      <use xlink:href="#DejaVuSans-6f" x="869.087891"/>
      <use xlink:href="#DejaVuSans-74" x="930.269531"/>
      <use xlink:href="#DejaVuSans-6f" x="969.478516"/>
      <use xlink:href="#DejaVuSans-63" x="1030.660156"/>
      <use xlink:href="#DejaVuSans-6f" x="1085.640625"/>
      <use xlink:href="#DejaVuSans-6c" x="1146.822266"/>
     </g>
    </g>
    <g id="PathCollection_8">
     <defs>
      <path id="m8bdbfea3dd" d="M 0 7.700608
C 2.042225 7.700608 4.001081 6.889223 5.445152 5.445152
C 6.889223 4.001081 7.700608 2.042225 7.700608 0
C 7.700608 -2.042225 6.889223 -4.001081 5.445152 -5.445152
C 4.001081 -6.889223 2.042225 -7.700608 0 -7.700608
C -2.042225 -7.700608 -4.001081 -6.889223 -5.445152 -5.445152
C -6.889223 -4.001081 -7.700608 -2.042225 -7.700608 0
C -7.700608 2.042225 -6.889223 4.001081 -5.445152 5.445152
C -4.001081 6.889223 -2.042225 7.700608 0 7.700608
z
" style="stroke: #ffffff; stroke-opacity: 0.72; stroke-width: 0.6"/>
     </defs>
     <g>
      <use xlink:href="#m8bdbfea3dd" x="445.64625" y="59.14" style="fill: #ff7f0e; fill-opacity: 0.72; stroke: #ffffff; stroke-opacity: 0.72; stroke-width: 0.6"/>
     </g>
    </g>
    <g id="text_30">
     <!-- dataset_or_database -->
     <g transform="translate(460.04625 61.24) scale(0.08 -0.08)">
      <use xlink:href="#DejaVuSans-64"/>
      <use xlink:href="#DejaVuSans-61" x="63.476562"/>
      <use xlink:href="#DejaVuSans-74" x="124.755859"/>
      <use xlink:href="#DejaVuSans-61" x="163.964844"/>
      <use xlink:href="#DejaVuSans-73" x="225.244141"/>
      <use xlink:href="#DejaVuSans-65" x="277.34375"/>
      <use xlink:href="#DejaVuSans-74" x="338.867188"/>
      <use xlink:href="#DejaVuSans-5f" x="378.076172"/>
      <use xlink:href="#DejaVuSans-6f" x="428.076172"/>
      <use xlink:href="#DejaVuSans-72" x="489.257812"/>
      <use xlink:href="#DejaVuSans-5f" x="530.371094"/>
      <use xlink:href="#DejaVuSans-64" x="580.371094"/>
      <use xlink:href="#DejaVuSans-61" x="643.847656"/>
      <use xlink:href="#DejaVuSans-74" x="705.126953"/>
      <use xlink:href="#DejaVuSans-61" x="744.335938"/>
      <use xlink:href="#DejaVuSans-62" x="805.615234"/>
      <use xlink:href="#DejaVuSans-61" x="869.091797"/>
      <use xlink:href="#DejaVuSans-73" x="930.371094"/>
      <use xlink:href="#DejaVuSans-65" x="982.470703"/>
     </g>
    </g>
    <g id="PathCollection_9">
     <defs>
      <path id="m22aab96020" d="M 0 8.629412
C 2.288547 8.629412 4.483669 7.720163 6.101916 6.101916
C 7.720163 4.483669 8.629412 2.288547 8.629412 0
C 8.629412 -2.288547 7.720163 -4.483669 6.101916 -6.101916
C 4.483669 -7.720163 2.288547 -8.629412 0 -8.629412
C -2.288547 -8.629412 -4.483669 -7.720163 -6.101916 -6.101916
C -7.720163 -4.483669 -8.629412 -2.288547 -8.629412 0
C -8.629412 2.288547 -7.720163 4.483669 -6.101916 6.101916
C -4.483669 7.720163 -2.288547 8.629412 0 8.629412
z
" style="stroke: #ffffff; stroke-opacity: 0.72; stroke-width: 0.6"/>
     </defs>
     <g>
      <use xlink:href="#m22aab96020" x="445.64625" y="71.105" style="fill: #2ca02c; fill-opacity: 0.72; stroke: #ffffff; stroke-opacity: 0.72; stroke-width: 0.6"/>
     </g>
    </g>
    <g id="text_31">
     <!-- method -->
     <g transform="translate(460.04625 73.205) scale(0.08 -0.08)">
      <use xlink:href="#DejaVuSans-6d"/>
      <use xlink:href="#DejaVuSans-65" x="97.412109"/>
      <use xlink:href="#DejaVuSans-74" x="158.935547"/>
      <use xlink:href="#DejaVuSans-68" x="198.144531"/>
      <use xlink:href="#DejaVuSans-6f" x="261.523438"/>
      <use xlink:href="#DejaVuSans-64" x="322.705078"/>
     </g>
    </g>
    <g id="PathCollection_10">
     <defs>
      <path id="m2a67d9b806" d="M 0 8.041562
C 2.132647 8.041562 4.178234 7.194253 5.686243 5.686243
C 7.194253 4.178234 8.041562 2.132647 8.041562 0
C 8.041562 -2.132647 7.194253 -4.178234 5.686243 -5.686243
C 4.178234 -7.194253 2.132647 -8.041562 0 -8.041562
C -2.132647 -8.041562 -4.178234 -7.194253 -5.686243 -5.686243
C -7.194253 -4.178234 -8.041562 -2.132647 -8.041562 0
C -8.041562 2.132647 -7.194253 4.178234 -5.686243 5.686243
C -4.178234 7.194253 -2.132647 8.041562 0 8.041562
z
" style="stroke: #ffffff; stroke-opacity: 0.72; stroke-width: 0.6"/>
     </defs>
     <g>
      <use xlink:href="#m2a67d9b806" x="445.64625" y="82.8475" style="fill: #d62728; fill-opacity: 0.72; stroke: #ffffff; stroke-opacity: 0.72; stroke-width: 0.6"/>
     </g>
    </g>
    <g id="text_32">
     <!-- metric -->
     <g transform="translate(460.04625 84.9475) scale(0.08 -0.08)">
      <use xlink:href="#DejaVuSans-6d"/>
      <use xlink:href="#DejaVuSans-65" x="97.412109"/>
      <use xlink:href="#DejaVuSans-74" x="158.935547"/>
      <use xlink:href="#DejaVuSans-72" x="198.144531"/>
      <use xlink:href="#DejaVuSans-69" x="239.257812"/>
      <use xlink:href="#DejaVuSans-63" x="267.041016"/>
     </g>
    </g>
    <g id="PathCollection_11">
     <defs>
      <path id="m0ad77e5844" d="M 0 7.817288
C 2.073169 7.817288 4.061706 6.99361 5.527658 5.527658
C 6.99361 4.061706 7.817288 2.073169 7.817288 0
C 7.817288 -2.073169 6.99361 -4.061706 5.527658 -5.527658
C 4.061706 -6.99361 2.073169 -7.817288 0 -7.817288
C -2.073169 -7.817288 -4.061706 -6.99361 -5.527658 -5.527658
C -6.99361 -4.061706 -7.817288 -2.073169 -7.817288 0
C -7.817288 2.073169 -6.99361 4.061706 -5.527658 5.527658
C -4.061706 6.99361 -2.073169 7.817288 0 7.817288
z
" style="stroke: #ffffff; stroke-opacity: 0.72; stroke-width: 0.6"/>
     </defs>
     <g>
      <use xlink:href="#m0ad77e5844" x="445.64625" y="94.59" style="fill: #9467bd; fill-opacity: 0.72; stroke: #ffffff; stroke-opacity: 0.72; stroke-width: 0.6"/>
     </g>
    </g>
    <g id="text_33">
     <!-- model -->
     <g transform="translate(460.04625 96.69) scale(0.08 -0.08)">
      <use xlink:href="#DejaVuSans-6d"/>
      <use xlink:href="#DejaVuSans-6f" x="97.412109"/>
      <use xlink:href="#DejaVuSans-64" x="158.59375"/>
      <use xlink:href="#DejaVuSans-65" x="222.070312"/>
      <use xlink:href="#DejaVuSans-6c" x="283.59375"/>
     </g>
    </g>
    <g id="PathCollection_12">
     <defs>
      <path id="m9ba490910f" d="M 0 7.654518
C 2.030002 7.654518 3.977133 6.847989 5.412561 5.412561
C 6.847989 3.977133 7.654518 2.030002 7.654518 0
C 7.654518 -2.030002 6.847989 -3.977133 5.412561 -5.412561
C 3.977133 -6.847989 2.030002 -7.654518 0 -7.654518
C -2.030002 -7.654518 -3.977133 -6.847989 -5.412561 -5.412561
C -6.847989 -3.977133 -7.654518 -2.030002 -7.654518 0
C -7.654518 2.030002 -6.847989 3.977133 -5.412561 5.412561
C -3.977133 6.847989 -2.030002 7.654518 0 7.654518
z
" style="stroke: #ffffff; stroke-opacity: 0.72; stroke-width: 0.6"/>
     </defs>
     <g>
      <use xlink:href="#m9ba490910f" x="445.64625" y="106.3325" style="fill: #8c564b; fill-opacity: 0.72; stroke: #ffffff; stroke-opacity: 0.72; stroke-width: 0.6"/>
     </g>
    </g>
    <g id="text_34">
     <!-- software_or_tool -->
     <g transform="translate(460.04625 108.4325) scale(0.08 -0.08)">
      <defs>
       <path id="DejaVuSans-77" d="M 269 3500
L 844 3500
L 1563 769
L 2278 3500
L 2956 3500
L 3675 769
L 4391 3500
L 4966 3500
L 4050 0
L 3372 0
L 2619 2869
L 1863 0
L 1184 0
L 269 3500
z
" transform="scale(0.015625)"/>
      </defs>
      <use xlink:href="#DejaVuSans-73"/>
      <use xlink:href="#DejaVuSans-6f" x="52.099609"/>
      <use xlink:href="#DejaVuSans-66" x="113.28125"/>
      <use xlink:href="#DejaVuSans-74" x="146.736328"/>
      <use xlink:href="#DejaVuSans-77" x="185.945312"/>
      <use xlink:href="#DejaVuSans-61" x="267.732422"/>
      <use xlink:href="#DejaVuSans-72" x="329.011719"/>
      <use xlink:href="#DejaVuSans-65" x="367.875"/>
      <use xlink:href="#DejaVuSans-5f" x="429.398438"/>
      <use xlink:href="#DejaVuSans-6f" x="479.398438"/>
      <use xlink:href="#DejaVuSans-72" x="540.580078"/>
      <use xlink:href="#DejaVuSans-5f" x="581.693359"/>
      <use xlink:href="#DejaVuSans-74" x="631.693359"/>
      <use xlink:href="#DejaVuSans-6f" x="670.902344"/>
      <use xlink:href="#DejaVuSans-6f" x="732.083984"/>
      <use xlink:href="#DejaVuSans-6c" x="793.265625"/>
     </g>
    </g>
   </g>
  </g>
 </g>
 <defs>
  <clipPath id="p4e5a1a977c">
   <rect x="43.78125" y="22.318125" width="517.435" height="363.88"/>
  </clipPath>
 </defs>
</svg>
